<svg width="200" height="200" viewBox="0 0 200 200" fill="none" xmlns="http://www.w3.org/2000/svg">
<path d="M2 187.461C2.51425 187.461 3.0285 187.461 33.1199 187.461C63.2113 187.461 122.864 187.461 151.623 187.461C180.382 187.461 176.44 187.461 174.152 187.476C170.284 187.502 168.233 187.616 165.033 187.726C161.528 187.846 158.374 187.836 155.163 187.914C152.351 187.982 150.047 187.961 140.697 187.992C131.863 188.022 114.719 187.962 105.118 187.93C90.8334 187.883 85.3085 187.774 80.7114 187.727C76.9679 187.688 72.8314 187.586 64.9697 187.539C61.7141 187.52 58.6402 187.399 53.8743 187.352C52.9084 187.342 52.3965 187.305 47.3319 187.289C42.2673 187.273 32.668 187.273 27.4658 187.289C20.1668 187.31 16.0458 187.523 11.4617 187.632C9.32547 187.684 5.70883 187.648 4.62579 187.648C1.88555 187.648 11.1526 187.742 16.1756 187.82C20.291 187.884 24.1491 187.867 35.5691 187.898C45.6166 187.926 64.3022 187.868 77.013 187.774C89.7238 187.681 95.8948 187.526 100.531 187.447C108.06 187.317 112.455 187.336 116.847 187.289C130.614 187.142 136.848 187.18 142.398 187.102C147.725 187.086 151.938 187.055 158.893 187.008C164.991 186.992 176.305 186.992 189 187.086" stroke="black" stroke-width="0.4" stroke-linecap="round"/>
</svg>
