<svg width="200" height="200" viewBox="0 0 200 200" fill="none" xmlns="http://www.w3.org/2000/svg">
<path d="M196.988 162.647C196.99 162.5 196.988 162.692 196.988 137.282C196.988 112.415 197.35 61.274 197.639 35.0324C197.929 8.79091 196.471 8.11264 196.5 7.59195C196.606 5.724 192.378 1.87824 193.5 2.99999C195 4.49999 198.296 3.30649 198.11 34.2914C197.924 65.2764 197.547 125.491 197 189" stroke="black" stroke-width="0.4" stroke-linecap="round"/>
<path d="M196.918 162.668C196.918 162.703 196.918 162.738 196.918 165.847C196.918 168.956 196.918 175.137 196.931 178.374C196.945 181.717 196.998 182.457 197.011 183.468C197.078 185.324 197 188.5 196.5 189C196.238 189.262 195.5 190 193.5 190" stroke="black" stroke-width="0.4" stroke-linecap="round"/>
</svg>
