<svg width="200" height="200" viewBox="0 0 200 200" fill="none" xmlns="http://www.w3.org/2000/svg">
<path d="M6 5.16849C6.17442 5.16849 6.34884 5.16849 37.2236 5.16849C68.0984 5.16849 129.668 5.16849 161.648 5.14889C193.627 5.12929 194.15 5.09009 193.984 5.0503C193.817 5.01051 192.945 4.97131 184.909 5.02951C176.872 5.08772 161.698 5.24452 153.619 5.34489C145.008 5.45188 142.385 5.52485 138.778 5.54445C137.261 5.55269 136.391 5.60325 127.134 5.62345C117.876 5.64364 100.26 5.64364 90.7491 5.62404C78.7621 5.59934 76.3067 5.48565 67.0466 5.42626C58.8359 5.3736 43.4842 5.40607 35.3156 5.42567C24.1579 5.45244 19.2241 5.60325 16.4942 5.74223C13.4049 5.80163 11.296 5.88121 9.44874 5.90081C8.648 5.92041 8.12474 5.95961 7.05708 6" stroke="black" stroke-width="0.4" stroke-linecap="round"/>
</svg>
