<svg width="200" height="200" viewBox="0 0 200 200" fill="none" xmlns="http://www.w3.org/2000/svg">
<path d="M196.988 162.5C196.989 162.353 196.988 162.546 196.988 137C196.988 112 197.35 60.5854 197.639 34.2036C197.928 7.82183 197.958 7.23366 197.988 6.71019C198.093 4.83226 198.216 3.07333 198.269 1.50634C198.28 1.57137 198.296 2.30811 198.11 33.4586C197.924 64.6092 197.535 126.151 196.988 190" stroke="black" stroke-width="0.4" stroke-linecap="round"/>
<path d="M198.245 1.00523V1.99461" stroke="black" stroke-width="0.4" stroke-linecap="round"/>
<path d="M196.917 162.521C196.917 162.556 196.917 162.592 196.917 165.717C196.917 168.842 196.917 175.057 196.931 178.311C196.944 181.672 196.998 182.416 197.011 183.432C197.078 185.299 197.051 187.985 197.011 188.464C196.998 188.836 196.998 189.472 196.998 190.126" stroke="black" stroke-width="0.4" stroke-linecap="round"/>
</svg>
