<svg width="200" height="200" viewBox="0 0 200 200" fill="none" xmlns="http://www.w3.org/2000/svg">
<path d="M2.04765 183.623C2.5619 183.623 3.02844 187.461 33.1199 187.461C63.2113 187.461 122.864 187.036 151.623 187.036C180.382 187.036 177.702 182.025 172.702 185.205C169.438 187.281 168.233 187.01 165.033 187.12C161.528 187.24 158.373 187.836 155.163 187.914C152.351 187.982 150.047 187.961 140.697 187.992C131.863 188.022 114.719 187.962 105.117 187.93C90.8333 187.883 85.3084 187.774 80.7113 187.727C76.9678 187.688 72.8314 187.587 64.9696 187.539C61.714 187.52 58.6402 187.399 53.8743 187.352C52.9083 187.342 52.3964 187.305 47.3319 187.289C42.2673 187.273 32.6679 187.273 27.4657 187.289C20.1667 187.311 16.0959 187.818 11.4999 187C9.3962 186.625 2.58297 183.5 1.49993 183.5C-1.24031 183.5 11.1525 187.742 16.1756 187.82C20.291 187.884 24.149 187.867 35.569 187.898C45.6165 187.926 64.3021 187.868 77.0129 187.775C89.7237 187.681 95.8947 187.527 100.531 187.447C108.06 187.317 112.455 187.336 116.847 187.289C130.614 187.142 136.848 187.18 142.398 187.102C147.725 187.086 151.937 187.008 158.893 187.008C170.5 187.008 163.449 187.105 175.449 184.605" stroke="black" stroke-width="0.4" stroke-linecap="round"/>
</svg>
