<svg width="200" height="200" viewBox="0 0 200 200" fill="none" xmlns="http://www.w3.org/2000/svg">
<path d="M2.80342 36.3161C2.81147 36.7773 2.81952 37.2385 3.02358 48.9289C3.22764 60.6193 3.62746 83.5251 3.82913 96.4015C4.0646 111.436 4.03481 114.879 4.06519 117.281C4.14083 123.261 4.19394 129.327 4.26839 136.257C4.33452 142.414 4.53066 153.948 4.6407 160.272C4.80472 169.699 4.97378 174.043 5.08086 178.154C5.16451 181.365 5.0575 184.149 6.99986 194.5C7.56278 197.5 7.62801 197.657 9 198C11 198.5 5.72959 203.956 5.2971 172.565C4.86462 141.174 3.94158 75.0665 3.47226 40.7034C3.00293 6.34016 8.5 5.99999 8.00005 6.00013C6.4718 6.00055 5.58029 9.43761 5.54999 10.3678C5.53474 10.8364 4.99928 11.3814 5.00005 12.7886" stroke="black" stroke-width="0.4" stroke-linecap="round"/>
</svg>
