<svg width="200" height="200" viewBox="0 0 200 200" fill="none" xmlns="http://www.w3.org/2000/svg">
<g clip-path="url(#clip0_39_116)">
<path d="M2.80325 36.3159C2.8113 36.7771 2.81935 37.2383 3.02341 48.9288C3.22746 60.6192 3.62728 83.5249 3.82895 96.4014C4.06443 111.436 4.03464 114.879 4.06502 117.281C4.14065 123.26 4.19377 129.326 4.26821 136.257C4.33435 142.414 4.53049 153.948 4.64052 160.272C4.80455 169.699 4.9736 174.043 5.08068 178.154C5.16434 181.365 5.28425 183.824 5.50338 194.353C5.54939 196.565 5.58464 197.024 5.62885 198.876C5.67306 200.728 5.72941 203.956 5.29693 172.565C4.86444 141.174 3.94141 75.0664 3.47208 40.7032C3.00276 6.34002 3.0151 5.7247 3.0322 6.02263C3.07076 7.5504 3.07785 9.2791 3.04756 10.2093C3.0323 10.6779 3.01726 11.1395 3.01804 12.5467" stroke="black" stroke-width="0.4" stroke-linecap="round"/>
</g>
<defs>
<clipPath id="clip0_39_116">
<rect width="200" height="200" fill="white"/>
</clipPath>
</defs>
</svg>
