<svg width="200" height="200" viewBox="0 0 200 200" fill="none" xmlns="http://www.w3.org/2000/svg">
<path d="M6 9.99999C6.17442 9.99999 6.34884 5.16849 37.2236 5.16849C68.0984 5.16849 129.668 5.16849 161.648 5.14889C193.627 5.12929 192.666 8.03979 192.5 8C192.334 7.96021 193.536 5.79526 185.5 5.85346C177.464 5.91167 161.698 5.24451 153.619 5.34489C145.008 5.45188 142.385 5.52485 138.778 5.54445C137.261 5.55269 136.391 5.60325 127.134 5.62344C117.876 5.64363 100.26 5.64363 90.7491 5.62403C78.762 5.59933 76.3067 5.48565 67.0466 5.42625C58.8359 5.37359 43.4842 5.40606 35.3156 5.42566C24.8922 5.45067 19.7048 5.49382 16.6214 6.31468C16.2059 6.42528 15.7793 6.49398 15.3499 6.51663C13.0515 6.63793 12.0245 7.39495 10.4459 7.87618C10.152 7.96577 9.83874 7.98834 9.54875 8.08983C8.78771 8.3562 7.82594 9.17405 7 9.99999" stroke="black" stroke-width="0.4" stroke-linecap="round"/>
</svg>
