<svg width="1024" height="1024" viewBox="0 0 1024 1024" fill="none" xmlns="http://www.w3.org/2000/svg">
<rect width="1024" height="1024" fill="white"/>
<g filter="url(#filter0_d_351_340)">
<path d="M413.859 442.323C412.945 442.258 412.03 442.192 411.114 442.153C293.698 437.789 202.368 527.459 196.274 643.572C190.022 762.647 291.762 869.758 409.849 872.851C460.873 874.764 510.883 858.253 550.779 826.332C641.045 752.819 654.504 620.588 578.816 531.665C536.783 482.29 478.904 448.456 413.859 442.323Z" fill="#040402"/>
<path d="M410.499 456.64C301.561 452.632 216.46 535.62 210.754 644.332C204.94 755.068 300.102 855.471 410.229 858.355L410.311 858.357L410.393 858.36C457.921 860.142 504.511 844.768 541.687 815.036C625.714 746.546 638.071 623.651 567.775 541.063L567.774 541.064C527.875 494.195 473.377 462.547 412.666 456.774C411.799 456.712 411.133 456.667 410.499 456.64Z" stroke="black" stroke-width="29"/>
</g>
<g filter="url(#filter1_d_351_340)">
<path d="M416.214 455.805C414.861 455.661 413.506 455.543 412.149 455.438C364.191 452.128 316.819 467.658 280.142 498.717C238.281 534.787 212.376 583.915 208.423 639.204C204.954 692.674 222.914 745.334 258.347 785.551C298.402 831.342 346.952 855.625 407.507 859.942C576.078 863.736 677.245 680.193 574.911 546.929C536.196 496.716 479.11 463.942 416.214 455.805Z" fill="#FEFEFE"/>
<path d="M411.107 469.901C366.949 466.865 323.333 481.162 289.556 509.747C250.794 543.168 226.923 588.315 222.976 639.038L222.887 640.238C219.695 689.83 236.362 738.664 269.227 775.966L269.244 775.985L269.261 776.005C306.739 818.851 351.64 841.341 408.192 845.451C565.558 848.731 657.526 678.357 563.428 555.782C527.1 508.666 473.551 477.894 414.539 470.209C413.434 470.093 412.297 469.994 411.107 469.901Z" stroke="black" stroke-width="29"/>
</g>
<g filter="url(#filter2_d_351_340)">
<mask id="path-5-inside-1_351_340" fill="white">
<path d="M344.31 635C328.412 640.15 331.329 657.075 334.479 670.223C341.901 701.317 370.077 722.895 401.742 722.999C425.286 723.078 439.405 714.491 455.662 698.781C459.334 693.932 462.529 686.979 457.097 682.274C451.562 682.522 446.182 688.887 442.754 692.756C410.762 728.868 349.01 705.42 345.755 657.846C345.195 649.756 347.838 642.175 344.31 635Z"/>
</mask>
<path d="M344.31 635C328.412 640.15 331.329 657.075 334.479 670.223C341.901 701.317 370.077 722.895 401.742 722.999C425.286 723.078 439.405 714.491 455.662 698.781C459.334 693.932 462.529 686.979 457.097 682.274C451.562 682.522 446.182 688.887 442.754 692.756C410.762 728.868 349.01 705.42 345.755 657.846C345.195 649.756 347.838 642.175 344.31 635Z" fill="#040402"/>
<path d="M344.31 635L335.373 607.411L359.255 599.675L370.333 622.203L344.31 635ZM334.479 670.223L362.681 663.465L362.684 663.478L362.687 663.491L334.479 670.223ZM401.742 722.999L401.838 694L401.838 694L401.742 722.999ZM455.662 698.781L478.782 716.288L477.428 718.076L475.815 719.635L455.662 698.781ZM457.097 682.274L455.797 653.303L467.346 652.785L476.084 660.354L457.097 682.274ZM442.754 692.756L421.047 673.525L421.05 673.523L442.754 692.756ZM345.755 657.846L374.686 655.844L374.687 655.855L374.687 655.867L345.755 657.846ZM344.31 635L353.246 662.589C353.611 662.47 354.47 662.138 355.559 661.394C356.674 660.631 357.771 659.614 358.71 658.377C360.613 655.875 360.959 653.73 361 653.423C361.024 653.241 360.919 653.985 361.197 656.07C361.465 658.086 361.96 660.457 362.681 663.465L334.479 670.223L306.278 676.982C304.772 670.699 301.845 658.305 303.503 645.801C304.408 638.976 306.809 630.812 312.537 623.277C318.447 615.503 326.458 610.299 335.373 607.411L344.31 635ZM334.479 670.223L362.687 663.491C366.909 681.18 383.162 693.938 401.838 694L401.742 722.999L401.646 751.999C356.992 751.852 316.893 721.453 306.272 676.956L334.479 670.223ZM401.742 722.999L401.838 694C409.766 694.026 414.76 692.656 418.84 690.689C423.339 688.519 428.356 684.841 435.51 677.927L455.662 698.781L475.815 719.635C466.712 728.431 456.54 736.901 444.03 742.933C431.1 749.167 417.262 752.051 401.645 751.999L401.742 722.999ZM455.662 698.781L432.543 681.274C433.274 680.309 432.003 681.513 431.342 684.859C430.944 686.878 430.668 690.271 431.85 694.309C433.104 698.587 435.523 701.953 438.11 704.194L457.097 682.274L476.084 660.354C488.163 670.817 490.424 685.046 488.245 696.088C486.427 705.299 481.723 712.404 478.782 716.288L455.662 698.781ZM457.097 682.274L458.397 711.245C462.335 711.068 465.092 709.87 466.34 709.223C467.587 708.578 468.142 708.062 467.971 708.208C467.848 708.313 467.486 708.645 466.821 709.354C466.108 710.115 465.513 710.799 464.459 711.989L442.754 692.756L421.05 673.523C422.272 672.143 425.958 667.816 430.3 664.107C434.041 660.911 443.036 653.875 455.797 653.303L457.097 682.274ZM442.754 692.756L464.461 711.986C439.255 740.438 402.576 744.601 373.472 733.902C344.573 723.279 319.346 696.704 316.823 659.826L345.755 657.846L374.687 655.867C375.419 666.562 382.696 675.498 393.484 679.464C404.068 683.355 414.261 681.185 421.047 673.525L442.754 692.756ZM345.755 657.846L316.824 659.848C316.559 656.019 316.697 652.614 316.838 650.19C316.906 649.023 316.995 647.784 317.049 646.991C317.11 646.079 317.148 645.46 317.168 644.939C317.254 642.76 316.855 644.888 318.286 647.797L344.31 635L370.333 622.203C375.292 632.287 375.337 641.793 375.123 647.221C375.042 649.289 374.778 652.899 374.74 653.555C374.653 655.051 374.671 655.628 374.686 655.844L345.755 657.846Z" fill="black" mask="url(#path-5-inside-1_351_340)"/>
</g>
<g filter="url(#filter3_d_351_340)">
<path d="M384.69 552.16C360.801 549.699 348.381 576.168 374.862 591C397.837 587.452 408.189 565.604 384.69 552.16Z" fill="#040402"/>
<path d="M380.243 566.555C376.161 566.949 374.807 569.2 374.612 569.771C374.479 570.163 374.355 570.845 374.925 572.024C375.295 572.792 376.078 573.971 377.634 575.351C381.743 573.703 383.23 571.36 383.444 570.716C383.505 570.534 383.576 570.387 383.301 569.829C383.025 569.272 382.232 568.071 380.243 566.555Z" stroke="black" stroke-width="29"/>
</g>
<g filter="url(#filter4_d_351_340)">
<path d="M493.181 601C468.4 602.097 461.501 629.823 482.268 639C507.245 635.75 517.408 615.307 493.181 601Z" fill="#040402"/>
<path d="M489.689 616.194C486.217 617.348 484.959 619.583 484.64 620.763C484.387 621.694 484.501 622.452 484.785 623.041C484.858 623.191 484.973 623.394 485.158 623.634C487.269 623.011 488.925 622.238 490.14 621.466C491.633 620.517 492.229 619.739 492.438 619.403C492.413 619.35 492.383 619.279 492.338 619.192C492.054 618.644 491.32 617.575 489.689 616.194Z" stroke="black" stroke-width="29"/>
</g>
<g filter="url(#filter5_d_351_340)">
<path d="M492.67 151.637C475.919 149.078 454.435 154.484 440.163 163.274C421.817 174.741 408.876 193.152 404.28 214.33C394.258 259.502 417.821 302.748 464.254 312.236C455.902 331.029 408.404 422.435 408.224 433.797C414.94 438.62 430.688 432.185 440.168 433.299C497.542 440.048 554.345 478.341 588.914 523.775C595.613 532.582 601.601 553.864 610.631 556C616.792 551.413 655.226 465.039 662.061 451.069C669.703 435.671 677.22 419.093 686.375 404.704C717.438 456.757 792.791 447.531 819.221 394.561C830.24 372.689 832.026 347.292 824.177 324.083C816.983 303.01 801.619 283.982 781.417 274.35C753.903 261.245 729.053 267.522 702.104 276.866C705.11 263.001 707.504 252.019 704.656 237.578C700.192 215.994 687.433 197.018 669.135 184.779C625.754 155.59 585.984 171.35 559.007 212.639C547.335 176.892 528.382 160.83 492.67 151.637Z" fill="#040402"/>
<path d="M489.797 165.873C477.02 164.164 459.417 168.459 447.805 175.598C432.804 184.99 422.215 200.06 418.45 217.405L418.443 217.438L418.436 217.47C409.919 255.859 429.75 290.386 467.156 298.029L484.83 301.641L477.504 318.125C473.203 327.801 458.888 356.072 446.215 382.143C439.761 395.419 433.644 408.297 429.149 418.499C429.014 418.806 428.883 419.11 428.751 419.411C429.288 419.334 429.806 419.263 430.29 419.201C433.489 418.794 437.679 418.407 441.86 418.898H441.862C503.957 426.203 564.046 467.145 600.453 514.995L600.454 514.996C603.008 518.354 605.147 522.391 606.815 525.706C607.631 527.327 608.303 528.703 608.932 529.996C613.093 521.715 617.996 511.474 622.969 500.889C633.97 477.469 645.586 451.748 649.036 444.696L649.055 444.66L649.072 444.623L650.452 441.827C657.397 427.685 665.048 411.213 674.142 396.921L686.771 377.071L698.827 397.273C711.191 417.992 732.116 426.539 753.192 424.578C774.514 422.595 795.398 409.83 806.247 388.087L806.259 388.062L806.271 388.037L806.7 387.173C815.581 368.98 816.941 347.985 810.455 328.769C804.342 310.864 791.384 295.165 775.178 287.438C753.282 277.011 733.417 281.356 706.854 290.566L682.463 299.022L687.933 273.794C690.966 259.802 692.626 251.55 690.437 240.415C686.722 222.589 676.173 206.931 661.074 196.832L661.058 196.821L661.041 196.81C642.248 184.164 625.861 182.16 611.971 186.202C597.594 190.386 583.428 201.771 571.146 220.57L554.607 245.882L545.223 217.14C539.914 200.882 533.384 190.396 525.132 182.939C516.941 175.539 505.926 170.102 489.797 165.873Z" stroke="black" stroke-width="29"/>
</g>
<g filter="url(#filter6_d_351_340)">
<path d="M491.456 163.311C487.968 163.15 484.477 163.047 480.985 163.001C411.09 162.662 387.399 266.806 451.243 294.773C459.191 298.253 471.573 302.164 477.808 307.867C474.859 318.764 461.791 343.932 456.502 354.567C445.776 376.098 435.187 397.708 424.735 419.37C493.818 417.12 577.194 473.592 609.109 534C631.549 488.635 651.039 440.719 675.751 396.125C679.319 389.689 680.473 385.804 686.96 383.96C691.857 385.896 690.054 384.339 692.726 388.63C710.663 429.6 759.587 439.332 792.253 409.834C806.988 396.282 815.824 377.524 816.87 357.549C820.211 294.525 758.359 260.919 705.62 289.75C699.938 292.85 685.25 299.652 679.178 299.535C675.102 296.722 676.575 298.501 674.504 294.106C675.175 288.874 684.874 279.285 688.335 272.601C712.169 226.634 652.62 167.056 605.747 185.733C596.907 189.302 588.892 194.637 582.195 201.413C565.211 218.654 570.854 230.166 563.207 250.847C561.84 254.549 560.226 255.059 557.356 256.145C547.475 251.658 548.111 230.676 545.695 219.047C544.15 211.551 541.535 204.304 537.93 197.541C526.582 176.444 512.788 169.817 491.456 163.311Z" fill="#FEFEFE"/>
<path d="M480.869 177.501C454.436 177.395 435.685 196.831 430.104 221.476C424.612 245.723 432.889 270.241 455.951 280.99L457.061 281.491C458.771 282.24 460.774 283.035 463.229 284.012C465.587 284.949 468.286 286.026 470.97 287.198C475.994 289.392 482.577 292.578 487.595 297.168L494.112 303.13L491.805 311.655C489.926 318.598 485.305 328.808 481.113 337.571C476.756 346.681 472.014 355.937 469.484 361.023L469.48 361.032C462.035 375.978 454.657 390.964 447.343 405.979C478.673 409.854 510.587 423.025 538.668 440.97C565.408 458.057 589.652 480.093 607.365 504.164C625.063 466.501 642.587 426.056 663.068 389.097L663.069 389.095C664.055 387.317 666.343 382.628 668.774 379.472C672.258 374.949 676.831 371.765 682.995 370.013L687.722 368.669L692.291 370.476C693.155 370.817 693.634 370.973 694.274 371.193C694.34 371.215 697.122 372.036 699.636 374.011C702.358 376.15 703.762 378.798 703.925 379.079C704.356 379.822 704.524 380.145 705.034 380.964L705.589 381.854L706.009 382.814C719.883 414.505 757.011 422.069 782.486 399.116C794.406 388.131 801.543 372.949 802.39 356.791L802.391 356.781L802.446 355.559C803.405 329.981 791.545 311.439 774.946 301.715C757.868 291.71 734.647 290.407 712.576 302.473L712.565 302.479C709.224 304.301 703.623 307.017 697.969 309.297C695.13 310.442 692.052 311.569 689.094 312.423C686.449 313.186 682.674 314.105 678.897 314.032L674.535 313.947L670.944 311.47C670.196 310.953 669.777 310.696 669.236 310.353C669.082 310.254 666.986 309.025 665.188 306.975C663.305 304.828 662.388 302.538 662.252 302.228C661.949 301.535 661.792 301.144 661.388 300.286L659.584 296.459L660.122 292.262C660.698 287.769 662.822 284.003 664.073 281.944C665.541 279.531 667.308 277.134 668.811 275.148C672.396 270.411 674.473 267.838 675.46 265.933L675.463 265.927L675.829 265.198C683.318 249.846 678.123 230.449 663.151 215.024C647.899 199.31 627.272 192.776 611.133 199.195C604.148 202.021 597.817 206.239 592.525 211.589H592.524C586.219 217.99 584.534 222.6 583.364 227.941C582.23 233.123 581.061 244.369 576.81 255.869V255.87C575.535 259.323 573.486 263.014 569.749 265.921C566.698 268.295 563.144 269.458 562.485 269.707L556.849 271.839L551.36 269.347C544.764 266.351 540.923 261.022 538.694 256.491C536.485 252 535.267 247.121 534.48 242.979C533.68 238.764 533.17 234.398 532.747 230.822C532.29 226.96 531.947 224.156 531.498 221.996L531.494 221.975C530.232 215.854 528.099 209.935 525.16 204.41C520.434 195.625 515.637 190.575 510.301 186.957C504.971 183.344 498.405 180.667 488.971 177.719C486.271 177.61 483.571 177.537 480.869 177.501Z" stroke="black" stroke-width="29"/>
</g>
<defs>
<filter id="filter0_d_351_340" x="192" y="442" width="440" height="439" filterUnits="userSpaceOnUse" color-interpolation-filters="sRGB">
<feFlood flood-opacity="0" result="BackgroundImageFix"/>
<feColorMatrix in="SourceAlpha" type="matrix" values="0 0 0 0 0 0 0 0 0 0 0 0 0 0 0 0 0 0 127 0" result="hardAlpha"/>
<feOffset dy="4"/>
<feGaussianBlur stdDeviation="2"/>
<feComposite in2="hardAlpha" operator="out"/>
<feColorMatrix type="matrix" values="0 0 0 0 0 0 0 0 0 0 0 0 0 0 0 0 0 0 0.25 0"/>
<feBlend mode="normal" in2="BackgroundImageFix" result="effect1_dropShadow_351_340"/>
<feBlend mode="normal" in="SourceGraphic" in2="effect1_dropShadow_351_340" result="shape"/>
</filter>
<filter id="filter1_d_351_340" x="204" y="455" width="416" height="413" filterUnits="userSpaceOnUse" color-interpolation-filters="sRGB">
<feFlood flood-opacity="0" result="BackgroundImageFix"/>
<feColorMatrix in="SourceAlpha" type="matrix" values="0 0 0 0 0 0 0 0 0 0 0 0 0 0 0 0 0 0 127 0" result="hardAlpha"/>
<feOffset dy="4"/>
<feGaussianBlur stdDeviation="2"/>
<feComposite in2="hardAlpha" operator="out"/>
<feColorMatrix type="matrix" values="0 0 0 0 0 0 0 0 0 0 0 0 0 0 0 0 0 0 0.25 0"/>
<feBlend mode="normal" in2="BackgroundImageFix" result="effect1_dropShadow_351_340"/>
<feBlend mode="normal" in="SourceGraphic" in2="effect1_dropShadow_351_340" result="shape"/>
</filter>
<filter id="filter2_d_351_340" x="328" y="635" width="136" height="96" filterUnits="userSpaceOnUse" color-interpolation-filters="sRGB">
<feFlood flood-opacity="0" result="BackgroundImageFix"/>
<feColorMatrix in="SourceAlpha" type="matrix" values="0 0 0 0 0 0 0 0 0 0 0 0 0 0 0 0 0 0 127 0" result="hardAlpha"/>
<feOffset dy="4"/>
<feGaussianBlur stdDeviation="2"/>
<feComposite in2="hardAlpha" operator="out"/>
<feColorMatrix type="matrix" values="0 0 0 0 0 0 0 0 0 0 0 0 0 0 0 0 0 0 0.25 0"/>
<feBlend mode="normal" in2="BackgroundImageFix" result="effect1_dropShadow_351_340"/>
<feBlend mode="normal" in="SourceGraphic" in2="effect1_dropShadow_351_340" result="shape"/>
</filter>
<filter id="filter3_d_351_340" x="356" y="552" width="46" height="47" filterUnits="userSpaceOnUse" color-interpolation-filters="sRGB">
<feFlood flood-opacity="0" result="BackgroundImageFix"/>
<feColorMatrix in="SourceAlpha" type="matrix" values="0 0 0 0 0 0 0 0 0 0 0 0 0 0 0 0 0 0 127 0" result="hardAlpha"/>
<feOffset dy="4"/>
<feGaussianBlur stdDeviation="2"/>
<feComposite in2="hardAlpha" operator="out"/>
<feColorMatrix type="matrix" values="0 0 0 0 0 0 0 0 0 0 0 0 0 0 0 0 0 0 0.25 0"/>
<feBlend mode="normal" in2="BackgroundImageFix" result="effect1_dropShadow_351_340"/>
<feBlend mode="normal" in="SourceGraphic" in2="effect1_dropShadow_351_340" result="shape"/>
</filter>
<filter id="filter4_d_351_340" x="466" y="601" width="45" height="46" filterUnits="userSpaceOnUse" color-interpolation-filters="sRGB">
<feFlood flood-opacity="0" result="BackgroundImageFix"/>
<feColorMatrix in="SourceAlpha" type="matrix" values="0 0 0 0 0 0 0 0 0 0 0 0 0 0 0 0 0 0 127 0" result="hardAlpha"/>
<feOffset dy="4"/>
<feGaussianBlur stdDeviation="2"/>
<feComposite in2="hardAlpha" operator="out"/>
<feColorMatrix type="matrix" values="0 0 0 0 0 0 0 0 0 0 0 0 0 0 0 0 0 0 0.25 0"/>
<feBlend mode="normal" in2="BackgroundImageFix" result="effect1_dropShadow_351_340"/>
<feBlend mode="normal" in="SourceGraphic" in2="effect1_dropShadow_351_340" result="shape"/>
</filter>
<filter id="filter5_d_351_340" x="398" y="151" width="435" height="413" filterUnits="userSpaceOnUse" color-interpolation-filters="sRGB">
<feFlood flood-opacity="0" result="BackgroundImageFix"/>
<feColorMatrix in="SourceAlpha" type="matrix" values="0 0 0 0 0 0 0 0 0 0 0 0 0 0 0 0 0 0 127 0" result="hardAlpha"/>
<feOffset dy="4"/>
<feGaussianBlur stdDeviation="2"/>
<feComposite in2="hardAlpha" operator="out"/>
<feColorMatrix type="matrix" values="0 0 0 0 0 0 0 0 0 0 0 0 0 0 0 0 0 0 0.25 0"/>
<feBlend mode="normal" in2="BackgroundImageFix" result="effect1_dropShadow_351_340"/>
<feBlend mode="normal" in="SourceGraphic" in2="effect1_dropShadow_351_340" result="shape"/>
</filter>
<filter id="filter6_d_351_340" x="410" y="163" width="411" height="379" filterUnits="userSpaceOnUse" color-interpolation-filters="sRGB">
<feFlood flood-opacity="0" result="BackgroundImageFix"/>
<feColorMatrix in="SourceAlpha" type="matrix" values="0 0 0 0 0 0 0 0 0 0 0 0 0 0 0 0 0 0 127 0" result="hardAlpha"/>
<feOffset dy="4"/>
<feGaussianBlur stdDeviation="2"/>
<feComposite in2="hardAlpha" operator="out"/>
<feColorMatrix type="matrix" values="0 0 0 0 0 0 0 0 0 0 0 0 0 0 0 0 0 0 0.25 0"/>
<feBlend mode="normal" in2="BackgroundImageFix" result="effect1_dropShadow_351_340"/>
<feBlend mode="normal" in="SourceGraphic" in2="effect1_dropShadow_351_340" result="shape"/>
</filter>
</defs>
</svg>
