<svg width="1024" height="1024" viewBox="0 0 1024 1024" fill="none" xmlns="http://www.w3.org/2000/svg">
<rect width="1024" height="1024" fill="white"/>
<path d="M487.457 73.3584C523.591 69.5796 554.933 73.6112 581.681 86.3652C608.424 99.1176 630.828 120.711 648.885 152.491L650.311 155.001L652.874 153.672C675.795 141.792 700.788 134.42 726.497 131.958C779.702 127.398 832.52 144.311 873.151 178.913L873.161 178.921C929.034 226.112 952.589 296.698 937.564 367.812C928.649 410.005 905.332 438.053 874.594 456.29C843.753 474.589 805.346 483.057 766.381 485.728L762.919 485.965L763.654 489.356C779.022 560.225 796.576 630.13 808.722 701.771C814.021 733.036 822.617 766.749 824.456 797.609L824.578 799.652L826.524 800.284C834.248 802.791 844.797 808.911 851.183 816.075C854.376 819.658 856.258 823.2 856.562 826.424C856.838 829.343 855.863 832.456 852.357 835.631L852.011 835.938C821.816 862.09 773.013 879.436 721.73 892.076C670.527 904.697 617.571 912.477 579.005 919.868C516.522 930.378 452.125 941.703 389.175 948.363C371.003 949.455 348.371 952.271 326.182 951.979C303.959 951.688 283.108 948.251 268.702 937.364H268.701C260.891 931.462 258.871 924.697 259.908 917.953C260.989 910.927 265.463 903.583 271.401 897.194L272.477 896.037L272.131 894.495C256.534 825.012 244.361 754.131 230.536 684.12C223.585 648.913 216.429 604.87 206.953 570.356L206.438 568.482L204.518 568.186C164.483 561.998 135.597 545.449 116.062 520.916C96.4834 496.33 86.0626 463.432 83.5635 424.172C78.6264 342.957 106.262 263.119 160.369 202.286L160.373 202.281C183.288 176.414 210.893 154.751 240.041 146.398C268.953 138.114 299.651 142.833 329.416 170.271L331.853 172.517L333.846 169.868C374.279 116.152 420.542 83.8211 487.457 73.3584Z" fill="#2B2B2B" stroke="black" stroke-width="6"/>
<path d="M483.861 93.8447C495.353 91.5261 509.806 91.4402 524.188 93.3203C538.568 95.2002 552.646 99.0158 563.411 104.335C591.87 118.664 613.605 143.556 624.013 173.688L624.5 175.127C638.244 217.476 628.997 263.682 606.797 301.593C597.642 317.225 587.216 332.8 578.913 349.291L578.587 349.94L578.593 350.666C578.602 351.771 578.579 353.004 578.59 353.524C578.605 354.231 578.662 355.171 579.195 356.147C579.598 356.885 580.254 357.541 580.593 357.906C581.054 358.403 581.694 359.107 582.608 360.27L583.391 361.266L584.649 361.399L588.715 361.832L589.478 361.913L590.187 361.618C598.002 358.362 606.426 349.95 613.672 341.16C621.028 332.237 627.576 322.413 631.596 315.718C647.299 289.559 657.417 266.029 661.812 241.591C666.073 217.902 664.922 193.545 658.49 165.327C715.533 148.379 761.92 144.77 816.271 173.801C856.798 196.984 892.08 232.937 904.295 277.945L904.579 279.011C919.106 334.353 911.727 377.782 887.535 407.865C863.679 437.531 822.959 454.864 768.853 457.4L766.267 457.51C758.725 457.795 751.39 457.172 743.481 457.071C736.172 456.978 728.713 457.359 721.538 459.603C717.418 457.627 714.807 454.714 711.657 451.144C708.274 447.309 704.38 442.871 697.614 439.429L696.877 439.053L696.05 439.109C694.347 439.226 693.255 439.237 692.47 439.244C691.813 439.25 690.922 439.236 690.091 439.44C689.108 439.682 688.374 440.164 687.756 440.597C687.443 440.816 687.063 441.093 686.65 441.392C686.223 441.701 685.713 442.068 685.079 442.509L683.772 443.417L683.792 445.008L683.841 449.071L683.851 449.838L684.227 450.506C688.622 458.318 695.934 465.938 703.96 472.439C711.563 478.599 719.974 483.891 727.521 487.503C729.455 495.576 730.765 504.176 732.005 512.713C724.484 505.965 713.355 496.64 701.936 488.351C694.284 482.796 686.419 477.645 679.368 474.043C675.844 472.242 672.453 470.793 669.346 469.882C666.278 468.983 663.253 468.538 660.562 468.985L658.895 469.262L658.268 470.832C657.642 472.399 657.199 474.651 657.198 476.826C657.198 478.847 657.577 481.719 659.553 483.629C665.208 489.096 672.493 494.546 680.277 500.06C688.138 505.627 696.453 511.224 704.515 517.175C720.71 529.131 734.788 541.773 739.939 556.114C742.943 564.477 745.558 575.855 747.929 587.489C749.618 595.781 751.195 604.256 752.68 611.664C715.436 582.537 679.192 554.456 637.293 530.832C635.536 529.841 634.313 529.037 632.768 528.131C631.373 527.313 629.866 526.509 628.245 526.062C626.538 525.591 624.748 525.525 622.821 526.09C620.962 526.635 619.146 527.717 617.257 529.261L616.203 530.122L616.157 531.483C616.069 534.116 616.236 536.689 617.209 539.104C618.211 541.591 619.95 543.627 622.512 545.41C672.476 580.198 720.859 605.202 760.479 651.896L761.807 668.117C749.365 657.576 725.224 638.578 700.816 621.595C686.359 611.535 671.722 602.12 659.309 595.573C653.108 592.303 647.377 589.703 642.449 588.104C637.656 586.55 633.1 585.762 629.53 586.732L628.024 587.142L627.495 588.61L626.446 591.519L626.13 592.396L626.367 593.297C626.765 594.815 627.202 597.14 627.938 598.988C628.72 600.956 629.974 602.868 632.232 604.272L632.698 604.547C680.83 631.364 728.155 658.591 763.228 701.402L764.889 703.453C780.644 723.126 782.607 740.406 786.486 765.848L786.506 765.978L786.537 766.104C787.182 768.754 787.945 771.339 788.459 773.314C789.007 775.421 789.359 777.128 789.427 778.681C789.54 781.276 788.891 783.771 785.891 787.015C782.852 787.348 780.815 787.14 779.349 786.639C777.81 786.113 776.637 785.177 775.481 783.622C774.258 781.975 773.161 779.785 771.739 776.814C770.353 773.917 768.721 770.421 766.495 766.526C739.969 720.117 688.039 686.927 644.562 659.593C640.986 657.345 636.768 654.749 632.358 653.006C627.948 651.262 623.021 650.236 618.104 651.489L616.149 651.987L615.873 653.984C615.577 656.121 615.492 658.294 616.216 660.396C616.966 662.575 618.443 664.286 620.513 665.795H620.514C674.898 705.429 721.287 730.321 756.772 789.171C731.127 791.864 706.118 794.821 680.635 800.197C675.404 793.674 663.643 778.505 651.508 764.967C644.943 757.643 638.164 750.675 632.144 745.734C629.14 743.27 626.221 741.223 623.532 739.898C620.942 738.623 618.039 737.754 615.333 738.471L613.46 738.967L613.142 740.878C612.728 743.361 613.222 746.039 614.133 748.654C615.056 751.305 616.494 754.14 618.247 757.045C621.753 762.855 626.714 769.265 631.987 775.512C637.274 781.774 642.95 787.96 647.923 793.321C651.136 796.785 654.025 799.873 656.348 802.432C646.161 804.562 634.096 806.573 621.799 808.547C607.487 810.844 592.858 813.09 580.731 815.4C485.636 833.516 394.164 850.871 300.024 874.341C289.53 826.471 280.331 778.256 271.068 729.996C261.909 682.277 252.688 634.518 242.104 587.09L241.075 582.501C238.186 569.672 235.816 557.599 231.841 544.723L231.188 542.61L228.979 542.608L227.287 542.598C191.906 542.21 165.3 531.043 146.317 511.806C126.978 492.206 115.254 463.926 110.546 429.238L110.545 429.231C100.572 356.893 120.161 283.582 164.863 225.92L164.862 225.919C180.449 205.838 202.8 184.215 226.89 172.858C238.906 167.193 251.225 164.144 263.289 164.991C275.302 165.835 287.264 170.552 298.632 180.763C321.153 200.994 328.849 227.92 330.082 256.771C331.32 285.753 326.039 316.077 322.994 343.082V343.083C322.619 346.416 324.079 348.858 325.905 350.544C327.581 352.091 329.762 353.176 331.157 353.918L332.276 354.514L333.482 354.126L337.801 352.741L338.605 352.482L339.157 351.843C347.996 341.585 354.002 325.395 357.963 308.938C361.948 292.378 363.963 275.1 364.567 262.283C365.957 232.798 360.651 209.411 347.049 183.801C372.707 136.31 430.514 100.204 483.623 93.8828L483.743 93.8691L483.861 93.8447Z" fill="#FEFEFE" stroke="black" stroke-width="6"/>
<path d="M786.977 820.809C796.961 819.374 808.962 819.575 817.66 823.67L817.799 824.357C817.691 824.504 817.589 824.635 817.443 824.791L817.441 824.792C813.545 828.978 805.445 833.642 793.554 838.562C781.793 843.43 766.74 848.387 749.361 853.331C714.613 863.217 670.811 872.982 625.972 881.844C539.101 899.012 448.561 912.744 412.907 917.357L409.631 917.775C381.694 921.253 353.603 923.331 325.461 923.999C320.462 923.951 311.717 923.814 304.238 922.092C300.477 921.226 297.309 920.016 295.136 918.42C293.457 917.187 292.457 915.804 292.124 914.138C293.471 913.086 295.783 911.776 299.255 910.27C303.565 908.4 309.273 906.386 316.23 904.253C330.138 899.99 348.798 895.328 370.737 890.452C414.601 880.704 471.355 870.147 528.928 860.257C644.096 840.473 762.31 823.399 786.862 820.823L786.92 820.816L786.977 820.809Z" fill="#FEFEFE" stroke="black" stroke-width="6"/>
</svg>
