<svg width="1024" height="1024" viewBox="0 0 1024 1024" fill="none" xmlns="http://www.w3.org/2000/svg">
<rect width="1024" height="1024" fill="white"/>
<path d="M371.995 149.943C486.207 138.127 701.857 182.003 807.043 232.595C876.507 269.878 913.083 304.827 942.757 376.811C980.749 468.894 931.873 648.297 861.199 707.984C811.556 749.921 658.173 782.054 584.136 805.214C507.356 828.459 426.476 855.266 347.189 869.888C287.871 880.831 222.506 875.811 171.004 839.027C118.382 801.431 83.1338 680.882 70.0667 619.604C57.9436 562.777 102.602 469.87 114.578 411.739C125.049 360.946 121.539 282.201 154.132 241.28C192.832 192.73 313.651 155.512 371.995 149.943Z" fill="#2B2B2B"/>
<path d="M396.369 190.721C477.4 179.057 701.385 229.326 776.38 262.208C827.319 284.543 876.315 324.309 894.571 378.732C907.35 416.8 917.802 478.827 897.868 514.268C849.609 600.111 645.853 664.339 558.549 696.126C467.33 727.38 376.965 763.929 281.623 784.158C185.87 804.472 133.341 651.612 124.537 579.144C118.265 527.451 168.851 436.243 178.214 382.272C184.427 346.476 175.888 295.667 198.943 266.105C246.938 216.146 331.149 196.783 396.369 190.721Z" fill="#FEFEFE"/>
<path d="M421.298 396C467.992 403.182 471.214 445.285 424.729 460C377.797 452.054 372.397 410.77 421.298 396Z" fill="#2B2B2B"/>
<path d="M560.262 288.133C578.461 285.966 605.292 284.694 610 306.057C606.439 316.312 603.3 317.436 594.396 323.993C574.718 329.714 557.726 328.697 550 308.247C551.237 297.301 552.928 296.388 560.262 288.133Z" fill="#2B2B2B"/>
<path d="M541.897 588C555.652 588.147 568.871 591.002 575 605.324C574.52 618.725 576.215 612.474 568.476 624.33C551.613 628.134 539.44 630.821 533 610.795C534.186 598.902 535.231 598.226 541.897 588Z" fill="#2B2B2B"/>
<path d="M253.5 531.004C269.393 530.953 278.58 531.178 285 546.669C284.287 557.045 281.063 559.413 274.529 567.556C257.523 568.878 247.908 568.339 243 550.118C244.626 539.744 246.538 538.682 253.5 531.004Z" fill="#2B2B2B"/>
<path d="M772.78 344.446C778.898 340.969 786.369 341.214 792.261 345.085C798.153 348.958 801.479 355.831 800.944 362.981C800.408 370.129 796.095 376.403 789.724 379.316C780.42 383.553 769.51 379.533 764.999 370.193C760.461 360.852 763.9 349.505 772.78 344.446Z" fill="#2B2B2B"/>
<path d="M663.107 458.42C671.464 453.533 682.09 456.27 687.223 464.629C692.356 472.988 690.178 484.016 682.298 489.673C676.866 493.572 669.793 494.081 663.883 491.004C657.974 487.924 654.184 481.755 654.005 474.945C653.855 468.135 657.347 461.785 663.107 458.42Z" fill="#2B2B2B"/>
<path d="M472.377 246C482.547 248.049 488.685 248.279 495 255.967C494.881 268.02 494.259 265.038 486.698 277C473.089 274.817 469.323 274.88 462 263.238C464.164 251.842 463.038 255.706 472.377 246Z" fill="#2B2B2B"/>
<path d="M320.368 263.347C326.425 263.042 332.452 263.065 338.509 263C348.594 268.218 345.784 264.578 349 272.975C346.502 281.846 343.348 283.099 335.574 289C322.429 287.159 320.462 287.128 312 279.672C312.187 269.494 311.688 273.04 320.368 263.347Z" fill="#2B2B2B"/>
<path d="M395.142 659.379C398.964 657.289 403.56 657.592 407.077 660.171C410.621 662.749 412.476 667.168 411.895 671.619C411.313 676.07 408.378 679.81 404.335 681.31C398.659 683.409 392.373 680.57 389.964 674.804C387.555 669.041 389.798 662.306 395.142 659.379Z" fill="#2B2B2B"/>
<path d="M255.601 371.426C258.84 368.274 263.533 367.19 267.811 368.622C272.089 370.054 275.209 373.758 275.863 378.216C276.546 382.672 274.644 387.127 270.99 389.753C265.91 393.407 258.839 392.519 254.799 387.715C250.789 382.912 251.115 375.813 255.601 371.426Z" fill="#2B2B2B"/>
<path d="M280.752 811C286.356 822.093 288.308 819.265 295 830.548L290.399 839C280.389 837.447 284.683 839.426 276.904 832.921C274.645 823.137 276.876 820.304 280.752 811Z" fill="#444444"/>
<path d="M368.689 797L371 800.465C365.322 812.515 354.883 824.355 346.449 835L344 833.301C345.002 826.411 363.234 804.301 368.689 797Z" fill="#7F7F7F"/>
<path d="M876.988 660C877.508 675.798 860.837 686.352 849.642 695L849 688.68C858.421 679.194 867.751 669.633 876.988 660Z" fill="#7F7F7F"/>
</svg>
