<svg width="2209" height="2153" viewBox="0 0 2209 2153" fill="none" xmlns="http://www.w3.org/2000/svg">
<g clip-path="url(#clip0_351_135)">
<rect width="2209" height="2153" fill="white"/>
<g clip-path="url(#clip1_351_135)">
<path d="M-367 -130H2046V2283H-367V-130Z" fill="#FEFEFE"/>
<path d="M1327.34 119.121C1361.85 117.251 1397.11 123.102 1427.95 139.135C1446.28 148.672 1466.08 163.475 1474.99 182.75C1478.29 189.888 1479.48 197.733 1482.19 205.057C1487.09 218.31 1551.29 213.98 1565.65 215.286C1578.56 216.474 1591.23 219.53 1603.26 224.358C1644.37 241.14 1672.72 277.504 1677.17 321.873C1685.06 400.49 1627.34 474.957 1547.38 480.611C1526.78 482.067 1504.43 478.997 1485.25 487.162C1477.54 490.45 1467.92 495.516 1462.58 502.214C1448.19 523.21 1437.94 547.475 1427.55 570.647C1419.02 589.584 1410.29 608.429 1401.36 627.177C1392.45 645.933 1372.92 682.628 1367.07 700.707C1362.48 723.896 1362.56 747.699 1359.24 771.216C1355.4 798.355 1349.02 824.259 1341.58 850.594C1334.84 874.45 1324.77 895.755 1315.47 918.529C1324.6 925.239 1326.61 928.409 1331.94 937.917C1331.41 944.957 1331.28 948.13 1329.39 955.099C1394.57 1033.45 1433.1 1213.13 1447.37 1313.32C1452.75 1351.12 1454.05 1396.56 1454.17 1434.82C1454.21 1451.21 1452.89 1467.56 1450.21 1483.73C1447.22 1502.88 1439.91 1528.93 1440.02 1547.88C1440.03 1550.29 1450.47 1566.06 1452.54 1571.08C1465.15 1601.82 1455.83 1612.36 1445.54 1638.58C1449.18 1646.81 1459.28 1653.38 1467.26 1657.2C1481.12 1663.86 1499.91 1659.41 1513.96 1654.5C1561.28 1637.97 1595.44 1582.08 1612.98 1537.5C1620.21 1519.12 1625.85 1492.22 1632.6 1472.77C1641.96 1445.78 1653.04 1417.34 1664.74 1391.36C1691.57 1331.83 1744.55 1283.22 1806.05 1261.02C1846.5 1245.56 1891.74 1238.25 1934.82 1244.09C1943.99 1245.33 1963.38 1246.46 1966.86 1256.46C1964.94 1262.64 1945.91 1263.21 1939.71 1263.67C1870.48 1268.2 1794.18 1283.88 1743.76 1335.2C1690.98 1388.99 1669.76 1462.31 1652.16 1533.11C1637.26 1593.02 1598.31 1650.5 1544.88 1681.71C1513.6 1699.97 1490.21 1704.27 1454.84 1701.82C1459.4 1721.92 1463.98 1742.04 1466.42 1762.53C1469.46 1788.05 1472.88 1895.07 1465.45 1914.45C1464.03 1918.15 1462.45 1920.08 1458.92 1921.8L1456.35 1920.56C1450.71 1911.33 1453.24 1889.4 1452.91 1877.7C1451.46 1825.24 1448.06 1773.41 1438.48 1721.71C1433.77 1696.25 1429.65 1671.73 1421.55 1647.04C1399.19 1650.27 1380.47 1654.12 1357.51 1656.33C1315.37 1660.36 1275.48 1661.72 1233.3 1662.16C1224.88 1699 1225.45 1733.23 1223.98 1770.74C1222.92 1797.73 1221.73 1819.32 1222.35 1847.33C1221.61 1861.49 1224.08 1917.7 1221.61 1927.34C1216.76 1946.21 1112.08 1946.79 1094.94 1948.39C1082.79 1948.59 1070.03 1952.01 1058.04 1952.47C1002.24 1954.63 946.2 1950.19 890.482 1947.53C864.255 1946.26 836.496 1945.69 810.636 1942.62C767.19 1937.49 723.836 1928 680.629 1922.04C672.307 1920.91 668.984 1945.2 663.795 1948.17C658.958 1944.19 658.05 1926.99 656.658 1919.08C648.662 1915.05 633.127 1912.69 628.304 1904.84C616.995 1886.42 661.883 1712.91 669.448 1684.68C683.091 1637.58 693.953 1590.41 711.238 1544.38C713.94 1537.2 722.56 1512.75 719.847 1506.3C712.249 1501.56 635.024 1502.19 619.273 1501.45C562.773 1498.75 506.117 1487.65 450.789 1476.6C407.66 1467.99 362.047 1460.06 321.626 1442.16C308.236 1436.22 294.691 1427.66 284.859 1416.68C278.079 1409.1 273.01 1400.55 268.696 1391.38C255.03 1362.35 222.215 1259.28 224.372 1230.45C225.843 1210.82 239.773 1207.99 252.177 1196.73C252.481 1196.46 252.778 1196.16 253.077 1195.89C209.18 1188.07 163.403 1157.92 136.79 1122.55C94.1258 1065.84 84.1804 1001.37 92.2407 933.056C87.093 926.366 79.9789 918.946 74.4189 912.09L-3.92466 817.045C-16.1982 801.859 -26.4028 783.84 -38.5785 769.154C-59.5627 743.846 -80.6788 721.86 -98.1259 693.526C-108.574 676.558 -137.049 650.794 -117.292 629.475C-111.105 622.8 -95.3724 628.262 -89.8253 633.408C-47.2809 674.842 -14.253 725.622 24.2242 770.428C55.7841 807.18 81.5801 851.521 112.778 887.818L113.7 888.875C127.591 879.683 140.701 873.905 157.698 872.995C189.892 871.268 234.314 901.277 257.479 921.516C302.901 961.201 349.381 1023.24 367.834 1081.1C370.314 1088.86 376.23 1104.61 376.052 1112.39C375.522 1135.64 360.837 1155.48 345.605 1170.99C372.434 1169.01 397.966 1168.97 424.304 1167.04C423.011 1158.1 422.486 1152.32 422.062 1143.29C414.115 1137.16 387.549 1116.84 382.601 1110.72C382.041 1106.89 387.291 1095.22 390.059 1092.85C399.921 1091.51 424.615 1120.77 435.893 1128.05C478.798 1111.08 523.18 1137.6 566.303 1146.71C595.448 1152.87 612.821 1155.75 643.357 1155.23C669.333 1154.78 678.339 1149.13 701.957 1141.82C756.501 1124.96 803.545 1098.63 851.683 1068.44C863.866 1060.81 875.047 1050.06 886.983 1041.72C903.218 1030.38 921.01 1019.52 937.245 1008.39C940.768 1005.98 953.835 992.387 957.511 988.635C954.365 979.945 948.156 969.075 944.397 959.827C930.695 926.152 928.267 903.706 932.156 868.33C925.652 863.973 922.023 862.479 914.895 859.28C904.809 868.635 883.271 906.982 873.539 907.112L872.596 905.079C873.798 883.878 891.424 868.603 905.94 854.954C900.12 849.952 893.286 844.727 887.242 839.888C880.82 844.181 877.474 846.644 871.736 851.379C861.592 859.749 842.528 882.775 830.569 885.208L829.12 883.892C832.289 866.923 864.973 842.964 879.1 832.673C874.175 825.027 871.819 821.062 865.35 814.603C842.139 812.091 784.47 815.443 774.216 786.473C758.695 742.624 816.808 716.507 848.066 703.46C830.946 676.886 814.086 651.996 821.744 619.538C834.917 563.751 900.473 520.094 956.992 533.115C1001.05 543.262 1020.43 569.828 1043.03 604.638C1053.57 601.212 1060.28 597.676 1070.04 592.641C1076.95 580.753 1083.83 563.643 1091.03 550.488C1105.42 524.199 1122.56 497.099 1138.54 472.018C1156.01 444.634 1180.95 416.678 1200.45 391.601C1246.28 332.679 1193.41 323.51 1185.05 269.951C1180.62 241.623 1192.9 200.82 1211.48 178.572C1243.52 140.212 1279.19 125.045 1327.34 119.121Z" fill="#010101"/>
<path d="M1041.97 1306.63C1044.03 1306.35 1045.05 1306.61 1047.16 1306.78C1056.36 1317.08 1041.01 1367.18 1060.26 1384.64C1079.5 1402.1 1201.45 1397.01 1238.09 1424.07C1241.17 1426.34 1243.58 1429.65 1245.95 1432.6C1247.19 1458.76 1231.86 1523.16 1227.23 1554.39C1218.3 1614.4 1212.01 1674.79 1208.38 1735.36C1206.68 1759.46 1205.57 1783.6 1205.04 1807.75C1204.81 1827.42 1204.74 1847.09 1204.83 1866.76C1204.96 1884.67 1206.89 1898.57 1200.99 1915.86C1128.66 1933.89 1047.2 1933.27 973.099 1932.32C936.079 1931.84 896.679 1932.55 859.813 1928.45C839.488 1927.84 645.326 1907.75 645.834 1886.5C646.867 1843.49 662.658 1769.45 673.661 1725.61C691.948 1652.74 709.23 1575.66 745.109 1509.28C750.67 1498.89 782.957 1482.43 790.761 1470.64C818.622 1438.63 857.421 1387.09 877.368 1349.65L878.417 1347.66C928.656 1332.44 990.195 1316.11 1041.97 1306.63Z" fill="#FEFEFE"/>
<path d="M1349.15 133.264C1396.43 134.62 1458.88 155.936 1462.61 210.997C1464.12 233.354 1438.32 233.858 1438.98 244.194C1446.97 252.076 1463.64 240.808 1474.42 237.928C1517.28 226.476 1565.87 220.31 1606.59 242.14C1631.41 255.282 1649.8 277.956 1657.55 304.945C1677.91 373.97 1619.17 459.904 1547.07 465.408C1529.81 466.725 1500.64 464.244 1485.26 455.53C1494.17 443.428 1498.19 441.166 1511.49 433.961C1513.08 433.102 1513.51 429.331 1513.08 426.924C1505.87 421.185 1484.94 428.26 1480.11 434.553C1473.77 442.795 1470.12 455.834 1464.78 465.572C1443.79 503.631 1427.16 543.646 1408.45 582.799C1393.34 614.45 1383.04 647.347 1355.42 670.406C1346.08 674.303 1344.63 671.815 1336.52 666.676C1325.08 659.414 1313.84 651.731 1302.12 644.909C1292.36 639.198 1282.19 634.222 1271.7 630.019C1228.78 612.538 1180.87 600.807 1134.86 597.462C1120.94 596.451 1110.46 594.221 1096.22 595.696C1108.91 545.672 1142.07 488.845 1170.85 446.329C1188.47 420.319 1216.18 393.144 1235.94 368.522C1249.91 351.109 1299.81 354.138 1320.65 354.509C1330.23 354.68 1342.97 365.111 1350.85 355.401C1350.59 353.512 1350.92 353.034 1349.43 352.233C1320.18 336.481 1275.64 342.868 1245.9 345.004C1226.75 327.472 1200.79 283.974 1199.65 256.953C1197.17 198.761 1248.34 159.049 1298.46 141.69C1314.95 135.982 1331.43 134.292 1349.15 133.264Z" fill="#FEFEFE"/>
<path d="M1373.69 418.602C1378.1 418.579 1378.94 419.303 1379.96 423.071C1379.29 425.729 1340.12 494.79 1335.51 503.521C1324.49 524.451 1295.53 590.51 1282.26 604.376C1276.99 602.78 1277.09 603.768 1274.44 600.246C1275.75 580.259 1358.28 435.351 1373.69 418.602Z" fill="#010101"/>
<path d="M1274.42 390.076C1282.29 392.727 1280.53 399.423 1276.24 404.162C1241.45 442.613 1216.58 487.444 1193.25 533.423C1187.58 544.595 1182.6 559.322 1173.11 567.921C1159.79 560.061 1170.19 544.667 1176.5 534.214C1203.56 489.341 1235.61 425.461 1274.42 390.076Z" fill="#010101"/>
<path d="M1118.13 615.093C1134 612.255 1167.19 615.497 1182.95 618.24C1226.95 625.89 1324.81 661.282 1349.34 696.674C1353.51 747.228 1336.55 848.975 1311.52 891.542C1259.08 972.502 1165.36 1026.58 1069.25 1025.13C985.399 1023.87 940.898 954.304 944.079 874.978C957.146 878.856 976.186 879.656 986.742 885.206C1026.71 906.229 1012.62 957.823 1043.46 978.618C1048.6 978.723 1054.09 978.61 1059.27 978.598C1092.46 955.516 1109.42 915.898 1123.02 878.889C1128.99 862.074 1130.82 843.351 1137.6 826.546C1142.88 813.479 1175.29 826.269 1176.18 811.842C1170.58 802.792 1161.43 802.909 1153.5 797.581C1145.96 792.509 1136.62 775.788 1126.7 776.31C1116.92 784.569 1125.56 796.482 1130.63 804.667C1095.55 859.577 1015.79 878.346 956.12 859.837C950.218 858.01 935.454 854.792 932.403 849.457C935.502 837.943 972.745 825.627 974.489 811.684L972.84 810.559C957.334 810.352 932.226 835.412 918.9 845.317C912.361 840.336 906.364 834.91 900.19 829.486C902.299 828.239 914.329 818.845 915.802 816.887C922.412 808.079 964.085 789.717 963.909 780.631C946.188 777.889 905.009 810.876 892.485 822.632C886.452 816.809 885.239 815.49 880.632 808.436C891.165 791.008 905.363 786.427 912.114 764.511C917.84 745.915 918.123 732.423 909.651 714.252C909.828 714.63 903.03 709.114 903.053 709.135L903.301 707.151C914.694 699.623 927.784 694.261 939.59 687.583C970.012 670.366 1001.12 656.102 1032.2 640.159L1031.41 640.867C1020.78 650.682 1008 672.787 1030.65 677.839C1046.7 681.419 1068.69 659.038 1054.9 644.53C1050.32 639.701 1047.34 639.718 1041.04 639.597L1039.39 639.579L1040.03 637.616C1055.96 624.65 1097.54 616.912 1118.13 615.093Z" fill="#FEFEFE"/>
<path d="M1183.76 668.776C1210.85 665.468 1215.07 697.383 1188.78 712.191C1160.18 721.557 1161.1 681.955 1183.76 668.776Z" fill="#010101"/>
<path d="M1208.17 630.902C1223.35 632.33 1246.2 657.532 1231.47 670.037C1223.98 668.027 1223.71 667.95 1218.04 662.258C1211.5 655.696 1201.91 649.021 1201.76 638.906C1203.34 634.144 1203.92 634.043 1208.17 630.902Z" fill="#010101"/>
<path d="M1317.5 970.074C1328.98 971.741 1350.28 1022.58 1355.13 1033.8C1412.03 1165.48 1441.65 1313.36 1435.46 1456.8C1433.85 1493.83 1426.73 1569.66 1381.15 1575.25C1346.22 1579.55 1295.24 1587.54 1260.33 1585.14C1250.74 1579.2 1247.8 1576.73 1241.42 1567.68C1240.21 1533.75 1255.8 1470.33 1266.37 1435.78C1267.01 1433.7 1271.39 1428.77 1273.04 1426.94C1288.8 1423.66 1310.06 1425.08 1326.08 1427.27C1362.29 1433.04 1382.01 1398.23 1392.2 1369.31C1395.96 1358.64 1408.24 1325.01 1400.02 1315.99L1397.35 1316.41C1393.13 1319.39 1391.98 1322.77 1389.58 1327.4C1384.3 1341.39 1380.67 1354.71 1374.57 1368.9C1365.48 1390.03 1344.72 1413.61 1319.64 1412.47C1293.42 1410.52 1269.66 1406.2 1243.58 1401.32C1198.92 1392.97 1150.17 1389.96 1107.24 1375.04C1099.88 1371.73 1099.98 1368.03 1100.7 1361.32C1104.41 1326.81 1119.06 1293.61 1112.08 1258.39C1108.74 1241.55 1101.78 1226.22 1096.28 1209.95L1097.25 1208.14C1111.86 1199.99 1160.66 1199.85 1177.9 1201.3C1189.47 1202.26 1209.52 1230.93 1220.01 1220.9C1222.5 1211.86 1216.76 1207.33 1210.81 1202.18C1221.35 1201.69 1245.24 1206.31 1252.24 1198.51C1243.48 1189.81 1221.82 1192.65 1216.13 1183.87C1217.86 1169.27 1253.17 1174.87 1261.57 1167.91C1262.05 1164.45 1262.34 1166.09 1260.2 1162.91C1235.09 1148.38 1205.67 1171.85 1187.65 1187.07L1187.83 1186.1C1203.08 1107.77 1250.51 1015.64 1317.5 970.074Z" fill="#FEFEFE"/>
<path d="M1199.42 1009.06C1200.6 1009.12 1199.79 1009.01 1201.7 1010.01C1201.25 1013.75 1168.12 1074.45 1162.62 1086.86C1153.97 1106.59 1146.07 1126.65 1138.97 1146.98C1134.47 1160.06 1130.12 1175.4 1125.14 1188.02C1101.81 1190.15 1096.16 1190.51 1075.23 1200.13C1046.01 1196.89 1006.1 1200.47 985.812 1226.26C982.325 1230.71 983.738 1242.97 977.258 1249.83C968.504 1253.5 930.094 1262.15 919.973 1262.13L918.653 1260.64C917.864 1255.38 919.372 1250.57 920.468 1245.27C929.493 1187.37 962.236 1069.43 986.036 1015.84C996.923 1020.93 1010.75 1027.78 1021.64 1031.83C1069.37 1049.57 1155.21 1031.3 1199.42 1009.06Z" fill="#FEFEFE"/>
<path d="M837.556 1332.56C811.139 1341.66 754.928 1348.22 726.644 1348.4C670.644 1348.73 610.651 1340.6 554.951 1333.65C479.842 1324.49 405.637 1312.17 333.02 1290.5C314.585 1285 233.012 1257.63 240.302 1234.17C245.386 1232.65 268.229 1261.6 281.333 1263.07C290.251 1264.06 296.176 1256.64 302.518 1251.63C317.492 1239.8 403.382 1244.55 425.048 1247.16C429.99 1257.58 432.641 1264.32 440.923 1272.6C446.805 1273.12 452.588 1274.02 458.434 1274.84L458.255 1277.12C447.855 1276.11 430.64 1275.54 422.944 1285.02C404.014 1308.34 444.563 1312.92 458.92 1313.31C461.62 1313.38 466.514 1310.24 468.221 1307.53C466.446 1300.04 451.334 1301.79 443.24 1295.64C458.061 1289.18 529.892 1316.03 495.687 1268.63C488.458 1258.61 468.05 1261.37 456.576 1260.93C452.466 1257.25 449.005 1254.63 448.077 1249.4L450.348 1247.81C459.733 1246.28 486.54 1249.13 497.862 1250.09C590.136 1257.95 684.114 1274.37 772.235 1303.11C799.041 1311.84 812.601 1323.14 835.635 1331.84L837.556 1332.56Z" fill="#FEFEFE"/>
<path d="M336.177 1247.67C352.26 1246.59 363.547 1245.53 371.364 1261.69C369.54 1264.72 367.222 1264.7 363.046 1266.37C377.864 1274.85 414.019 1252.76 418.673 1284.5C419.278 1288.64 418.934 1287.83 417.263 1291.3C413.848 1293.88 411.662 1293.4 407.327 1293.46C399.652 1290.02 396.936 1288.04 390.654 1282.89C384.2 1285.45 377.526 1288.4 371.107 1291.11C359.402 1289.89 347.282 1287.56 336.405 1283.09C314.15 1273.97 312.765 1256.44 336.177 1247.67Z" fill="#010101"/>
<path d="M713.818 1301.87C725.168 1301.06 739.61 1302.33 750.34 1306.19C770.011 1313.26 786.254 1333.73 753.771 1337.85C733.353 1339.28 719.941 1341.35 700.427 1334.84C698.361 1316.12 692.774 1307.84 713.818 1301.87Z" fill="#010101"/>
<path d="M708.679 1314.44C718.672 1314.18 751.892 1315.76 756.47 1325.03L754.786 1328.5C743.344 1328.44 711.321 1329.2 707.081 1317.63L708.679 1314.44Z" fill="#FEFEFE"/>
<path d="M562.794 1306.27C580.851 1306.02 600.863 1309.28 619.185 1309.94C628.543 1310.27 651.486 1308.36 657.307 1313.94C659.202 1321.48 655.401 1324.16 649.065 1326.91C634.702 1330.62 621.315 1329.36 606.649 1329.54C593.679 1329.69 556.141 1331.93 555.115 1314.32C556.952 1309.82 558.621 1309.25 562.794 1306.27Z" fill="#010101"/>
<path d="M561.194 1265.39C577.407 1264.37 612.234 1273.22 606.74 1294.84C603.606 1298.49 605.504 1297.31 600.847 1298.49C593.297 1297.06 591.129 1292.83 586.736 1286.81C578.691 1280.07 569.384 1281.09 559.403 1281.17C557.627 1288.3 558.433 1292.42 550.846 1295.18C544.868 1294.53 541.908 1291.7 540.891 1285.69C540.154 1281.24 541.32 1276.68 544.104 1273.13C548.849 1267.05 554.07 1266.31 561.194 1265.39Z" fill="#010101"/>
<path d="M903.725 1049.12C908.603 1049.64 906.894 1048.55 909.604 1051.47C904.278 1064.02 901.427 1077.75 896.903 1090.07C885.085 1122.18 875.412 1151.16 866.681 1184.14C863.111 1197.57 852.708 1239.97 848.148 1249.9C841.479 1254.03 801.119 1235.74 790.934 1232.04C706.727 1201.44 616.981 1193.03 528.722 1180.31C511.609 1178.43 494.529 1176.25 477.49 1173.78C487.387 1162.91 490.474 1156.69 498.401 1144.32C500.78 1143.42 503.838 1144.02 506.177 1144.86C555.806 1162.49 607.489 1176.92 660.647 1168.81C681.544 1165.62 699.268 1158.19 718.908 1151.28C786.996 1127.34 844.625 1089.71 903.725 1049.12Z" fill="#FEFEFE"/>
<path d="M930.989 545.631C949.899 544.931 961.976 548.626 979.426 559.103C991.019 566.065 1042.05 610.277 1014.97 623.506C1005.9 627.058 1004.71 620.769 1000.96 614.649C984.704 588.073 947.861 574.595 918.052 582.602C909.628 584.866 901.015 589.003 896.714 596.999C896.443 602.85 900.803 608.544 906.081 606.587C938.105 594.716 960.621 595.762 985.376 621.208C990.419 626.79 996.522 631.697 994.342 639.665C986.365 650.105 896.526 697.783 885.663 697.467C842.457 696.208 818.598 622.841 850.045 589.567C877.933 560.069 894.841 549.993 930.989 545.631Z" fill="#FEFEFE"/>
<path d="M1429.53 1582.18C1433.98 1581.79 1432.1 1581.27 1435.6 1582.88C1438.82 1587.07 1440.02 1591.11 1440.1 1596.43C1440.22 1604.92 1437.02 1614.14 1430.77 1620.05C1411.68 1638.1 1273.91 1643.46 1241.91 1643.05C1237.7 1642.77 1236.89 1642.87 1232.84 1641.29C1229.93 1633.79 1232.13 1610.73 1235.22 1602.82C1236.3 1600.09 1251.81 1599.71 1255.64 1599.45C1311.89 1595.57 1375.1 1597.64 1429.53 1582.18Z" fill="#FEFEFE"/>
<path d="M959.62 1013.8C964.863 1014.38 963.379 1013.16 965.829 1016.01C965.888 1021.82 947.791 1074.9 945.069 1083.7C939.154 1102.84 933.617 1122.1 928.456 1141.45C917.723 1183.12 908.921 1225.26 902.088 1267.74C892.096 1269.35 882.906 1271.66 872.691 1272.26L863.536 1265.18C866.517 1246.71 870.169 1228.35 874.482 1210.13C887.642 1154.87 912.798 1068.02 948.404 1021.85C950.053 1019.71 956.957 1015.45 959.62 1013.8Z" fill="#FEFEFE"/>
<path d="M1302.36 938.605C1305.91 938.277 1306.03 938.453 1309.59 939.151C1313.27 942.221 1311.97 940.379 1313.65 944.914C1312.57 957.999 1275.84 988.468 1263.83 1002.04C1227.83 1042.66 1208.18 1078.97 1190.88 1129.98C1186.75 1142.17 1177.41 1176.46 1169.38 1186.43C1168.33 1187.74 1164.68 1186.72 1162.42 1186.43L1157.31 1186.22C1155.62 1186.16 1146.85 1186.02 1147.3 1183.25C1160.86 1100.29 1205.6 1019.74 1267.89 962.789C1280.57 951.207 1286.78 944.775 1302.36 938.605Z" fill="#FEFEFE"/>
<path d="M1043.3 1216.05C1060.79 1214.4 1077.8 1215.72 1088.02 1232.23C1097.59 1247.67 1101.5 1270.31 1082.47 1280.32C1073.84 1284.88 1065.41 1286.09 1055.81 1286.72C1048.43 1287.34 1044.28 1287.84 1037.03 1285.75C1038.53 1284.65 1040 1283.53 1041.46 1282.38C1053.9 1272.57 1052.86 1256.29 1044.75 1243.74C1035.86 1230.03 1002.27 1246.66 996.663 1239.83C1001.08 1221.26 1027.67 1217.37 1043.3 1216.05Z" fill="#FEFEFE"/>
<path d="M1072.81 908.227C1082.54 907.414 1084.72 908.129 1093.58 911.426C1084.57 930.724 1074.97 946.557 1057.75 959.674C1035.23 968.978 1036.24 941.751 1043.44 929.163C1051.04 915.872 1058.98 912.101 1072.81 908.227Z" fill="#FEFEFE"/>
<path d="M413.19 1185.98C434.048 1185.2 449.711 1211.23 427.141 1223.02C407.346 1222.66 390.304 1198.16 413.19 1185.98Z" fill="#FEFEFE"/>
<path d="M1091.43 1295.12L1092.74 1296.36C1095.93 1308.69 1095.85 1320.3 1092.3 1332.48C1089.62 1341.67 1085.62 1357.98 1077.31 1362.95C1063.85 1342.74 1078.11 1312.2 1091.43 1295.12Z" fill="#FEFEFE"/>
<path d="M468.442 1152.55C470.179 1153.23 469.385 1152.63 470.473 1154.72C467.434 1174.71 454.894 1176.96 438.466 1168.92C440.736 1165.31 442.978 1160.25 447.33 1159.91C448.948 1162.29 450.254 1164.1 452.024 1166.36L454.669 1166.66C459.412 1164.28 463.213 1157.02 468.442 1152.55Z" fill="#FEFEFE"/>
<path d="M458.434 1274.84C464.403 1275.03 480.56 1274.64 484.159 1278.29L482.451 1278.87L482.731 1276.79L481.245 1279.01C473.059 1278.77 466.371 1277.99 458.255 1277.12L458.434 1274.84Z" fill="#D4D5DA"/>
<rect x="-152.563" y="543.943" width="532.557" height="624.458" fill="#FEFEFE"/>
<rect x="-279.812" y="572.221" width="532.557" height="624.458" fill="#FEFEFE"/>
<rect x="219.755" y="1057.65" width="157.882" height="113.109" fill="#FEFEFE"/>
<rect x="97.2197" y="1083.57" width="157.882" height="113.109" fill="#FEFEFE"/>
<path d="M280.823 1177.89L250.472 1198.35L257.288 1149.85L280.823 1177.89Z" fill="#FEFEFE"/>
<path d="M302.031 1163.75L271.68 1184.21L278.496 1135.71L302.031 1163.75Z" fill="#FEFEFE"/>
<path d="M425.944 1167.22L243.32 1186.08L296.086 1123.85L425.944 1167.22Z" fill="#FEFEFE"/>
</g>
</g>
<defs>
<clipPath id="clip0_351_135">
<rect width="2209" height="2153" fill="white"/>
</clipPath>
<clipPath id="clip1_351_135">
<rect width="2413" height="2413" fill="white" transform="translate(-367 -130)"/>
</clipPath>
</defs>
</svg>
