<svg width="1024" height="1024" viewBox="0 0 1024 1024" fill="none" xmlns="http://www.w3.org/2000/svg">
<rect width="1024" height="1024" fill="white"/>
<path d="M836.642 129C882.857 155.148 864.177 253.714 847.145 294.579C867.667 274.825 921.218 214.933 952.954 224.537C976.223 254.37 912.525 322.7 893.586 343.82C907.063 368.066 915.465 400.918 909.648 427.796C849.731 704.6 367.773 924.241 122.188 891.818C21.0328 876.498 80.2715 827.121 131.302 794.531C271.271 705.155 400.446 601.445 523.61 490.155C581.524 437.817 638.5 382.272 700.842 334.719C686.686 307.851 628.32 231.19 646.968 203.181L654.756 202.158C690.177 213.832 747.25 275.358 768.225 305.087C780.796 238.197 788.65 179.446 836.642 129Z" fill="#040402"/>
<path d="M626.489 459C641.648 466.334 660.742 479.674 663 497.379C654.227 521.23 629.811 543.525 611.427 560.873C560.821 608.993 505.152 651.499 445.451 687.653C432.421 695.646 418.81 703.74 405.49 711.209C351.272 741.569 302.924 780.352 252.706 817L249.609 816.007L255.254 807.211C261.64 799.169 266.639 794.327 269.413 784.434C261.833 783.907 238.159 796.746 226.677 800.832L225 797.506C339.338 715.644 459.772 617.08 564.208 522.359C584.108 504.321 611.105 480.153 626.489 459Z" fill="#FEFEFE"/>
<path d="M372.224 799L377.016 800.203L377.147 805.857L374.751 800.703L378 803.737C366.71 823.085 352.139 827.739 330.84 834L328.345 833.491L327 829.604C337.765 818.144 358.046 807.496 372.224 799Z" fill="#FEFEFE"/>
<path d="M586.791 715L589 717.346C585.004 724.062 556.542 738.12 546.567 744L544 741.855C549.881 733.664 576.394 720.739 586.791 715Z" fill="#4A4641"/>
</svg>
