<svg width="500" height="500" viewBox="0 0 500 500" fill="none" xmlns="http://www.w3.org/2000/svg">
<g clip-path="url(#clip0_86_726)">
<path d="M156.631 96.1754C156.108 95.1348 155.578 94.1061 155.182 93.0086C153.686 88.8589 154.01 83.912 156.148 80.0412C159.473 74.0427 165.688 71.9568 171.886 70.2912C176.787 69.8954 182.075 69.8014 186.92 70.6665C194.789 72.0706 199.927 75.9492 204.44 82.3492C255.914 83.3297 300.398 100.997 347.899 118.643C373.264 128.067 398.803 137.361 425.91 140.261C434.302 141.161 443.002 141.477 451.227 139.194C454.331 138.331 458.614 135.954 461.709 136.011C463.894 136.052 464.258 136.593 465.715 138.028C470.473 152.516 414.193 286.22 405.651 308.407C400.442 321.937 396.784 336.271 391.322 349.606C389.928 353.015 387.735 358.073 384.141 359.472C354.604 370.991 300.533 340.218 272.698 327.721C230.296 309.442 173.842 299.571 127.64 301.607C123.278 314.295 118.995 327.013 114.799 339.76C107.769 361.322 93.0359 414.619 73.45 425.938C71.7241 426.936 70.1962 427.281 68.2407 426.757C66.7603 425.359 65.8894 424.217 65.2482 422.3C55.5977 393.185 104.689 229.857 116.968 194.462C128.471 161.036 141.716 128.23 156.631 96.1754ZM172.702 80.4584C170.097 82.1113 167.778 83.4529 165.917 85.9529C165.648 87.2013 165.118 88.0111 165.783 89.1995C168.498 94.0484 182.218 95.5765 187.379 96.7688C189.897 93.9291 193.546 90.9638 193.095 86.8544C192.945 85.4638 192.256 84.4208 191.187 83.4964C187.221 80.0689 177.753 80.2277 172.702 80.4584ZM207.409 91.4639C203.482 94.8725 199.468 98.2218 195.66 101.758C196.135 104.679 196.499 107.462 196.001 110.407C193.713 124.024 188.029 138.085 183.674 151.257C172.203 185.935 158.942 219.906 146.109 254.092C141.328 266.826 135.818 279.415 131.638 292.347C164.785 291.47 211.494 297.327 243.248 307.042C258.606 311.741 273.474 317.93 288.072 324.597C315.986 337.35 346.83 355.803 378.742 350.87C384.909 339.69 387.854 323.812 392.715 311.661C408.129 273.125 424.493 234.966 438.402 195.848C443.905 180.361 449.779 164.632 453.587 148.631C378.536 156.969 289.37 89.4357 207.409 91.4639ZM165.917 102.522C159.251 114.205 154.287 127.122 149.07 139.499C124.441 197.97 106.914 259.785 91.785 321.298C84.6283 350.425 76.1891 380.855 75.1837 410.973C77.717 405.967 80.3375 400.986 82.7442 395.92C94.5876 369.674 101.253 342.068 111.197 315.155C132.596 257.197 155.887 200.105 174.435 141.114C177.895 130.103 183.5 118.036 184.593 106.523C181.244 102.884 170.778 103.188 165.917 102.522Z" fill="#2B2B2B"/>
<path d="M216 165.433C218.712 151.959 229.029 121.081 236.745 110C253.723 110.73 406.835 163.043 419.444 171.292C419.801 172.448 419.857 172.453 419.975 173.856C420.618 181.529 408.469 216.57 403.211 222L401.514 221.82C356.94 208.617 312.302 195.792 267.918 181.929C250.805 176.581 232.447 172.457 216 165.433ZM325.529 146.416C312.817 151.478 306.941 157.638 301.644 170.076C300.201 173.464 299.257 176.072 300.407 179.704C305.887 186.47 341.032 194.049 350.858 195.778C359.113 193.808 366.702 185.62 370.984 178.467C373.268 174.661 375.845 169.626 374.283 165.092C373.07 161.558 367.233 159.722 363.974 158.516C355.314 155.309 333.721 147.384 325.529 146.416Z" fill="#2B2B2B"/>
<path d="M384 253.847C382.934 253.969 381.971 254.108 380.905 253.869C373.578 252.229 365.786 248.918 358.538 246.69C339.258 240.766 202.545 199.769 196.734 195.343C195.74 194.59 196.079 193.156 196 192C202.821 192.283 375.734 245.057 379.555 247.42C382.255 249.092 383.353 250.805 384 253.847Z" fill="#2B2B2B"/>
<path d="M382.885 272C362.372 267.814 334.91 257.949 314.231 251.699C281.056 241.674 247.382 232.608 214.54 221.589C209.696 219.965 196.354 216.563 193.457 212.932C192.634 211.902 193.156 210.236 193.243 209C199.48 209.723 206.602 212.674 212.617 214.589C224.954 218.564 237.316 222.475 249.701 226.322C278.081 234.906 306.721 242.621 335.108 251.243C350.825 256.017 367.342 260.365 382.101 267.68C383.185 269.531 383.059 269.833 382.885 272Z" fill="#2B2B2B"/>
<path d="M376 296C363.98 295.173 193.452 234.998 187.813 230.245C186.842 229.432 187.118 228.189 187 227C195.19 228.179 203.932 231.969 211.774 234.6L266.258 253.465C296.663 263.977 327.597 273.063 357.915 283.791C362.614 285.455 368.861 287.222 372.849 290.102C375.084 291.714 375.526 293.407 376 296Z" fill="#2B2B2B"/>
</g>
<defs>
<clipPath id="clip0_86_726">
<rect width="500" height="500" fill="white"/>
</clipPath>
</defs>
</svg>
