<svg width="1062" height="1062" viewBox="0 0 1062 1062" fill="none" xmlns="http://www.w3.org/2000/svg">
<path d="M738.591 106C729.103 106 712.715 110.637 690.928 119.157C669.144 127.677 641.957 140.081 610.887 155.614C579.818 171.148 544.861 189.81 507.521 210.85C470.179 231.889 430.458 255.309 389.859 280.348C368.48 293.535 350.986 302.972 350.986 301.322C350.986 299.671 364.232 284.899 380.426 268.491C396.62 252.084 415.805 230.789 423.063 221.17C427.343 215.493 430.544 209.749 432.762 204.078C434.978 198.408 436.212 192.805 436.551 187.408C436.893 182.011 436.343 176.823 434.997 171.968C433.651 167.113 431.505 162.593 428.659 158.548C425.813 154.503 422.265 150.931 418.107 147.965C413.951 144.998 409.189 142.637 403.911 141.017C398.633 139.398 392.841 138.52 386.631 138.514C380.42 138.508 373.796 139.377 366.84 141.254C357.691 143.723 341.939 150.548 321.756 160.533C301.571 170.518 276.952 183.662 250.062 198.738C196.278 228.89 133.405 266.792 78.7519 302.753C65.9324 311.188 55.585 318.541 47.4122 325.211C39.2393 331.882 33.2391 337.873 29.1309 343.585C25.0246 349.297 22.8063 354.73 22.1845 360.29C21.5589 365.849 22.5447 371.537 24.8311 377.75C27.3999 384.729 32.115 390.685 38.2328 395.096C44.3506 399.507 51.8749 402.367 60.0592 403.141C70.2227 404.103 78.2306 403.617 87.5011 400.559C96.7716 397.502 107.309 391.876 122.496 382.554C140.629 371.425 156.564 362.319 157.912 362.319C159.258 362.319 145.424 380.025 127.169 401.666C108.913 423.307 88.1987 451.512 81.1425 464.34C75.2977 474.965 72.2303 481.195 71.3165 486.859C70.4065 492.524 71.6389 497.621 74.422 505.953C76.2609 511.445 78.7748 516.311 81.9067 520.515C85.0386 524.72 88.7903 528.263 93.0957 531.098C97.3992 533.934 102.26 536.064 107.614 537.448C112.968 538.834 118.814 539.467 125.091 539.319C131.332 539.166 136.591 538.762 142.726 537.097C148.861 535.433 155.874 532.523 165.632 527.375C185.147 517.078 215.636 497.843 272.006 461.811C326.463 427.001 377.222 394.929 384.807 390.538C392.394 386.147 360.597 418.978 314.152 463.497C267.708 508.015 216.931 558.432 201.313 575.54C188.082 590.031 180.984 598.21 177.192 605.498C173.401 612.785 172.921 619.188 172.921 630.125C172.921 637.556 173.774 643.902 175.585 649.245C177.386 654.589 180.14 658.93 183.932 662.349C187.723 665.768 192.552 668.263 198.511 669.92C204.467 671.577 211.554 672.393 219.858 672.449C228.806 672.517 234.129 672.871 236.905 673.952C239.678 675.031 239.904 676.834 238.649 679.766C235.521 687.07 233.758 693.998 233.318 700.45C232.882 706.902 233.754 712.875 235.925 718.27C238.09 723.666 241.533 728.477 246.221 732.612C250.909 736.748 256.843 740.209 263.973 742.88C270.427 745.297 276.446 746.662 282.88 746.665C289.316 746.669 296.164 745.309 304.267 742.265C312.371 739.221 321.739 734.497 333.197 727.773C344.657 721.049 358.209 712.321 374.708 701.284C405.687 680.56 432.483 663.606 434.254 663.606C436.017 663.606 423.006 677.356 405.324 694.161C386.064 712.463 373.18 727.121 365.665 739.85C361.907 746.214 359.498 752.094 358.298 757.705C357.103 763.316 357.122 768.66 358.298 773.945C359.378 779.15 361.697 784.13 364.929 788.673C368.164 793.217 372.319 797.32 377.108 800.776C381.895 804.232 387.308 807.038 393.058 808.979C398.808 810.921 404.893 812.001 411.015 812.001C419.593 812.001 424.431 812.334 427.463 814.188C430.496 816.041 431.723 819.419 433.078 825.491C433.893 829.154 436.053 832.95 439.122 836.584C442.191 840.218 446.165 843.686 450.615 846.702C455.062 849.717 459.987 852.282 464.947 854.088C469.906 855.894 474.906 856.944 479.505 856.951C483.272 856.957 486.239 857.974 488.665 860.254C491.092 862.533 492.977 866.077 494.592 871.127C496.298 876.481 498.905 881.234 502.293 885.337C505.678 889.441 509.851 892.892 514.725 895.64C519.6 898.387 525.175 900.431 531.35 901.717C537.524 903.004 544.302 903.534 551.591 903.254C562.219 902.846 568.354 902.917 572.144 904.185C575.934 905.453 577.377 907.918 578.601 912.292C579.682 916.184 582.139 919.832 585.585 923.06C589.034 926.287 593.483 929.097 598.547 931.333C603.611 933.569 609.292 935.229 615.232 936.146C621.17 937.062 627.363 937.235 633.434 936.506C641.84 935.495 647.605 935.373 652.764 936.625C657.92 937.873 662.466 940.495 668.408 944.978C674.996 949.947 680.909 953.443 688.022 955.034C695.135 956.625 703.446 956.31 714.846 953.647C726.245 950.982 740.731 945.971 760.177 938.172C779.622 930.372 804.029 919.787 835.28 905.974C864.904 892.879 888.639 882.106 907.58 872.968C926.521 863.829 940.666 856.317 951.108 849.764C961.551 843.21 968.288 837.608 972.417 832.268C976.546 826.928 978.069 821.851 978.069 816.354C978.069 809.234 983.713 795.955 990.61 786.843C997.507 777.732 1003.15 765.402 1003.15 759.441C1003.15 752.547 1000.05 743.669 995.723 736.096C991.398 728.523 985.842 722.254 980.939 720.568C977.855 719.506 976.222 718.227 975.925 715.755C975.621 713.283 976.664 709.619 978.922 703.81C980.878 698.779 981.55 693.584 981.077 688.475C980.603 683.367 978.99 678.341 976.374 673.668C973.759 668.995 970.146 664.674 965.676 660.95C961.207 657.226 955.882 654.104 949.844 651.842C939.894 648.115 928.63 646.138 924.813 647.451C921.071 648.739 918.86 649.086 918.024 648.646C917.19 648.205 917.721 646.98 919.484 645.141C922.999 641.463 931.388 635.314 943.389 628.015C956.722 619.905 966.648 611.626 973.24 603.071C976.535 598.794 978.998 594.445 980.636 590.02C982.266 585.595 983.085 581.092 983.085 576.495C983.085 573.346 981.701 569.348 979.432 565.121C977.172 560.894 974.046 556.439 970.584 552.377C967.124 548.315 963.331 544.639 959.731 541.987C956.128 539.334 952.714 537.701 950.032 537.701C946.818 537.701 944.759 537.294 943.898 536.417C943.045 535.54 943.368 534.191 944.96 532.316C948.143 528.565 956.335 522.696 969.951 514.223C980.985 507.358 989.87 500.131 996.54 492.776C1003.21 485.42 1007.67 477.934 1009.84 470.546C1012.02 463.158 1011.9 455.87 1009.45 448.905C1006.99 441.941 1002.18 435.299 994.957 429.214C988.547 423.816 981.455 420.413 972.717 419.263C963.981 418.113 953.596 419.212 940.613 422.855C927.631 426.491 912.049 432.657 892.903 441.616C873.757 450.574 851.053 462.324 823.825 477.142C812.099 483.523 802.507 487.768 802.507 486.575C802.507 485.382 827.899 465.624 858.936 442.661C897.305 414.273 924.042 393.559 942.092 377.993C951.118 370.209 957.971 363.716 963.018 358.187C968.066 352.659 971.314 348.095 973.119 344.187C975.231 339.618 976.433 334.68 976.802 329.669C977.182 324.659 976.613 319.574 975.494 314.712C974.281 309.851 972.292 305.212 969.627 301.09C966.961 296.968 963.615 293.362 959.653 290.568C954.496 286.932 948.9 284.364 942.645 282.883C936.393 281.401 929.481 281.008 921.681 281.724C913.88 282.44 905.193 284.26 895.396 287.213C885.596 290.167 874.686 294.259 862.439 299.492L820.067 317.593L843.492 298.368C857.229 287.091 865.793 278.762 870.923 270.631C873.488 266.566 875.198 262.553 876.261 258.239C877.323 253.925 877.759 249.315 877.759 244.063C877.759 238.982 876.754 234.06 874.919 229.484C873.08 224.908 870.39 220.681 867.033 216.968C863.673 213.256 859.641 210.062 855.089 207.571C850.539 205.08 845.473 203.292 840.051 202.38C834.997 201.53 828.638 201.868 821.065 203.364C813.493 204.86 804.706 207.507 794.819 211.269C775.046 218.792 750.846 230.77 723.047 246.892C693.897 263.797 679.404 271.817 679.97 268.743C680.539 265.67 696.163 251.5 727.26 224.03C756.431 198.262 771.483 184.817 779.243 175.478C783.122 170.809 785.181 167.167 786.267 163.525C787.348 159.883 787.48 156.241 787.48 151.572C787.48 144.99 786.191 138.853 783.816 133.347C781.444 127.841 777.994 122.967 773.656 118.917C769.32 114.867 764.101 111.637 758.207 109.423C752.311 107.208 745.738 106.006 738.692 106.006L738.591 106Z" fill="#010101"/>
</svg>
