<svg width="1024" height="1024" viewBox="0 0 1024 1024" fill="none" xmlns="http://www.w3.org/2000/svg">
<path d="M294.88 638.225C294.97 638.245 295.055 638.275 295.145 638.29C319.14 642.77 344.375 645.5 368.625 649.06C424.23 657.365 479.88 665.36 535.572 673.055L670.367 692.49C691.898 695.535 713.415 699.685 735.096 701.46C744.322 702.215 758.873 704.245 766.95 698.94C775.696 693.195 788.141 672.005 794.183 662.43C804.443 646.165 813.248 628.795 822.629 612.01C835.058 590.08 847.696 568.27 860.539 546.58C868.391 533.31 876.737 520.355 884.845 507.245C908.276 469.363 932.053 431.532 954.115 392.835C962.099 378.831 975.351 359.078 978.298 343.792C979.41 338.028 979.559 331.307 975.981 326.337C972.939 322.113 968.613 320.901 963.753 320.12C947.336 319.523 930.108 322.831 913.767 324.714L809.997 337.388L529.78 370.203C487.67 374.959 445.495 380.859 403.27 384.358C399.51 387.9 396.195 392.21 392.8 396.112C386.06 403.836 379.38 411.611 372.76 419.439L316.905 485.19L257.02 555.915L234.96 581.86C230.875 586.64 226.355 591.36 222.635 596.42C219.77 600.315 217.6 605.05 216.71 609.815C215.94 613.93 216.14 619.165 218.675 622.695C220.095 624.67 222.06 626.07 224.33 626.895C231.76 629.585 240.945 630.135 248.76 631.35C264.11 633.795 279.485 636.085 294.88 638.225ZM965.085 326.53C958.887 337.448 951.671 347.92 945.019 358.582C938.204 369.506 931.799 380.767 925.16 391.808L840.423 534.55C821.222 567.035 803.08 600.14 783.878 632.64C777.216 643.92 771.17 655.685 763.831 666.535C759.781 672.525 755.051 679.595 747.737 681.68C736.933 684.765 720.986 682.355 709.789 680.95C685.097 677.85 660.753 673.03 636.284 668.59L540.255 651.87C458.39 638.405 376.12 627.54 294.21 614.305C271.275 610.885 248.275 607.605 225.385 603.9C232.17 593.695 240.97 584.635 248.915 575.315L288.18 528.805C315.15 496.288 342.46 464.051 370.095 432.1C381.955 418.342 393.495 403.8 406.005 390.65L788.773 346.231L904.309 332.279C924.29 329.942 944.937 325.883 965.085 326.53ZM970.852 330.719C973.875 338.63 971.454 346.1 968.165 353.456C964.359 361.97 959.563 369.994 955.031 378.132C946.262 394.111 937.051 409.842 927.406 425.309L863.29 529.56C846.26 557.59 829.73 585.915 813.705 614.53C803.623 632.39 794.188 650.725 783.057 667.965C778.481 675.05 768.503 691.965 760.575 694.82C751.757 697.995 734.899 695.385 725.456 694.27C710.568 692.505 695.758 689.68 680.909 687.565L539.447 666.935C449.125 654.57 358.89 641.555 268.755 627.895C260.42 626.56 231.485 623.395 225.62 620.355C224.245 619.64 223.39 618.61 222.555 617.33C222.345 614.85 221.695 611.9 223.365 609.86C232.155 609.995 244.775 613.04 253.825 614.51C273.19 617.66 292.58 620.645 311.995 623.45C399.175 636.11 486.225 649.625 573.138 663.985L652.927 678.32C679.538 683.26 706.886 689.08 734.025 689.535C744.06 689.7 752.438 689.315 760.025 681.86C771.424 670.665 779.955 653.085 788.024 639.135L811.777 597.97L843.804 541.905C856.298 520.425 965.268 334.578 970.852 330.719Z" fill="#010101" stroke="black" stroke-width="2"/>
<path d="M935.248 351.643C936.169 351.674 937.277 351.601 938.127 351.229C939.319 350.707 939.466 350.271 939.788 349.142C938.765 346.08 936.838 345.316 934.176 343.979C933.622 343.953 933.05 343.901 932.498 344C931.188 344.233 930.47 344.768 929.724 345.815C929.684 346.929 929.57 347.12 930.102 348.175C931.251 350.453 932.971 350.868 935.248 351.643Z" fill="#010101"/>
<path d="M724.193 634.08C730.404 627.92 736.033 616.9 740.813 609.255L765.371 570.21L820.744 482.369C841.492 449.887 862.015 417.261 882.311 384.494C884.029 381.685 891.645 370.335 891.578 367.562C891.537 365.858 890.869 365.316 889.868 364.102C876.324 364.254 862.464 366.093 848.929 367.143C822.14 369.087 795.364 371.2 768.603 373.48C656.885 382.642 545.553 395.589 433.89 405.232C429.465 409.499 425.735 414.589 421.77 419.278L401.16 443.219C377.45 470.121 353.945 497.201 330.645 524.455C321.865 534.615 312.84 544.585 303.98 554.675C301.09 557.96 296.54 562.005 294.505 565.79C293.745 567.205 293.9 568.175 294.375 569.64C299.755 572.695 340.83 576.78 350.21 578.165L512.975 600.12L610.186 614.6C635.152 618.61 660.091 622.795 685 627.15C698.007 629.475 711.098 632.41 724.193 634.08ZM883.592 370.76C876.09 383.469 867.891 395.786 860.003 408.26L820.195 471.313L721.934 627.22C649.895 614.07 577.566 602.555 505.005 592.685C455.88 585.88 406.47 580.435 357.475 572.83L322.25 568.07C315.815 567.205 309.2 566.59 302.845 565.305C318.125 548.97 332.485 531.56 347.135 514.645C363.18 496.119 379.59 477.885 395.495 459.242L417.98 433.199C424.025 426.093 429.885 418.673 436.33 411.929C458.74 408.918 481.385 407.185 503.895 405.035L599.646 395.714C694.156 385.881 788.817 377.562 883.592 370.76Z" fill="#010101" stroke="black" stroke-width="2"/>
<path d="M408.275 414.588C409.915 414.574 411.315 414.451 412.655 413.419C413.76 412.57 414.435 411.438 414.48 410.017C414.54 407.843 413.4 406.688 411.97 405.286C410.775 405.446 409.53 405.874 408.545 406.586C407.32 407.469 406.295 408.789 406.17 410.345C406.01 412.302 406.975 413.366 408.275 414.588Z" fill="#010101" stroke="black" stroke-width="2"/>
<path d="M421.68 569.275C422.34 569.345 423 569.405 423.66 569.455C487.815 574.385 581.99 553.045 643.284 531.845C666.85 523.705 689.874 514.07 712.213 503C730.007 494.195 748.609 484.319 763.705 471.299C772.557 463.664 784.35 452.566 784.98 439.971C785.244 434.685 782.879 429.416 779.35 425.562C768.041 413.212 744.531 412.081 728.965 411.369C638.384 407.057 517.47 441.186 436.78 481.781C419.06 490.695 400.345 500.72 384.75 513.045C376.825 519.31 366.105 528.84 365.105 539.645C364.65 544.535 366.525 549.105 369.64 552.815C380.06 565.22 406.22 568.025 421.68 569.275ZM678.525 419.555C674.968 422.719 671.236 425.682 667.348 428.429C647.168 429.926 627.234 432.724 607.646 437.892L609.112 430.501C631.368 424.622 655.528 420.896 678.525 419.555ZM752.703 420.233C761.068 422.3 771.569 424.934 776.398 432.854C778.256 435.901 778.589 439.316 777.729 442.747C773.447 459.841 744.357 478.233 729.414 486.736C696.291 505.585 660.557 519.81 624.36 531.54C566.387 550.325 452.92 574.905 394.47 559.045C386.575 556.9 377.125 553.7 372.84 546.155C371.875 544.46 371.34 542.66 370.895 540.78C371.86 536.975 373.265 533.855 375.3 530.49C381.93 521.425 391.725 515.465 401.165 509.73C396.23 515.945 391.175 522.415 392.305 530.935C393.015 536.29 396.525 540.64 400.77 543.765C423.115 560.215 480.24 554.77 506.94 550.46C574.728 539.515 659.147 515.015 718.607 479.9C731.992 471.996 746.48 462.855 755.638 450.035C759.089 445.204 761.981 438.912 760.806 432.858C759.878 428.079 756.774 424.764 753.22 421.719C752.612 421.198 751.764 421.08 752.126 420.211L752.703 420.233ZM659.963 435.676C653.34 440.319 646.773 445.059 640.885 450.629C626.412 450.832 612.378 452.599 598.099 454.846C600.328 451.554 602.607 448.287 604.75 444.94C622.621 440.672 641.533 436.241 659.963 435.676ZM645.204 457.827C648.476 458.26 653.402 458.489 655.548 461.321C656.107 462.057 655.97 462.628 656.025 463.511C652.729 471.731 632.092 480.738 623.911 484.241C589.257 499.08 534.21 514.625 496.59 511.51C493.39 510.96 488.77 510.685 486.84 507.71C486.365 506.985 486.26 506.18 486.385 505.315C487.145 500.04 502.03 492.461 506.785 489.893C539.575 472.19 607.85 454.423 645.204 457.827ZM489.715 516.35C498.515 517.6 507.12 517.92 515.995 517.62C514.14 519.015 512.295 520.375 510.35 521.635L504.915 522.055C496.275 522.435 487.625 522.445 478.985 522.09C481.305 520.61 487.26 515.955 489.715 516.35ZM474.09 526.3C484.345 528.365 494.82 527.675 505.22 527.335C502.82 529.675 500.49 532.09 497.73 534.01L491.885 534.56C481.64 535.205 471.62 535.995 461.445 534.09C464.05 532.405 471.65 526.32 474.09 526.3ZM455.925 538.28C467.81 541.09 480.59 540.46 492.67 539.035C490.835 541.715 488.93 544.05 486.62 546.335L477.685 547.065C465.215 547.955 452.51 548.775 440.025 547.845C443.155 545.875 453.235 538.725 455.925 538.28Z" fill="#010101" stroke="black" stroke-width="2"/>
<path d="M557.673 487.793C559.015 487.991 560.453 488.133 561.806 488.046C565.497 487.807 572.584 485.618 574.917 482.659C575.632 481.751 575.978 480.747 575.662 479.599C575.281 478.212 573.988 477.449 572.873 476.705C572.26 476.662 571.646 476.627 571.032 476.6C566.025 476.377 559.864 477.822 556.179 481.477C555.069 482.577 554.751 483.482 554.806 485.01C555.693 486.471 556.174 486.973 557.673 487.793Z" fill="#010101" stroke="black" stroke-width="2"/>
<path d="M682.123 599.6C683.321 599.63 684.389 599.545 685.57 599.395C693.087 593.53 699.723 585.275 706.491 578.445C715.185 569.675 724.393 561.42 732.82 552.38C733.936 551.18 735.037 550.12 735.609 548.545C735.613 546.94 735.027 546.18 734.157 544.92C733.035 544.865 732.048 544.96 730.938 545.125C724.806 550.09 681.854 593.21 680.942 595.935C680.918 597.485 681.385 598.3 682.123 599.6Z" fill="#010101" stroke="black" stroke-width="2"/>
<path d="M256.825 597.25C258.8 597.17 260.535 596.68 261.945 595.195C262.845 594.245 263.26 593.16 263.13 591.845C262.98 590.305 261.615 589.37 260.525 588.455C258.695 588.425 257.425 588.55 255.955 589.785C254.955 590.63 254.275 591.75 254.28 593.1C254.285 595.025 255.48 596.115 256.825 597.25Z" fill="#010101" stroke="black" stroke-width="2"/>
<path d="M741.706 667.59C743.737 668.685 746.268 667.945 747.396 665.935C748.523 663.925 747.832 661.38 745.841 660.215C744.521 659.445 742.888 659.445 741.569 660.22C740.249 660.99 739.45 662.415 739.478 663.945C739.507 665.475 740.359 666.87 741.706 667.59Z" fill="#010101"/>
<path d="M448.873 792.214C447.466 791.332 446.181 790.401 444.951 789.284C440.952 785.652 437.107 780.529 436.983 774.95C436.952 773.609 437.264 772.282 438.261 771.319C438.939 770.666 439.972 770.429 440.898 770.465C441.761 770.501 442.49 770.75 443.156 771.311C445.391 773.194 447.117 778.766 450.05 781.653C453.001 784.529 457.005 786.085 461.131 785.958C465.012 785.854 468.752 784.413 471.391 781.549C478.005 774.372 475.771 764.178 471.027 756.687C469.074 753.599 466.418 750.909 464.153 748.044C459.928 742.701 455.765 735.134 455.472 728.211C455.144 720.445 458.636 710.117 464.007 704.432C468.604 699.568 476.782 696.606 483.401 696.367C484.521 696.613 485.572 696.887 486.604 697.402C490.318 699.257 496.172 704.982 497.369 708.979C497.875 710.669 497.556 712.377 496.646 713.868C495.941 715.027 494.707 716.554 493.269 716.772C490.204 717.235 486.974 710.088 484.071 708.429C482.366 707.454 480.394 707.189 478.506 707.756C474.083 709.085 470.258 712.549 468.041 716.497C463.099 725.295 466.713 735.162 472.178 742.816C477.065 749.661 483.412 755.119 485.728 763.537C487.498 770.219 486.539 777.316 483.06 783.281C479.92 788.551 473.155 794.635 467.086 796.141C460.445 797.788 454.505 795.624 448.873 792.214Z" fill="#000002" stroke="black" stroke-width="5"/>
<path d="M634.661 783.136C640.548 785.697 650.406 786.275 655.06 789.517C655.8 790.03 656.382 790.6 656.486 791.529C656.917 795.447 650.447 809.072 648.343 812.759C646.581 815.853 644.582 818.996 642.106 821.586C638.36 825.508 633.978 827.34 628.49 827.433C622.835 827.529 617.627 826.032 613.5 822.014C607.946 816.609 606.237 808.848 606.219 801.419C606.178 782.104 616.137 752.905 630.059 739.349C636.639 732.943 641.85 729.908 651.163 729.975C652.253 730.174 653.406 730.439 654.451 730.807C658.93 732.384 663.841 736.518 665.748 740.867C666.382 742.316 666.662 743.854 666.03 745.347C665.577 746.416 664.425 747.763 663.28 748.143C660.01 749.228 655.479 742.453 652.244 741.153C648.912 739.814 645.13 740.353 641.89 741.645C632.812 745.267 626.946 758.747 623.341 767.216C618.056 779.625 612.014 797.351 617.594 810.544C618.693 813.143 620.273 815.848 623.065 816.893C626.278 818.095 629.501 817.715 632.524 816.275C637.634 813.839 641.462 807.04 643.203 801.883C643.722 800.35 644.141 798.316 643.212 796.834C641.865 794.691 637.893 794.412 635.58 793.922C633.153 793.411 629.042 792.883 627.651 790.557C626.725 789.004 627.045 786.873 627.586 785.257C628.139 783.603 629.244 783.017 630.727 782.29L631.116 782.101C632.322 782.399 633.489 782.729 634.661 783.136Z" fill="#000002" stroke="black" stroke-width="5"/>
<path d="M243.912 748.483C242.268 749.535 240.573 750.404 238.7 750.966C236.454 751.641 234.15 751.848 231.812 751.752C228.298 751.608 212.394 748.814 209.44 747.142C208.53 746.625 207.857 746.009 207.592 744.978C208.199 741.025 209.747 737.308 211.094 733.561C212.871 728.686 214.613 723.8 216.32 718.9L230.753 677.536C233.458 669.745 235.827 661.678 238.958 654.051C239.528 652.663 240.26 651.273 241.445 650.306C243.516 648.617 246.038 648.871 248.517 649.19C252.516 649.81 256.888 651.229 260.774 652.409C266.177 654.05 270.819 657.155 273.495 662.236C274.875 664.851 275.677 667.729 275.848 670.677C276.104 675.286 274.341 684.384 272.931 688.753C270.47 696.374 266.01 700.942 258.676 704.201C256.675 705.091 254.528 705.616 252.589 706.643C252.508 706.683 252.428 706.73 252.348 706.773C253.079 709.74 254.346 712.422 255.304 715.306C256.721 719.567 257.631 725.241 256.838 729.722C255.437 737.641 250.404 744.021 243.912 748.483ZM249.877 659.825C248.926 659.727 246.971 659.328 246.249 660.043C244.87 661.409 234.471 692.724 234.516 694.593C234.533 695.3 235.225 695.906 235.791 696.274C239.219 698.502 246.059 698.452 249.954 697.643C254.914 695.829 258.578 693.986 260.911 688.937C263.581 683.158 265.706 673.532 263.302 667.365C262.252 664.672 260.266 663.085 257.638 661.985C255.209 660.969 252.461 660.301 249.877 659.825ZM231.757 706.657C230.521 707.003 229.867 707.106 229.187 708.289C225.811 714.157 220.172 733.824 219.672 740.521C225.435 742.045 230.306 743.456 236.158 741.22C240.805 738.829 244.53 734.912 246.15 729.881C247.759 724.886 246.352 719.599 243.931 715.104C241.814 711.177 239.056 708.692 234.727 707.422C233.748 707.135 232.762 706.841 231.757 706.657Z" fill="#000002" stroke="black" stroke-width="5"/>
<path d="M676.19 824.876C676.515 824.999 676.843 825.111 677.169 825.232C683.442 827.501 691.549 827.382 698.046 829.704C699.428 830.2 700.831 830.674 701.464 832.103C702.11 833.563 701.706 836.499 701.064 837.916C700.72 838.675 700.156 839.361 699.334 839.609C696.136 840.586 667.692 835.211 664.426 833.4C663.454 832.858 662.825 832.356 662.503 831.28C663.163 827.658 664.738 824.049 665.944 820.565C667.889 814.975 669.789 809.367 671.644 803.745C676.264 789.387 681.022 775.074 685.918 760.807C687.476 756.243 688.715 751.466 690.451 746.982C691.043 745.461 691.824 743.999 693.085 742.922C694.964 741.316 696.921 741.265 699.283 741.416C704.705 742.697 710.101 744.091 715.463 745.598C717.821 746.241 720.409 746.699 722.629 747.725C723.791 748.261 724.572 748.805 724.984 750.067C725.523 751.712 725.223 754.22 724.335 755.695C721.045 761.155 705.385 752.074 700.759 753.972C699.854 754.342 699.265 755.496 698.812 756.299C696.923 759.643 687.777 780.328 688.766 782.986C690.088 786.532 703.164 788.325 706.717 790.436C707.655 790.992 708.421 791.778 708.622 792.888C708.825 794.013 708.297 795.887 707.55 796.737C704.541 800.15 692.06 794.547 687.501 794.845C686.517 794.912 685.813 795.187 685.178 795.973C682.835 798.88 675.809 821.287 676.19 824.876Z" fill="#000002" stroke="black" stroke-width="5"/>
<path d="M357.76 756.735C358.733 756.353 359.521 756.194 360.583 756.275C361.937 756.374 363.19 756.912 364.077 757.948C364.762 758.749 365.047 759.718 364.937 760.743C364.59 763.999 361.031 767.245 358.469 769.105C354.266 772.157 350.378 773.096 345.141 772.291C340.531 771.582 335.683 770.34 332.828 766.393C327.403 758.891 329.392 744.178 330.987 735.812C334.394 717.952 344.405 687.29 360.256 677.035C364.531 674.269 367.908 673.332 373.05 674.348C378.454 675.444 383.699 678.728 386.86 683.197C388.3 685.233 389.978 688.265 389.409 690.759C389.13 691.982 388.212 693.007 387.108 693.613C382.311 696.248 379.738 685.904 372.782 683.945C369.32 682.969 365.61 684.521 362.672 686.201C353.762 691.298 350.144 701.764 346.724 710.702C344.938 715.371 343.154 720.091 341.91 724.936C339.648 733.745 335.615 752.422 340.53 760.436C342.444 761.655 344.668 762.761 346.981 762.877C351.39 763.099 354.758 759.347 357.76 756.735Z" fill="#000002" stroke="black" stroke-width="5"/>
<path d="M290.815 720.952C284.973 729.522 280.641 739.013 275.685 748.129C274.601 750.12 273.681 752.302 272.492 754.225C271.862 755.243 271.005 756.156 269.916 756.644C268.691 757.178 267.312 757.161 266.117 756.598C265.117 756.122 264.277 755.284 263.942 754.187C263.455 752.594 264.271 751.119 265.008 749.731C267.838 744.411 271.562 739.466 274.617 734.248C279.244 726.348 283.581 718.251 288.28 710.399C292.865 702.739 297.798 695.307 302.493 687.72C305.636 682.654 308.73 677.557 311.777 672.431C313.358 669.78 314.882 666.666 316.781 664.26C317.482 663.371 318.209 663.074 319.248 662.751C320.768 663.383 322.829 663.762 323.995 664.994C324.824 665.87 325.006 666.965 324.929 668.158C324.361 677.016 321.683 685.874 320.026 694.579C316.714 711.974 313.674 729.42 310.911 746.905C310.284 750.833 309.643 759.959 308.574 763.145C308.327 763.88 307.951 764.501 307.336 764.976C306.551 765.586 305.598 765.736 304.653 765.611C303.246 765.421 301.8 764.573 300.978 763.385C300.488 762.677 300.117 761.705 300.114 760.819C300.106 759.031 300.639 756.994 300.946 755.211C301.987 749.192 303.385 743.28 304.642 737.308C305.624 732.641 306.212 727.837 306.978 723.132C306.362 721.8 305.728 720.848 304.738 719.777C300.616 718.395 297.44 717.667 293.085 718.157C292.2 719.026 291.515 719.923 290.815 720.952ZM313.125 684.938C311.727 685.909 310.702 687.071 309.681 688.431C307.563 691.249 298.617 705.68 298.026 708.628C297.913 709.188 297.954 709.269 298.287 709.704C298.655 710.185 299.053 710.482 299.535 710.833C302.457 710.972 305.381 711.064 308.307 711.108C310.472 705.649 314.131 691.461 313.703 685.71C313.517 685.392 313.403 685.179 313.125 684.938Z" fill="#000002" stroke="black" stroke-width="5"/>
<path d="M566.797 773.366C563.936 775.64 562.036 779.785 560.22 782.926C557.073 788.354 553.984 793.818 550.955 799.316C549.392 802.124 547.935 805.29 546.105 807.919C545.587 808.663 544.909 809.34 544.11 809.77C542.775 810.487 541.161 810.456 539.772 809.924C538.587 809.47 537.389 808.569 536.94 807.332C536.647 806.532 536.691 805.885 537.042 805.121C539.386 799.982 543.254 794.408 546.158 789.469L567.585 753.398L580.027 732.306C582.174 728.609 584.212 724.323 586.799 720.936C587.502 720.015 588.423 719.726 589.48 719.347C589.891 719.42 590.303 719.499 590.704 719.61C592.678 720.156 593.67 721.857 594.638 723.521C594.647 728.101 593.871 732.918 593.407 737.482C592.656 745.057 591.941 752.636 591.265 760.217C590.118 772.976 589.122 785.75 588.279 798.532C587.948 803.187 587.811 807.869 587.403 812.517C587.276 813.961 587.085 815.477 586.501 816.816C586.136 817.65 585.598 818.438 584.681 818.687C583.503 819.008 580.625 818.777 579.633 817.998C578.762 817.312 578.638 816.429 578.564 815.37C578.366 812.509 578.82 809.488 579.029 806.626C579.676 797.687 581.364 785.928 579.927 777.269C578.223 775.277 575.916 773.908 573.443 773.084C570.965 772.26 569.134 772.178 566.797 773.366ZM584.001 740.621C581.847 743.073 570.572 761.639 570.637 763.864C570.653 764.466 571.147 765.038 571.589 765.384C572.422 766.038 573.891 766.262 574.91 766.476C576.724 766.95 579.449 768.08 581.251 767.26C582.246 766.176 582.732 764.978 583.121 763.564C584.219 759.584 585.359 747.611 585.159 743.365C585.114 742.381 585.017 741.5 584.242 740.804C584.166 740.736 584.082 740.683 584.001 740.621Z" fill="#000002" stroke="black" stroke-width="5"/>
<path d="M395.291 750.58C393.821 755.363 388.171 775.397 386.017 777.991C385.413 778.72 384.366 779.017 383.427 779.107C382.248 779.222 380.24 778.784 379.398 777.888C378.729 777.176 378.593 776.56 378.703 775.639C379.202 771.431 383.464 761.9 385.078 757.334L404.345 702.865C405.425 699.741 408.542 686.479 410.867 685.231C411.708 684.78 412.763 684.811 413.659 685.105C415.287 685.64 416.799 687.001 417.462 688.541C418.294 690.476 417.57 691.803 416.863 693.601C415.41 697.299 414.188 701.094 412.773 704.808C411.647 707.765 410.151 710.803 409.407 713.863C409.149 714.925 408.877 716.206 409.357 717.243C410.458 717.403 411.648 716.579 412.541 716.018C415.663 714.055 418.625 711.602 421.559 709.378C429.078 703.678 436.316 697.768 444.202 692.535C444.824 692.707 445.476 692.88 446.053 693.17C447.42 693.857 448.795 695.255 449.224 696.707C449.675 698.233 449.216 699.678 448.215 700.866C446.743 702.615 443.864 704.037 441.959 705.441C437.242 708.917 432.583 712.485 427.777 715.847C423.516 718.829 406.532 729.035 404.487 732.378C403.163 740.938 421.61 771.103 426.503 780.616C427.301 782.168 428.249 784.182 427.459 785.887C426.921 787.05 425.657 787.657 424.445 787.96C423.27 788.251 422.001 788.34 420.954 787.617C417.964 785.557 416.107 780.302 414.517 777.126C412.31 772.715 400.863 747.41 398.113 746.176C397.698 745.992 397.77 746.085 397.298 746.271C396.322 747.534 395.856 749.108 395.291 750.58Z" fill="#000002" stroke="black" stroke-width="5"/>
<path d="M516.538 790.372C515.644 793.228 513.749 800.997 512.636 803.243C512.074 804.373 511.139 805.357 509.9 805.716C508.841 806.023 507.721 805.89 506.786 805.301C506.07 804.853 505.589 804.101 505.577 803.245C505.523 799.511 508.686 791.351 509.913 787.296L522.588 746.129C524.636 739.511 527.164 732.778 528.717 726.049C528.915 725.194 529.041 724.454 528.807 723.59C527.135 717.353 517.917 718.651 513.312 715.92C512.284 715.311 511.478 714.469 511.259 713.262C510.948 711.558 511.874 709.77 512.887 708.467C514.148 706.847 515.18 706.514 517.171 706.226C521.756 707.009 527.303 709.363 532.072 710.542C539.603 712.405 547.384 713.505 554.862 715.456C556.438 715.867 557.765 716.731 558.56 718.19C559.382 719.697 559.447 721.668 558.86 723.267C555.971 731.16 545.045 721.885 539.449 724.486C537.95 725.182 537.237 726.563 536.588 728.007C534.116 733.506 532.643 739.891 530.768 745.641L516.538 790.372Z" fill="#000002" stroke="black" stroke-width="5"/>
</svg>
