<svg width="1062" height="1062" viewBox="0 0 1062 1062" fill="none" xmlns="http://www.w3.org/2000/svg">
<path d="M351.487 449.539C402.118 398.152 458.645 351.861 513.244 304.695C541.453 280.312 572.719 256.438 596.67 227.76C605.515 217.134 613.34 207.526 611.484 192.968C605.988 150.243 544.438 98.9292 512.115 74C494.899 83.3166 478.555 93.7247 464.032 106.935C424.903 142.528 392.29 185.29 355.164 223.029C280.037 299.454 143.978 415.694 92 500.162C94.002 503.656 96.0765 507.076 98.1876 510.497C131.056 564.759 213.79 646.899 258.342 699.486L402.555 872.79C433.458 910.311 463.414 956.02 502.324 985.462C512.916 987.719 520.633 987.865 530.715 983.352C561.327 969.668 580.472 929.636 593.066 900.485C566.568 834.868 463.887 729.947 414.894 670.481C394.365 644.388 375.583 618.294 357.566 590.38C471.931 604.792 587.352 608.831 702.081 619.167C770.183 625.281 841.27 640.02 909.336 640.821C924.914 641.003 940.639 636.963 951.631 625.172C969.576 605.883 969.903 566.579 968.484 541.286C967.137 516.721 959.857 487.024 939.765 470.72C927.462 460.785 905.878 459.766 890.517 458.492C801.886 451.104 710.27 455.144 621.239 453.324C531.88 451.504 440.592 442.552 351.487 449.539Z" fill="#131313"/>
</svg>
