<svg width="1024" height="1024" viewBox="0 0 1024 1024" fill="none" xmlns="http://www.w3.org/2000/svg">
<g clip-path="url(#clip0_86_633)">
<path d="M139.077 531.005C137.566 523.445 135.255 516.04 133.541 508.525L121.701 454.305C111.148 402.718 101.088 351.032 91.5234 299.253C87.5474 278.307 83.3344 257.462 79.8669 236.419C77.8094 223.935 75.7289 211.523 75.1619 198.863C74.5319 184.803 75.7824 170.672 85.7729 159.895C91.3724 153.855 99.3779 150.307 106.828 147.103C145.531 130.459 189.583 125.319 231.085 120.25C280.971 114.355 331.073 110.455 381.271 108.56C395.023 108.171 408.783 108.133 422.537 108.445C429.206 108.555 436.369 109.405 442.987 108.616C448.152 108 453.666 104.699 458.75 103.21C472.476 99.1901 486.657 95.7336 500.645 92.7591C546.925 82.9191 588.125 80.3966 635.07 78.7246C666.575 77.4381 698.655 78.6076 730.17 79.8626C738.46 80.1926 798.455 81.5421 801.425 85.8486C803.91 89.4506 796.07 155.513 794.905 166.907C789.615 217.206 785.755 267.645 783.335 318.163L777.655 461.56C777.09 474.887 776.83 488.232 776.05 501.55C788.44 505.71 801.2 508.81 813.785 512.325C827.975 516.29 842.06 520.615 856.275 524.52C857.75 519.11 860.385 510.31 859.505 504.8C858.595 504.02 857.985 503.515 857.445 502.42C857.395 501.055 857.515 500.45 858.175 499.256C858.855 498.875 859.585 498.496 860.215 498.031C862.61 496.252 863.22 486.337 863.68 483.258C853.625 480.818 843.875 477.387 835.285 471.503C819.485 460.682 809.815 443.39 806.415 424.753C801.985 400.129 807.475 374.752 821.69 354.162C836.275 333.156 856.945 318.604 882.32 314.072C902.79 310.32 923.905 315.064 940.805 327.211C958.305 339.586 972.445 358.644 976.015 380.063C979.99 403.91 974.25 428.354 960.07 447.936C944.26 469.646 917.675 480.226 892.015 484.309C891.935 488.887 891.07 494.317 891.895 498.794C892.325 499.174 892.765 499.556 893.17 499.963C893.855 500.655 894.3 501.395 894.205 502.385C893.99 504.61 892.53 505.76 890.965 507.15C890.985 516.285 890.94 525.455 891.54 534.57C898.845 537.555 906.535 539.805 914.02 542.315C932.375 548.465 950.56 554.19 968.455 561.64C974.945 564.34 982.08 566.82 987.63 571.245C989.405 572.66 990.335 574.295 991.365 576.285C991.33 576.44 991.305 576.595 991.27 576.745C988.48 589.115 983.36 602.295 979.535 614.49C969.365 646.92 958.455 679.105 948.05 711.46L897.075 868.7L882.175 912.265C879.025 921.49 876.13 930.95 872.59 940.03C871.815 942.02 870.775 944.04 868.86 945.14C867.29 946.045 864.815 945.55 863.06 945.27C857.515 944.39 851.995 942.76 846.52 941.51L809.745 933.065C767.575 923.455 725.015 913.74 683.44 901.815C669.83 898.58 656.35 894.195 642.94 890.21C605.07 878.95 567.585 866.23 529.63 855.285C518.565 859.96 506.835 863.45 495.532 867.56C451.38 883.7 406.537 897.885 361.135 910.07C339.101 916.055 316.982 922.055 294.68 926.945C281.369 929.86 266.308 933.375 252.62 932.925C244.314 932.65 235.71 930.58 228.491 926.385C197.362 908.31 195.524 860.28 185.561 829.4C178.758 808.31 167.74 788.08 157.327 768.59C144.376 743.76 130.331 719.515 115.232 695.93C107.202 683.46 37.8181 582.575 37.0517 579.01C35.96 573.925 39.2238 566.925 41.9617 562.715C48.5496 559.39 55.7994 556.96 62.7089 554.355C87.7029 544.935 113.227 537.66 139.077 531.005ZM637.62 86.7211C583.975 88.8036 530.495 92.1501 478.499 106.668C468.723 109.398 458.193 112.138 448.946 116.362C447.741 143.293 449.157 170.446 450.675 197.338C454.748 262.727 462.127 327.868 472.786 392.511C475.735 410.15 477.877 428.119 481.804 445.573C493.395 441.836 505.29 437.915 516.39 432.877C519.285 431.563 522.285 428.116 525.215 427.401C526.995 426.967 530.515 429.096 532.135 429.928C544.14 436.095 556.77 440.55 569.435 445.167C587.41 451.722 605.46 457.992 624.02 462.719C641.595 467.574 659.295 471.61 677 475.915C707.38 483.135 737.6 490.987 767.65 499.466C770.72 459.864 771.215 420.024 772.64 380.339C774.38 334.359 776.865 288.409 780.09 242.508C782.825 208.421 786.04 174.375 789.73 140.378L792.865 110.414C793.48 104.537 794.58 98.2986 794.2 92.3986C787.07 86.9461 654.73 86.1346 637.62 86.7211ZM390.131 116.277C348.726 117.272 307.378 119.951 266.191 124.307C219.182 128.887 160.095 135.815 116.414 152.767C108.895 155.685 98.8874 159.431 93.1784 165.264C88.6404 169.901 89.3739 181.64 89.6244 187.653C90.7144 213.796 96.8719 239.874 101.266 265.623C104.63 286.095 108.213 306.531 112.014 326.926C120.477 369.877 129.249 412.765 138.329 455.589C141.975 472.691 145.482 489.823 148.849 506.98C150.173 513.78 152.078 520.77 152.822 527.645C158.246 526.155 163.685 524.725 169.138 523.34L322.526 488.177C341.693 483.525 360.831 478.758 379.94 473.875C401.243 468.649 422.449 463.038 443.549 457.045C453.481 454.206 464.72 451.747 473.919 447.082C452.147 338.564 440.89 228.199 440.302 117.519C425.898 115.61 404.751 115.449 390.131 116.277ZM891.135 320.686C867.125 323.701 846.57 335.057 831.625 354.129C816.935 372.882 811.085 396.462 814.04 419.959C816.16 436.828 823.805 452.713 837.5 463.145C844.15 468.212 851.91 472.209 860.035 474.252C863.275 475.067 867.225 475.511 870.205 476.943C871.28 477.459 871.73 477.934 871.885 479.093C872.615 484.729 870.45 491.866 869.78 497.555L883.48 499.008L883.535 491.375C883.575 486.864 883.78 482.434 884.195 477.941C890.9 476.652 897.72 475.679 904.335 474.001C924.995 468.761 943.515 457.651 955.575 439.79C966.92 422.988 971.73 399.745 967.665 379.834C963.7 360.449 949.795 343.035 933.445 332.428C921.755 324.842 905.35 318.499 891.135 320.686ZM532.6 440.849C534.37 502.145 537.645 563.395 538.48 624.72C539.31 698.345 537.355 771.975 532.62 845.455C540.35 849.445 549.64 851.135 557.985 853.565L597.855 865.445C615.765 870.79 633.57 876.51 651.52 881.73C687.83 892.395 724.385 902.2 761.155 911.135C794.3 919.39 828.205 925.315 861.07 934.645C863.565 923.45 868.375 912.32 872.09 901.435L882.81 870.46C884.895 864.3 886.72 857.95 889.025 851.875C909.845 793.17 927.06 733.28 946.37 674.095L967.655 610.49C971.41 599.275 976.175 587.615 978.455 576.02C961.085 566.57 941.04 560.37 922.195 554.45C905.925 549.315 889.61 544.31 873.26 539.43C811.515 520.775 749.9 502.21 687.08 487.423C663.905 481.967 640.52 476.905 617.555 470.628C599.695 465.747 581.855 459.855 564.425 453.603C553.84 449.805 542.51 446.21 532.6 440.849ZM519.63 445.513C509.405 449.837 498.044 452.602 487.419 455.84C460.48 464.182 433.279 471.656 405.859 478.251C348.983 492.054 292.011 505.46 234.948 518.47C185.036 529.62 135.204 540.39 86.4584 556.07C75.3974 559.625 63.8929 562.975 53.1159 567.285C60.9964 578.925 70.5319 589.405 78.5229 600.995C110.945 647.44 140.467 695.84 166.922 745.925C175.291 761.69 184.303 777.405 191.218 793.875C195.492 804.195 198.955 814.835 201.576 825.695C207.506 850.535 214.297 909.875 241.061 921.13C246.436 923.395 252.691 923.685 258.454 923.375C269.581 922.785 280.989 920.4 291.883 918.14C314.443 913.46 336.56 907.445 358.705 901.15C385.413 893.55 411.925 886.19 438.256 877.295C465.648 868.035 492.478 857.105 519.93 848.04C522.64 806.245 524.21 764.38 524.645 722.5C525.235 699.155 525.62 675.805 525.805 652.45C525.56 599.785 524.47 547.13 522.54 494.499C522.35 488.217 521.525 448.287 519.895 445.617L519.63 445.513ZM867.915 505.845C866.915 512.69 865.79 519.885 863.205 526.35C868.905 528.01 874.73 529.385 880.38 531.195L882.245 531.68C883.995 529.565 882.665 511.12 882.735 506.87C877.8 506.44 872.865 505.935 867.915 505.845Z" fill="#000001"/>
<path d="M601.875 327.125C578.76 328.9 550.035 318.455 532.215 303.943C513.295 288.536 500.64 266.89 498.244 242.452C495.494 215.436 503.665 188.442 520.935 167.486C539.65 145.046 566.59 136.197 594.875 133.712C595.055 133.686 595.23 133.651 595.41 133.635C620.92 131.296 651.645 138.198 671.095 155.507C687.98 170.536 697.425 194.753 698.59 217C700.12 246.042 687.085 276.805 667.775 298.163C650.09 317.721 627.81 325.92 601.875 327.125ZM557.735 148.947C546.9 154.078 533.98 161.883 526.78 171.642L526.895 172.31L527.23 172.332C535.32 170.752 543.38 169.395 551.565 168.421C553.785 162.351 557.095 155.685 558.39 149.415L557.735 148.947ZM672.055 166.978C670.09 170.355 667.835 173.402 665.46 176.501L666.095 182.385L672.605 180.989L680.56 179.342C678.065 174.914 675.46 170.771 672.055 166.978ZM546.81 175.682C538.205 177.099 529.52 178.792 520.79 179.145C517.78 184.15 508.64 198.346 509.45 203.621C510.14 203.704 510.42 203.73 511.105 203.541C521.465 200.64 531.775 198.205 542.44 196.715C544.125 191.633 548.845 180.661 548.44 175.802C547.795 175.654 547.47 175.542 546.81 175.682ZM682.46 185.621C677.445 186.777 672.435 187.952 667.37 188.882C667.57 192.511 667.29 197.642 669.13 200.874C670.22 201.316 670.505 201.082 671.625 200.863C676.885 199.949 682.145 198.935 687.445 198.331C686.465 195.182 684.87 187.591 682.46 185.621ZM550.805 190.274C550.275 191.662 549.315 193.317 549.775 194.799C551.13 195.553 552.915 195.003 554.39 194.796L554.965 194.228C554.175 192.622 552.305 191.225 550.805 190.274ZM563.815 200.207C558.195 200.686 552.575 201.266 547.065 202.522C546.085 206.419 545.04 210.312 544.135 214.227C550.18 213.302 556.225 212.31 562.31 211.697C568.96 211.016 575.62 210.461 582.29 210.031C581.575 206.536 581.235 204.169 578.005 202.113C574.08 199.615 568.305 199.808 563.815 200.207ZM536.955 204.671C527.2 206.357 516.035 207.929 507.06 212.189C506.63 214.719 504.945 220.873 506.38 223.105L507.69 222.894C517.37 219.286 527.39 217.054 537.5 215.026C538.135 211.837 539.365 208.181 539.125 204.957L538.545 204.477L536.955 204.671ZM686.29 205.131L669.735 208.376C670.05 216.655 670.205 224.875 669.535 233.142L675.28 232.14C680.26 231.281 685.505 230.689 690.32 229.152C691.625 222.656 692.145 211.674 689.42 205.585C688.21 204.684 687.755 204.987 686.29 205.131ZM662.53 209.181C654.39 210.42 646.25 211.753 638.07 212.675C636.44 217.157 629.165 234.824 629.755 238.635L630.31 238.779C641.1 237.473 651.95 236.125 662.665 234.307C663.025 229.658 664.84 212.725 662.985 209.358L662.53 209.181ZM580.76 216.195C568.35 217.491 555.965 219.369 543.57 220.596C542.58 229.406 542.605 238.167 543.03 247.009C546.055 246.788 549.105 246.616 552.125 246.3C564.94 245.113 577.76 244.016 590.59 243.008C588.51 235.925 586.085 221.801 583.725 216.243C582.595 215.872 581.915 215.986 580.76 216.195ZM536.04 222.14C525.28 224.255 514.945 227.226 504.615 230.9C504.645 235.571 504.06 243.004 506.12 247.177C516.225 247.697 526.42 247.611 536.535 247.472C536.375 239.163 536.16 230.8 536.855 222.507L536.04 222.14ZM688.845 236.723C682.225 237.669 675.615 238.668 669.01 239.722C668.725 243.619 666.99 252.915 668.625 256.139L685.04 254.38C686.34 251.163 690.215 239.571 688.91 236.78C688.9 236.753 688.865 236.742 688.845 236.723ZM661.6 241.2L628.32 246.177C627.705 250.673 626.71 255.424 626.755 259.957L627.52 260.603C638.585 259.19 649.8 258.589 660.83 257.033C661.6 252.097 662.41 246.986 662.315 241.981C662.095 241.702 661.93 241.318 661.6 241.2ZM620.91 248.488C616.67 254.604 611.575 258.862 605.215 262.705L605.645 263.073C610.205 262.597 614.77 262.2 619.34 261.885C619.86 259.108 622.13 250.747 620.91 248.488ZM590.1 249.71C574.565 251.282 559.125 252.723 543.52 253.471C543.58 258.308 543.595 263.148 543.88 267.978C549.43 267.457 554.985 267.042 560.55 266.733C561.66 266.65 563 266.617 564.025 266.168C568.64 264.147 573.43 253.151 579.475 258.692C581.19 260.266 582.29 262.541 583.3 264.602C589.07 264.589 594.66 263.962 600.385 263.284C598.47 260.931 593.21 249.743 591.76 249.517C591.5 249.476 590.395 249.665 590.1 249.71ZM507.125 253.505C511.415 267.7 517.825 279.981 528.3 290.632C530.61 292.977 533.115 295.53 536.005 297.134L536.75 296.818C538.21 282.69 537.695 268.12 536.81 253.964C526.9 253.96 517.025 253.982 507.125 253.505ZM681.535 261.715C676.58 262.491 671.685 263.104 666.685 263.546C665.415 270.524 664.345 277.666 662.48 284.512C661.715 287.328 658.83 292.806 659.045 295.443L659.57 295.941C668.685 290.05 677.79 272.413 681.985 262.486C681.655 261.745 681.9 261.919 681.535 261.715ZM655.525 264.706C645.625 265.696 635.7 266.918 625.785 267.684C624.78 271.762 619.67 294.8 619.795 297.29C621.045 298.18 622.325 297.995 623.785 297.974C632.95 297.243 642.34 296.569 651.53 296.442C653.945 289.598 660.99 271.279 659.29 264.839C657.975 264.315 656.88 264.537 655.525 264.706ZM616.715 268.732C607.34 269.453 597.68 269.784 588.385 271.122C592.05 276.655 597.31 281.496 601.89 286.313C605.47 290.223 609.17 294.025 612.98 297.715C614.1 292.443 619.095 272.556 618.09 268.808C617.705 268.778 617.085 268.664 616.715 268.732ZM558.6 273.797C553.8 274.084 548.985 274.461 544.175 274.576C544.125 277.159 543.1 293.103 544.025 294.086C548.83 287.339 554.005 280.88 558.89 274.197L558.6 273.797ZM642.29 303.714C633.92 304.195 625.5 304.907 617.125 305.092C617.735 308.463 618.175 314.959 620.29 317.492L621.265 317.511C631.94 314.083 639.55 311.924 647.375 303.49L642.29 303.714Z" fill="#000001"/>
<path d="M175.99 477.625C173.676 478.005 170.994 478.746 168.687 478.785C167.239 478.81 166.649 478.408 165.606 477.486C163.553 472.154 162.953 465.61 161.853 459.979C159.24 446.848 156.759 433.691 154.411 420.51C152.423 409.841 149.913 399.277 147.973 388.598C141.233 351.482 135.384 314.38 129.749 277.091C128.209 266.904 122.337 235.224 124.354 227.018C129.478 223.512 145.645 220.95 152.452 219.4C232.097 201.976 313.225 192.207 394.73 190.225C399.418 190.063 404.879 189.395 409.508 190.232C410.466 190.405 411.803 190.765 412.307 191.655C415.376 197.068 425.176 275.636 426.877 287.997L437.581 363.312C440.649 384.066 444.79 404.66 447.684 425.435C448.05 428.06 448.794 431.735 447.972 434.282C441.528 437.82 400.06 443.267 389.359 445.011C318.382 456.815 247.253 467.688 175.99 477.625ZM391.671 197.287C371.418 198.259 351.165 198.987 330.94 200.5C282.42 204.171 234.139 210.518 186.319 219.512C169.387 222.759 147.277 226.571 131.375 231.9C132.507 239.571 133.222 247.285 134.302 254.961C138.507 284.897 142.998 314.792 147.774 344.642C150.164 359.155 153.132 373.563 155.836 388.019C160.98 415.517 166.206 443.057 171.803 470.465C184.453 468.635 197.172 467.259 209.798 465.286C212.509 433.968 220.354 413.37 245.047 392.701C252.506 386.456 260.839 381.811 269.67 377.808C268.774 373.736 267.968 369.701 267.384 365.572C259.825 357.796 255.215 349.567 250.512 339.877C243.112 341.665 235.53 341.647 228.805 337.525C226.86 336.332 224.917 334.652 224.338 332.347C223.784 330.139 224.722 327.545 225.929 325.709C226.426 324.955 227.026 324.259 227.615 323.576C222.412 311.494 223.455 302.098 227.527 289.8C221.618 284.348 217.694 278.596 217.409 270.229C217.168 263.164 219.964 256.563 224.785 251.472C229.266 246.74 235.532 243.648 242.097 243.486C248.006 243.34 253.258 245.852 257.366 250.014C259.269 251.942 260.865 254.24 262.412 256.458C276.496 249.599 294.866 245.275 310.21 250.488C318.297 253.241 324.953 259.103 328.706 266.776C333.582 276.737 333.063 288.397 330.681 298.946C334.423 301.66 337.165 305.561 337.798 310.237C338.258 313.639 336.956 316.862 334.821 319.461C331.762 323.184 327.909 324.622 323.559 326.231C322.219 334.866 320.953 343.841 318.749 352.289C318.181 354.465 315.083 359.213 314.992 360.788C314.88 362.715 316.041 365.53 316.11 367.691C340.111 371.566 357.933 380.764 372.35 400.869C380.247 411.882 384.587 424.696 387.801 437.736C405.45 435.634 423.167 432.27 440.632 429.018C438.389 408.929 434.576 388.917 431.349 368.962C428.558 350.87 425.947 332.751 423.516 314.607L412.516 235.882C410.693 222.992 409.459 209.629 406.871 196.885C401.78 196.852 396.753 197.013 391.671 197.287ZM281.637 283.486C279.678 298.758 276.204 305.5 263.885 315.002C254.32 322.381 243.885 329.32 231.994 332.029C233.949 332.726 236.06 333.593 238.131 333.818C241.434 334.176 252.24 331.79 253.799 332.401C260.545 335.046 264.789 364.725 287.515 368.045C291.689 368.655 296.232 368.468 300.105 366.658C303.299 365.166 306.866 362.27 307.914 358.771C308.242 357.679 308.145 356.877 307.95 355.773C307.151 354.757 306.943 354.32 305.573 354.133C304.608 354.002 303.171 354.477 302.297 354.831C295.166 358.69 287.001 362.264 278.708 359.86C276.996 359.363 275.465 358.297 274.762 356.601C273.634 353.882 274.951 350.588 276.248 348.185C279.788 341.623 285.795 336.249 293.035 334.231C298.811 332.62 304.833 333.083 310.04 336.159C311.302 336.904 312.233 337.717 313.227 338.776C313.41 338.971 313.597 339.161 313.78 339.356C313.893 339.477 314.001 339.602 314.112 339.725C315.499 334.902 316.466 321.621 318.969 318.638C322.383 316.928 328.048 318.198 329.685 313.956C330.3 312.362 329.8 309.179 329.036 307.708C328.71 307.082 328.62 307.039 328.194 306.603C324.947 306.554 323.866 311.564 320.383 309.083C319.689 307.511 319.459 306.107 319.235 304.41C302.386 302.099 292.539 296.507 281.637 283.486ZM308.987 370.074C299.97 374.646 292.116 377.446 282.015 374.071C280.009 373.401 278.033 372.63 276.054 371.884C277.352 380.045 281.034 387.301 286.095 393.753C290.336 398.326 294.484 402.582 300.342 405.024C307.55 396.83 310.49 386.169 309.831 375.358C309.728 373.663 309.796 371.561 308.987 370.074ZM369.855 413.8C364.495 424.243 358.89 434.189 351.381 443.291L360.954 441.847C367.345 440.726 373.976 439.89 380.274 438.367C378.772 432.669 374.704 417.478 369.855 413.8ZM222.934 437.224C220.541 445.96 218.556 454.643 218.269 463.738C227.334 462.594 236.324 460.867 245.381 459.74C248.167 459.318 250.961 458.942 253.759 458.61C242.35 452.974 232.095 446.12 222.934 437.224Z" fill="#000001"/>
<path d="M314 340V361H307L314 340Z" fill="#010101"/>
<path d="M901.145 291.624C899.275 291.532 898.265 291.576 896.785 290.353C896.24 289.45 896.015 288.767 896.02 287.722C896.05 281.642 900.77 262.572 904.805 258.418C906.23 258.394 907.19 258.408 908.565 258.878C909.415 259.859 909.91 260.352 909.93 261.7C910.005 266.328 905.315 283.96 903.435 288.378C902.89 289.66 902.11 290.636 901.145 291.624Z" fill="#000001"/>
<path d="M854.27 291.039C852.57 290.818 851.475 290.628 850.16 289.397C846.53 285.997 839.87 277.576 839.6 272.564C840.135 271.066 841.435 270.302 842.645 269.364C845.955 269.829 847.775 272.467 849.78 274.964C852.025 277.752 857.59 284.441 856.775 288.191C856.45 289.666 855.42 290.254 854.27 291.039Z" fill="#000001"/>
<path d="M956.155 306.005C955.14 305.911 953.97 305.733 953.025 305.344C951.67 304.786 951.25 304.065 950.605 302.818C950.87 298.609 961.235 284.482 964.37 280.519C965.86 280.451 967.755 280.207 969.005 281.207C969.945 281.957 970.33 282.977 970.285 284.151C970.1 289.126 959.95 302.397 956.155 306.005Z" fill="#000001"/>
<path d="M816.275 324.301C811.905 324.809 803.75 321.044 800.115 318.493C798.495 317.357 797.48 316.329 797.16 314.298C797.445 312.718 798.21 312.067 799.3 310.994C803.885 310.856 814.645 314.992 817.725 318.329C818.55 319.222 818.93 320.226 818.715 321.454C818.47 322.847 817.32 323.546 816.275 324.301Z" fill="#000001"/>
<path d="M299.76 325.178C297.899 325.138 296.412 325.073 294.964 323.737C293.778 322.644 293.271 321.431 293.258 319.806C293.241 317.626 294.368 316.367 295.826 314.943C297.433 314.859 299.001 314.62 300.35 315.717C301.715 316.827 302.244 318.19 302.251 319.918C302.259 322.043 301.181 323.717 299.76 325.178Z" fill="#000001"/>
<path d="M280.409 330.134C280.009 330.028 279.607 329.928 279.212 329.803C277.485 329.258 276.352 328.404 275.573 326.737C274.835 325.159 274.97 323.634 275.707 322.071C276.456 320.484 277.851 320.026 279.357 319.381C279.628 319.454 279.9 319.519 280.168 319.601C281.852 320.114 283.211 321.695 283.928 323.259C284.559 324.635 284.663 326.534 283.958 327.911C283.219 329.353 281.834 329.662 280.409 330.134Z" fill="#000001"/>
<path d="M891.2 467.121C875.425 468.946 858.005 466.144 845.205 456.214C833.53 447.16 826.565 433.518 824.82 418.973C822.33 398.302 826.42 376.988 839.59 360.527C853.055 343.698 871.37 332.989 892.845 330.699C904.3 329.234 918.985 335.893 928.06 342.386C940.255 351.111 955.68 368.563 958.065 383.871C960.835 401.757 956.39 420.01 945.71 434.621C931.915 453.559 914.195 463.568 891.2 467.121ZM892.3 338.683C887.245 339.181 882.49 340.79 877.585 342.023C878.54 349.145 876.6 355.901 872.255 361.634C870.245 364.287 868.07 366.829 865.93 369.38C875.115 383.823 886.06 395.873 900.095 405.769C905.205 404.172 910.46 403.009 915.66 401.739C916.745 397.278 918.25 393.648 920.54 389.678C921.685 387.82 922.795 385.473 925.06 384.829C927.24 384.212 929.495 385.245 931.255 386.46C934.795 388.906 937.935 392.622 940.975 395.674C943.595 395.217 948.695 394.925 950.15 392.393C951.76 389.595 950.34 385.482 949.29 382.702C943.2 366.535 928.715 349.971 912.845 342.939C906.3 340.04 899.47 338.456 892.3 338.683ZM869.475 345.521C859.05 351.276 842.155 365.002 838.66 376.776L838.96 377.35C849.875 373.142 863.35 364.252 868.195 353.114C868.96 351.355 870.245 347.392 869.475 345.521ZM859.43 374.301C859.115 379.968 872.97 396.713 876.89 401.087C888.585 414.136 902.015 423.399 916.98 432.289C921.1 434.737 925.725 437.838 930.285 439.32C931.22 438.92 930.935 439.175 931.295 438.8C931.935 437.883 932.785 437.15 932.68 436.016C915.875 426.077 896.05 414.142 881.89 400.879C877.85 397.098 873.61 392.994 870.18 388.658C867.82 385.677 862.315 375.672 859.43 374.301ZM851.81 379.986C846.185 382.718 841.455 384.298 835.175 384.925C831.285 403.584 830.04 423.883 840.965 440.55C847.44 450.427 857.865 456.15 869.27 458.453C879.855 460.591 892.265 460.024 902.585 456.793C910.42 454.271 917.51 451.108 923.97 445.924C906.955 435.25 891.18 426.24 876.79 411.839C873.45 408.495 870.055 405.147 867.14 401.417C864.67 398.261 854.28 380.957 851.81 379.986ZM926.79 390.684C924.915 393.822 923.4 397.016 921.925 400.357L929.21 398.982L933.825 398.104C931.77 395.149 930.005 392.492 926.79 390.684ZM949.635 401.091C935.425 404.673 921.06 407.594 906.585 409.843C911.335 412.539 915.855 415.517 920.4 418.541C926.43 422.642 932.565 426.59 938.8 430.382C943.13 423.88 950.905 409.53 950.285 401.597L949.635 401.091Z" fill="#000001"/>
<path d="M987.97 346.052C987.335 346.081 986.4 346.191 985.755 346.063C984.435 345.802 983.935 345.114 983.205 344.068C983.025 342.936 982.85 342.456 983.37 341.38C985.4 337.171 994.27 334.05 998.455 332.469C1000.14 332.437 1002.02 333.091 1003.25 334.243C1003.43 335.113 1003.6 335.349 1003.29 336.225C1001.77 340.469 991.79 344.238 987.97 346.052Z" fill="#000001"/>
<path d="M700.625 363.747C699.115 363.791 697.6 363.805 696.09 363.792C694.53 363.763 693.315 363.576 692.185 362.409C691.765 360.98 691.71 360.795 692.125 359.376C695.755 355.382 713.36 356.102 719.35 355.716C720.395 355.611 721.44 355.546 722.485 355.519C725.17 355.463 726.545 356.183 728.465 357.978C728.905 359.13 729.08 358.953 728.585 360.194C724.1 364.052 707.03 363.448 700.625 363.747Z" fill="#000001"/>
<path d="M508.475 369.504C506.715 369.55 505.045 369.504 503.295 369.31C502.32 368.722 501.575 368.162 501.335 366.965C501.055 365.555 501.42 364.93 502.04 363.743C503.295 362.865 504.64 362.741 506.135 362.645C518.515 361.848 531.155 362.002 543.59 361.483L653.89 356.72C654.29 356.691 654.695 356.666 655.095 356.646C657.245 356.548 658.985 356.621 660.56 358.295C661.62 359.421 661.82 359.963 661.7 361.472C659.905 363.046 657.275 363.202 654.98 363.411C641.11 364.677 626.835 364.132 612.9 364.815C578.1 366.594 543.29 368.157 508.475 369.504Z" fill="#000001"/>
<path d="M577.875 390.533C572.02 390.581 566.025 391.229 560.17 391.584L523.02 393.755C517.7 394.035 510.955 395.184 505.735 394.39C504.405 394.188 503.65 393.762 502.82 392.689C502.5 391.259 502.575 390.657 503.09 389.289C504.405 388.039 504.635 388.083 506.425 387.869C511.43 387.269 516.675 387.36 521.715 387.108L553.785 385.425C585.055 383.507 616.335 381.771 647.62 380.218C661.22 379.483 674.8 380.563 688.4 380.445L711.025 380.03C714.695 379.953 719.09 379.382 722.66 380.038C724.335 380.345 724.945 380.984 725.815 382.379C725.885 383.759 725.8 384.473 725.22 385.73C723.79 386.906 721.96 386.93 720.185 386.977C707.84 387.308 695.315 387.476 682.97 387.339C674.305 387.243 665.625 386.791 656.96 386.925C630.615 387.333 604.19 389.165 577.875 390.533Z" fill="#000001"/>
<path d="M520.26 419.354C516.75 419.325 512.535 419.666 509.135 418.89C507.725 418.568 507.335 418.222 506.525 417.058C506.335 415.563 506.435 414.983 507.13 413.646C508.115 412.695 509 412.638 510.3 412.516C516.335 411.951 522.765 412.555 528.86 412.47C539.02 412.327 549.21 411.765 559.355 411.265C610.3 408.258 661.29 406.077 712.305 404.722C715.42 404.582 720.02 403.796 722.95 404.661C724.45 405.103 725.01 405.841 725.73 407.161C725.725 408.533 725.76 409.12 724.81 410.238C723.885 411.329 722.02 411.404 720.695 411.473C708.045 412.127 695.23 411.98 682.55 412.363L613.77 414.998C582.605 416.222 551.435 418.621 520.26 419.354Z" fill="#000001"/>
<path d="M695.605 613.165C694.16 614.405 692.635 615.4 690.685 615.5C680.39 616.025 587.665 589.13 573.27 583.71C569.53 582.3 565.475 580.735 562.55 577.94C559.7 571.385 560.765 509.22 562.59 499.924C563.235 496.63 564.055 494.459 566.87 492.538C569.095 492.424 571.115 492.399 573.31 492.865C584.675 495.277 595.965 499.22 607.25 502.135L667.24 517.68C676.94 520.255 693.645 523.61 702.035 528.53C703.395 529.325 703.76 529.845 704.09 531.36C705.955 539.855 701.24 591.945 699.265 602.495C698.535 606.37 697.725 609.78 695.605 613.165Z" fill="#000001"/>
<path d="M280.131 560.39C278.444 559.95 277.715 559.64 276.432 558.465C275.948 557.095 275.965 557.06 276.433 555.685C277.665 554.445 278.848 553.645 280.502 553.03C288.168 550.185 296.859 548.63 304.786 546.565C321.16 542.3 337.649 538.02 353.868 533.21C378.534 525.915 403.11 518.32 427.59 510.425C444.663 504.935 461.718 499.015 478.953 494.071L480.705 494.143C482.104 494.991 482.282 495.112 483.001 496.57C482.981 497.474 482.97 498.174 482.478 498.978C481.898 499.924 481.08 500.615 480.091 501.08C475.914 503.06 470.718 504.255 466.293 505.745C453.987 509.88 441.64 513.89 429.254 517.78C399.465 527.265 369.51 536.22 339.404 544.645C319.785 550.21 300.022 555.895 280.131 560.39Z" fill="#000001"/>
<path d="M306.897 595.92C305.26 595.62 304.525 595.39 303.222 594.355C302.614 593.075 302.647 592.955 302.89 591.55C303.693 590.505 304.437 589.755 305.664 589.215C311.265 586.75 318.363 585.515 324.306 583.765L369.488 570.34C409.882 557.915 450.768 545.09 490.054 529.515C490.522 529.48 491.324 529.405 491.77 529.45C493.1 529.6 493.515 530.16 494.409 531.045C494.681 532.315 494.818 532.755 494.206 533.99C490.438 541.565 346.964 584.91 329.646 589.97C322.1 592.095 314.516 594.08 306.897 595.92Z" fill="#000001"/>
<path d="M186.512 741.165C182.493 731.42 177.801 721.895 173.299 712.36C158.069 680.53 141.586 649.315 123.888 618.785C116.951 606.73 109.115 595.09 102.468 582.88C101.352 580.835 101.324 579.55 101.944 577.33C105.729 573.15 226.311 541.405 240.542 538.63C240.771 538.625 241.002 538.595 241.231 538.615C242.577 538.74 243.62 539.215 244.445 540.27C248.241 545.14 250.828 551.81 253.703 557.27C276.008 599.63 296.716 642.72 312.324 688.05C314.041 693.04 318.044 701.16 317.251 706.35C316.849 706.925 316.452 707.335 315.866 707.73C310.815 711.11 303.655 712.76 297.879 714.69C281.204 720.27 264.334 725.015 247.571 730.285C231.017 735.49 214.651 741.765 197.909 746.31C195.937 746.845 192.593 747.925 190.643 747.21C188.495 746.425 187.382 743.08 186.512 741.165ZM205.103 591.12C200.169 591.955 196.083 593.645 193.121 597.88C190.432 601.725 189.455 606.51 190.42 611.1C191.389 615.62 194.501 620.74 198.557 623.11C200.179 624.055 202.453 624.96 204.316 624.35C204.854 624.175 205.178 624.015 205.728 623.78C210.948 620.345 220.123 616.15 221.428 609.605C222.257 605.45 220.666 601.05 218.19 597.735C215.667 594.36 211.753 591.68 207.504 591.21C206.707 591.125 205.903 591.115 205.103 591.12ZM252.887 600.395C236.732 610.415 220.49 620.745 205.077 631.86C219.037 637.475 233.052 642.95 247.122 648.285L281.593 661.89C277.69 650.565 271.885 639.47 266.916 628.56C262.778 619.475 258.979 609.345 253.825 600.845L252.887 600.395Z" fill="#000001"/>
<path d="M925.55 602.28C920.26 601.67 914.7 599.31 909.61 597.735L878.99 588.405C844.04 578.115 809.14 567.645 774.3 556.99L747.13 548.385C743.9 547.325 740.345 546.74 737.26 545.34C735.57 544.57 734.74 543.775 734.11 542.035C734.255 540.46 734.92 539.675 735.845 538.47C738.26 538.325 740.275 538.79 742.58 539.455C755.215 543.1 767.675 547.345 780.26 551.17L873 579.24C886.47 583.185 899.9 587.255 913.295 591.45C917.015 592.64 921.94 593.53 925.27 595.52C926.69 596.37 927.12 597.14 927.535 598.705C927.215 600.365 926.69 601.05 925.55 602.28Z" fill="#000001"/>
<path d="M319.435 620.9C318.897 620.935 318.268 621.005 317.738 620.9C316.6 620.675 315.561 619.79 315.097 618.735C314.495 617.37 314.691 616.41 315.159 615.07C317.05 612.755 340.687 608.18 345.479 606.92C393.444 594.485 440.854 579.995 487.579 563.5C488.175 563.49 489.157 563.395 489.766 563.55C490.782 563.81 491.718 564.695 492.071 565.685C492.455 566.76 492.194 567.815 491.612 568.76C487.904 574.77 369.878 608.035 355.518 611.915C343.525 615.05 331.496 618.045 319.435 620.9Z" fill="#000001"/>
<path d="M916.285 631.76H916.03C909.865 631.72 899.665 627.955 893.33 626.25C857.945 616.72 823.065 605.515 788.14 594.42C776.83 590.85 765.535 587.21 754.27 583.51C748.775 581.695 742.81 580.12 737.55 577.745C736.015 577.055 735.415 576.725 734.57 575.26C734.535 573.575 734.96 572.79 735.785 571.4C743.69 571.085 790.81 587.66 801.165 591C818.725 596.665 836.42 602.225 854.095 607.525L901.975 621.42C906.025 622.635 910.735 623.03 914.52 624.83C916.07 625.57 916.95 626.28 917.555 627.945C917.505 629.585 917.095 630.405 916.285 631.76Z" fill="#000001"/>
<path d="M327.21 647.825C325.569 647.45 324.858 647.215 323.757 645.88C323.615 645.145 323.361 644.625 323.656 643.895C324.593 641.585 327.483 640.79 329.658 640.16C339.318 637.375 349.148 635.14 358.839 632.455C376.944 627.43 395.046 622.005 412.996 616.45C438.485 608.565 463.503 599.375 488.644 590.475C489.046 590.495 489.316 590.485 489.715 590.65C490.963 591.155 491.457 591.85 491.979 593.03C492.059 594.225 492.026 595.04 491.34 596.075C488.807 599.895 472.767 604.11 467.763 605.88C435.329 617.33 402.92 627.62 369.76 636.775C355.606 640.685 341.632 644.99 327.21 647.825Z" fill="#000001"/>
<path d="M906.77 662.73C897.62 662.73 883.965 657.965 874.905 655.515C837.875 645.38 801.155 634.15 764.79 621.855C754.86 618.59 743.355 616 734.095 611.29C732.475 610.47 731.94 609.96 731.33 608.255C731.56 606.625 732.18 605.675 733.06 604.34C738.435 604.59 751.905 609.96 757.74 611.89L807 628.03C827.285 634.505 847.665 641.095 868.245 646.575C876.765 648.84 885.325 651.07 893.895 653.16C897.36 654.005 901.24 654.315 904.53 655.66C905.94 656.24 907.295 657.08 907.7 658.66C908.085 660.15 907.39 661.435 906.77 662.73Z" fill="#000001"/>
<path d="M340.426 692.42C338.805 692.495 338.133 692.505 336.669 691.665C335.872 690.47 335.652 690.265 335.621 688.855C336.787 686.605 339.407 685.49 341.716 684.735C353.577 680.875 365.958 678.29 377.932 674.725C416.083 663.365 454.751 651.32 491.515 636.015C492.376 635.91 493.37 635.795 494.183 636.19C495.414 636.795 495.905 637.735 496.402 638.935C496.341 639.755 496.44 640.365 495.953 641.07C492.254 646.405 416.056 670.655 404.642 674.125C383.34 680.58 361.932 686.68 340.426 692.42Z" fill="#000001"/>
<path d="M639.925 690.39C643.88 686.55 647.78 682.695 651.265 678.41C655.615 673.055 659.78 666.565 664.955 662.035C670.54 661.89 676.765 664.24 682.19 665.48C685.715 666.29 689.295 666.78 692.835 667.49C697.925 668.515 703.68 669.385 708.075 672.295C715.795 677.41 723.775 701.71 729.815 710.605C729.915 710.75 730.015 710.885 730.115 711.03C738.315 713.41 746.6 715.49 754.95 717.275C756.625 713.135 758.135 707.09 761.945 704.475C764.1 703 767.005 703.775 769.38 704.275C776.66 705.815 813.765 715 816.625 719.7C819.195 723.915 817.12 729.425 816.025 733.785C821.57 735.985 828.51 737.845 831.96 743.075C833.66 745.65 833.79 748.615 833.75 751.62C833.645 759.895 831.815 768.345 830.57 776.51C827.38 796.495 823.9 816.43 820.12 836.315C818.095 846.79 814.3 869.925 810.435 878.775C809.54 880.825 808.02 882.72 806.11 883.9C792.995 892.015 749.15 878.4 733.87 874.25C713.385 868.5 692.66 863.18 671.995 858.095C647.505 852.065 573.47 838.175 559.31 820.005C558.42 818.86 557.94 817.765 557.73 816.335C557.095 812.045 557.82 807.16 557.895 802.785C558.235 783.675 559.645 764.915 561.51 745.91C562.405 736.78 563.705 727.68 564.92 718.595C565.96 710.84 566.59 702.515 569.12 695.095C570.435 691.235 572.53 686.93 575.815 684.41C579.855 681.31 585.28 682.095 589.995 682.56C589.975 679.52 589.385 674.36 591.715 672.005C593.425 670.28 596.125 670.535 598.39 670.635C602.605 670.83 626.085 672.62 628.23 675.59C630.285 678.44 628.805 685.07 628.385 688.38C632.145 689.295 636.1 689.76 639.925 690.39ZM668.595 671.495C661.91 678.09 656.86 685.925 650.605 692.855C668.745 696.895 686.76 701.535 704.89 705.54L719.02 708.92C714.47 699.095 709.085 689.64 704.01 680.08C692.705 675.635 680.585 673.285 668.595 671.495ZM598.025 679.415C597.83 681.005 597.475 682.105 598.07 683.615C601.42 684.53 617.405 687.145 620.43 686.845L621.365 681.915C613.59 681.13 605.77 680.47 598.025 679.415ZM582.53 690.5C577.215 694.125 576.355 697.855 574.945 703.82C595.255 706.645 615.36 711.025 635.47 715.005C698.39 727.445 760.32 742.91 820.88 764.195C822.055 764.585 823.07 765.115 824.31 764.885C825.59 759.965 825.82 754.285 826.16 749.2C823.63 746.655 821 745 817.74 743.575C810.695 740.5 802.825 738.975 795.385 737.12C785.89 734.78 776.42 732.355 766.975 729.84C722.035 717.865 679.275 706.14 633.36 697.45C619.35 694.795 597.74 690.665 583.97 690.475C583.49 690.465 583.01 690.485 582.53 690.5ZM766.645 712.405C765.485 714.925 764.365 717.485 763.12 719.97C777.805 723.78 792.565 728.2 807.38 731.425C807.98 731.125 808.245 731.185 808.46 730.515C809.14 728.39 809.365 726.29 809.605 724.085C800.71 720.585 775.86 713.88 766.645 712.405ZM681.535 744.54C657.545 748.765 641.52 771.635 645.74 795.63C649.965 819.62 672.835 835.645 696.825 831.425C720.82 827.2 736.845 804.33 732.62 780.335C728.4 756.345 705.525 740.32 681.535 744.54Z" fill="#000001"/>
<path d="M695.155 696.415C688.835 696.045 681.365 694.74 675.28 692.91C672.525 692.085 669.11 690.755 667.775 687.975C666.97 686.295 667.12 684.195 667.84 682.505C668.87 680.09 671.21 679.1 673.455 678.085C679.49 677.69 686.685 679.25 692.32 681.385C695.495 682.59 699.165 684.49 700.51 687.835C701.215 689.59 701.3 692.01 700.29 693.675C699.145 695.55 697.145 695.985 695.155 696.415Z" fill="#000001"/>
<path d="M426.008 823.11C423.99 810.885 408.472 718.895 410.537 714.03C412.637 709.085 491.033 682.915 500.67 680.02C501.205 679.985 501.71 679.93 502.25 680.025C503.525 680.25 504.615 680.985 505.265 682.105C506.09 683.535 506.31 685.625 506.39 687.24C506.62 691.855 506.295 696.555 506.38 701.185C506.6 720.6 506.58 740.02 506.325 759.435C506.225 769.495 506.945 798.92 504.65 806.545C503.305 807.825 501.63 808.48 499.923 809.15C487.648 813.965 474.793 817.455 462.324 821.75C455.526 824.115 448.742 826.52 441.972 828.965C438.888 830.085 435.835 831.545 432.695 832.475C431.526 832.825 430.204 832.89 429.147 832.18C426.543 830.435 426.45 825.93 426.008 823.11ZM497.684 689.065C484.932 692.195 472.652 697.035 460.313 701.475C445.856 706.68 431.308 711.705 417.239 717.91C420.526 735.815 422.321 754.045 425.862 771.855C428.949 767.155 431.983 762.405 435.173 757.77C436.998 755.06 440.357 748.69 443.64 748.07C444.932 747.825 446.022 748.335 446.984 749.165C448.198 750.21 449.175 752.55 449.948 753.94L463.941 731.92C466.804 727.34 469.501 722.3 472.898 718.125C474.029 716.735 475.204 715.395 476.974 714.885C483.112 717.47 494.036 732.29 498.891 737.795C499.16 721.79 499.141 705.78 498.834 689.77C498.091 689 498.511 689.16 497.684 689.065ZM477.49 724.865C470.289 734.435 464.244 745.115 457.802 755.225C456 758.05 454.233 761.96 451.946 764.28C451.474 764.76 450.2 765.16 449.493 765.13C448.195 765.075 447.21 764.52 446.41 763.52C445.25 762.065 444.539 759.85 443.839 758.14C437.563 765.58 432.727 773.815 426.952 781.585C428.496 793.885 431.715 805.935 432.677 818.31C436.875 813.22 440.509 807.835 443.96 802.215C446.847 797.415 460.243 774.51 464.803 773.305C465.663 773.08 466.39 773.655 467.041 774.17C472.011 778.1 476.565 785.675 480.453 790.8C485.699 780.145 491.749 769.275 498.488 759.515L498.665 747.85C493.486 742.97 481.58 727.58 477.49 724.865ZM498.739 772.39C495.295 777.85 487.465 789.58 486.214 795.515L486.571 795.685C490.758 790.43 494.859 785.1 498.871 779.71C499.024 777.705 499.706 774.505 498.992 772.65L498.739 772.39ZM465.197 782.885C456.397 795.315 448.473 808.615 440.283 821.475C443.905 820.285 447.582 819.17 451.125 817.76C458.088 815.325 468.455 812.705 474.758 809.315C475.039 808.335 475.34 807.36 475.595 806.375C476.112 804.375 477.4 802.96 478.673 801.39C474.209 795.47 470.204 788.25 465.197 782.885ZM498.334 790.44C497.003 792.48 488.808 803.38 488.902 805.15L498.453 801.2C498.478 797.87 498.99 793.66 498.334 790.44Z" fill="#000001"/>
<path d="M205.784 775.47C204.161 775.6 203.291 775.455 201.975 774.47C201.428 773.265 201.302 773.13 201.537 771.85C202.604 770.2 204.374 769.25 206.127 768.455C212.979 765.355 221.162 763.52 228.38 761.275C243.49 756.585 258.643 751.67 273.996 747.84C293.646 742.935 313.63 739.275 333.204 734.1C344.84 731.02 356.13 727.455 367.331 723.06C367.836 723.045 368.76 722.945 369.276 723.095C370.704 723.505 370.985 724.09 371.792 725.245C371.869 726.105 372.075 726.675 371.677 727.49C367.512 736 282.138 753.28 269.019 756.77C247.819 762.585 226.736 768.82 205.784 775.47Z" fill="#000001"/>
<path d="M217.095 799.87C215.305 799.63 214.389 799.4 213.19 797.99C213.001 797.165 212.692 796.66 213.059 795.84C213.645 794.535 214.73 793.88 215.96 793.265C225.018 788.75 236.106 786.33 245.796 783.32C278.051 773.3 310.906 765.42 343.187 755.575C352.514 752.73 361.497 749.085 370.535 745.44C370.765 745.48 371.004 745.485 371.226 745.56C372.567 746.005 373.257 746.615 373.986 747.81C374.089 748.71 374.189 749.405 373.782 750.26C370.049 758.15 278.987 780.995 262.997 785.695C247.693 790.195 232.497 795.835 217.095 799.87Z" fill="#000001"/>
<path d="M479.098 756.315C478.519 756.42 477.842 756.58 477.244 756.565C474.896 756.51 472.156 755.125 470.665 753.305C469.747 752.185 469.551 751.22 469.644 749.79C470.312 748.28 470.966 747.785 472.29 746.925C474.356 747.375 478.302 748.6 480.099 749.615C481.286 750.29 481.481 750.96 481.747 752.215C481.235 753.99 480.322 754.96 479.098 756.315Z" fill="#000001"/>
<path d="M227.621 822.96C227.422 822.975 227.223 823.005 227.023 823.01C225.231 823.075 224.631 822.56 223.4 821.395C222.974 820.015 222.922 819.87 223.338 818.495C228.337 813.03 322.822 786.96 336.705 782.665C350.27 778.465 363.778 774.13 376.814 768.48C377.358 768.45 377.96 768.395 378.501 768.475C379.803 768.655 380.434 769.45 381.224 770.395C381.532 771.68 381.664 772.11 381.012 773.365C379.93 775.44 376.266 776.985 374.206 777.82C364.646 781.69 354.55 784.615 344.697 787.655C328.108 792.78 311.465 797.585 294.794 802.425C272.305 808.95 250.111 816.485 227.621 822.96Z" fill="#000001"/>
<path d="M232.893 848.415C232.748 848.405 232.601 848.41 232.457 848.395C230.803 848.2 229.958 847.485 228.957 846.225C228.866 845.465 228.651 844.91 228.989 844.19C229.561 842.965 230.557 842.325 231.724 841.75C238.89 838.2 247.742 836.125 255.324 833.385C287.955 821.595 321.344 812.47 354.229 801.52C363.155 798.545 371.82 795.04 380.515 791.455C381.991 791.55 382.764 792.02 383.825 792.995C384.284 794.26 384.59 794.85 384.016 796.19C382.546 799.625 373.458 802.485 369.988 803.82C345.611 813.18 320.117 819.595 295.252 827.515C274.38 834.165 253.94 842.385 232.893 848.415Z" fill="#000001"/>
<path d="M247.622 868.555C245.961 868.345 245.391 867.805 244.373 866.5C244.142 865.225 243.973 864.65 244.697 863.455C245.465 862.185 247.4 861.445 248.71 860.945C254.612 858.695 260.778 857.02 266.736 854.9C293.354 845.475 320.052 836.275 346.828 827.3C359.604 822.945 371.998 816.75 384.93 813.03C386.127 813.61 387.098 814.695 387.738 815.855C388.364 816.995 388.272 817.63 387.92 818.82C381.793 823.88 261.744 865.19 247.622 868.555Z" fill="#000001"/>
<path d="M266.369 885.84C265.992 885.885 265.35 885.985 264.985 885.935C263.981 885.785 263.056 884.945 262.624 884.055C262.125 883.02 262.148 881.81 262.686 880.79C266.323 873.96 340.061 852.71 352.746 848.555C364.241 844.775 375.654 840.755 386.978 836.49C388.604 836.925 389.732 837.57 390.792 838.91C390.877 839.685 391.07 840.155 390.699 840.89C389.646 842.985 386.641 844.34 384.558 845.19C368.198 851.865 350.589 856.695 333.733 862.015C310.942 869.205 288.527 876.885 266.369 885.84Z" fill="#000001"/>
</g>
<defs>
<clipPath id="clip0_86_633">
<rect width="1024" height="1024" fill="white"/>
</clipPath>
</defs>
</svg>
