<svg width="1378" height="629" viewBox="0 0 1378 629" fill="none" xmlns="http://www.w3.org/2000/svg">
<path d="M897.996 376.935C905.175 361.97 943.044 307.905 963.676 283.168C979.292 264.443 996.232 248.09 1010.14 238.318C1015.38 234.631 1033.11 224.826 1049.53 216.529C1079.21 201.533 1084.41 198.095 1127.44 164.972C1144.99 151.457 1148.76 149.326 1168.5 141.753C1191.5 132.926 1207.41 131.714 1232.46 136.878C1243.62 139.179 1258.56 154.035 1260.62 164.881C1263.25 178.744 1249.12 224.513 1232.05 257.41C1218.55 283.435 1205.53 301.795 1181.02 329.345C1138.22 377.471 1115.32 396.041 1085.91 406.476C1064.93 413.919 1051.97 415.62 1042.17 412.219C1010.04 401.061 995.87 399.699 969.668 405.248C898.851 420.246 880.667 413.063 897.996 376.935Z" fill="#A8A4FF"/>
<path d="M946.477 471.056C896.988 449.895 847.779 422.042 837.433 409.335C830.317 400.595 831.694 394.508 842.102 388.704C861.897 377.664 950.637 352.05 981.866 348.362C994.899 346.822 997.704 345.926 996.272 343.761C990.756 335.416 992.042 325.323 1000.37 311.614C1010.04 295.687 1018.39 287.181 1035.65 275.679C1054.64 263.019 1072.17 259.987 1092.03 265.925C1103.15 269.25 1126.45 283.538 1159.99 307.602C1172.49 316.57 1185.51 325.453 1188.92 327.341C1192.33 329.229 1195.86 333.194 1196.75 336.153C1199.07 343.795 1184.93 353.247 1159.32 361.185C1130.99 369.963 1114.56 372.642 1081.16 373.93C1052.91 375.02 1051.87 375.199 1053.63 378.664C1057.64 386.558 1054.84 403.096 1046.91 418.311C1033.05 444.881 1021.09 459.435 1003.84 470.697C982.928 484.357 977.661 484.39 946.477 471.056V471.056Z" fill="#FFDDB1"/>
<path d="M1078.12 131C1076.07 131 1072.52 132.004 1067.8 133.848C1063.09 135.692 1057.2 138.378 1050.48 141.74C1043.75 145.103 1036.18 149.142 1028.1 153.697C1020.02 158.251 1011.42 163.321 1002.63 168.741C998.003 171.596 994.216 173.639 994.216 173.281C994.216 172.924 997.083 169.726 1000.59 166.175C1004.09 162.623 1008.25 158.013 1009.82 155.931C1010.74 154.702 1011.44 153.459 1011.92 152.231C1012.4 151.004 1012.66 149.791 1012.74 148.623C1012.81 147.454 1012.69 146.331 1012.4 145.28C1012.11 144.229 1011.65 143.251 1011.03 142.375C1010.41 141.5 1009.65 140.726 1008.75 140.084C1007.85 139.442 1006.82 138.931 1005.67 138.58C1004.53 138.23 1003.28 138.04 1001.93 138.038C1000.59 138.037 999.153 138.225 997.648 138.632C995.667 139.166 992.257 140.643 987.888 142.805C983.519 144.966 978.19 147.812 972.369 151.075C960.726 157.602 947.116 165.807 935.285 173.591C932.51 175.417 930.27 177.009 928.501 178.453C926.732 179.897 925.433 181.194 924.544 182.43C923.655 183.667 923.175 184.843 923.04 186.046C922.905 187.25 923.118 188.481 923.613 189.826C924.169 191.337 925.19 192.626 926.514 193.581C927.838 194.536 929.467 195.155 931.239 195.322C933.439 195.531 935.172 195.425 937.179 194.763C939.186 194.102 941.467 192.884 944.754 190.866C948.68 188.457 952.129 186.485 952.421 186.485C952.712 186.485 949.718 190.318 945.766 195.003C941.814 199.688 937.33 205.793 935.803 208.57C934.537 210.87 933.873 212.219 933.676 213.445C933.479 214.671 933.745 215.775 934.348 217.578C934.746 218.767 935.29 219.82 935.968 220.73C936.646 221.641 937.458 222.407 938.39 223.021C939.322 223.635 940.374 224.096 941.533 224.396C942.692 224.696 943.957 224.833 945.316 224.801C946.667 224.768 947.806 224.68 949.134 224.32C950.462 223.96 951.98 223.33 954.092 222.215C958.317 219.986 964.916 215.823 977.119 208.023C988.907 200.487 999.895 193.545 1001.54 192.594C1003.18 191.644 996.296 198.751 986.242 208.388C976.189 218.025 965.197 228.938 961.816 232.642C958.952 235.779 957.415 237.549 956.595 239.127C955.774 240.704 955.67 242.09 955.67 244.458C955.67 246.066 955.855 247.44 956.247 248.597C956.636 249.753 957.233 250.693 958.053 251.433C958.874 252.173 959.92 252.713 961.209 253.072C962.499 253.431 964.033 253.607 965.83 253.62C967.767 253.634 968.92 253.711 969.521 253.945C970.121 254.178 970.17 254.569 969.898 255.203C969.221 256.785 968.839 258.284 968.744 259.681C968.65 261.078 968.839 262.37 969.308 263.538C969.777 264.706 970.522 265.748 971.537 266.643C972.552 267.538 973.837 268.288 975.38 268.866C976.777 269.389 978.08 269.684 979.473 269.685C980.866 269.686 982.348 269.392 984.102 268.733C985.857 268.074 987.885 267.051 990.365 265.596C992.846 264.14 995.779 262.251 999.351 259.861C1006.06 255.375 1011.86 251.705 1012.24 251.705C1012.62 251.705 1009.81 254.682 1005.98 258.32C1001.81 262.281 999.02 265.455 997.393 268.21C996.58 269.587 996.058 270.86 995.799 272.075C995.54 273.29 995.544 274.446 995.799 275.59C996.032 276.717 996.534 277.795 997.234 278.779C997.934 279.762 998.834 280.651 999.87 281.399C1000.91 282.147 1002.08 282.754 1003.32 283.174C1004.57 283.595 1005.89 283.828 1007.21 283.828C1009.07 283.828 1010.11 283.9 1010.77 284.302C1011.43 284.703 1011.69 285.434 1011.99 286.749C1012.16 287.542 1012.63 288.363 1013.29 289.15C1013.96 289.937 1014.82 290.687 1015.78 291.34C1016.75 291.993 1017.81 292.548 1018.88 292.939C1019.96 293.33 1021.04 293.557 1022.04 293.559C1022.85 293.56 1023.49 293.78 1024.02 294.274C1024.54 294.767 1024.95 295.534 1025.3 296.627C1025.67 297.786 1026.24 298.815 1026.97 299.704C1027.7 300.592 1028.61 301.339 1029.66 301.934C1030.72 302.529 1031.92 302.971 1033.26 303.249C1034.6 303.528 1036.06 303.643 1037.64 303.582C1039.94 303.494 1041.27 303.509 1042.09 303.784C1042.91 304.058 1043.22 304.592 1043.49 305.538C1043.72 306.381 1044.25 307.171 1045 307.869C1045.75 308.568 1046.71 309.176 1047.81 309.66C1048.9 310.144 1050.13 310.504 1051.42 310.702C1052.7 310.9 1054.04 310.938 1055.36 310.78C1057.18 310.561 1058.43 310.535 1059.54 310.806C1060.66 311.076 1061.64 311.644 1062.93 312.614C1064.35 313.69 1065.63 314.446 1067.17 314.791C1068.71 315.135 1070.51 315.067 1072.98 314.491C1075.45 313.914 1078.58 312.829 1082.79 311.141C1087 309.452 1092.29 307.161 1099.05 304.171C1105.46 301.336 1110.6 299.004 1114.7 297.026C1118.8 295.048 1121.86 293.422 1124.12 292.003C1126.39 290.584 1127.84 289.372 1128.74 288.216C1129.63 287.06 1129.96 285.961 1129.96 284.771C1129.96 283.229 1131.18 280.355 1132.68 278.383C1134.17 276.41 1135.39 273.741 1135.39 272.451C1135.39 270.958 1134.72 269.037 1133.78 267.397C1132.85 265.758 1131.64 264.401 1130.58 264.036C1129.91 263.806 1129.56 263.529 1129.5 262.994C1129.43 262.459 1129.66 261.666 1130.15 260.408C1130.57 259.319 1130.71 258.195 1130.61 257.089C1130.51 255.983 1130.16 254.895 1129.59 253.883C1129.03 252.872 1128.25 251.936 1127.28 251.13C1126.31 250.324 1125.16 249.648 1123.85 249.159C1121.7 248.352 1119.26 247.924 1118.43 248.208C1117.62 248.487 1117.14 248.562 1116.96 248.467C1116.78 248.372 1116.9 248.106 1117.28 247.708C1118.04 246.912 1119.86 245.581 1122.45 244.001C1125.34 242.245 1127.49 240.453 1128.92 238.601C1129.63 237.675 1130.16 236.734 1130.52 235.776C1130.87 234.818 1131.05 233.843 1131.05 232.848C1131.05 232.167 1130.75 231.301 1130.26 230.386C1129.77 229.471 1129.09 228.507 1128.34 227.627C1127.59 226.748 1126.77 225.953 1125.99 225.378C1125.21 224.804 1124.47 224.45 1123.89 224.45C1123.2 224.45 1122.75 224.363 1122.56 224.173C1122.38 223.983 1122.45 223.691 1122.79 223.285C1123.48 222.473 1125.26 221.202 1128.2 219.368C1130.59 217.882 1132.52 216.318 1133.96 214.726C1135.4 213.133 1136.37 211.513 1136.84 209.914C1137.31 208.314 1137.28 206.737 1136.75 205.229C1136.22 203.721 1135.18 202.284 1133.62 200.966C1132.23 199.798 1130.69 199.061 1128.8 198.812C1126.91 198.563 1124.66 198.801 1121.85 199.59C1119.04 200.377 1115.67 201.712 1111.52 203.651C1107.38 205.59 1102.47 208.134 1096.57 211.341C1094.03 212.723 1091.96 213.641 1091.96 213.383C1091.96 213.125 1097.45 208.848 1104.17 203.877C1112.48 197.732 1118.27 193.248 1122.17 189.878C1124.13 188.194 1125.61 186.788 1126.7 185.591C1127.8 184.394 1128.5 183.406 1128.89 182.561C1129.35 181.571 1129.61 180.502 1129.69 179.418C1129.77 178.333 1129.65 177.232 1129.4 176.18C1129.14 175.128 1128.71 174.124 1128.13 173.231C1127.56 172.339 1126.83 171.558 1125.97 170.954C1124.86 170.166 1123.65 169.611 1122.29 169.29C1120.94 168.969 1119.44 168.884 1117.75 169.039C1116.07 169.194 1114.19 169.588 1112.06 170.227C1109.94 170.867 1107.58 171.752 1104.93 172.885L1095.76 176.804L1100.83 172.642C1103.8 170.201 1105.66 168.398 1106.77 166.638C1107.32 165.758 1107.69 164.889 1107.92 163.955C1108.15 163.021 1108.25 162.023 1108.25 160.887C1108.25 159.787 1108.03 158.721 1107.63 157.731C1107.23 156.74 1106.65 155.825 1105.92 155.021C1105.2 154.218 1104.32 153.526 1103.34 152.987C1102.35 152.448 1101.26 152.061 1100.08 151.863C1098.99 151.679 1097.61 151.753 1095.97 152.076C1094.33 152.4 1092.43 152.973 1090.29 153.788C1086.01 155.416 1080.77 158.009 1074.76 161.499C1068.45 165.158 1065.31 166.895 1065.43 166.229C1065.55 165.564 1068.94 162.497 1075.67 156.55C1081.98 150.972 1085.24 148.062 1086.92 146.04C1087.76 145.029 1088.21 144.241 1088.44 143.452C1088.68 142.664 1088.7 141.876 1088.7 140.865C1088.7 139.44 1088.42 138.112 1087.91 136.92C1087.4 135.728 1086.65 134.673 1085.71 133.796C1084.77 132.919 1083.64 132.22 1082.37 131.741C1081.09 131.261 1079.67 131.001 1078.14 131.001L1078.12 131Z" fill="#4B866F"/>
<path d="M359.101 446.438C353.909 442.574 349.702 434.381 346.9 422.682C344.541 412.832 344.302 410.006 343.827 386.408C343.352 362.781 343.139 360.268 341.047 353.667C337.89 343.707 333.711 340.013 324.517 339.057C314.632 338.03 308.873 340.545 293.803 352.471C263.8 376.215 247.16 378.742 230.322 362.114C218.594 350.532 211.643 337.539 198.441 302.524C194.125 291.079 189.878 280.483 189.003 278.976C180.217 263.854 173.423 256.03 157.886 243.138C148.452 235.31 138.883 229.949 126.466 225.537C117.697 222.42 105.646 212.799 102.267 206.215C98.9277 199.709 96.6613 188.663 96.1992 176.641C95.8399 167.294 96.1402 163.843 98.1175 154.645C101.296 139.858 105.311 132.285 115.053 122.708C126.074 111.874 131.048 109.391 148.416 106.056C181.747 99.6562 189.437 101.995 213.408 125.825C225.455 137.801 226.894 138.794 233.064 139.394C241.17 140.182 245.823 137.317 256.736 124.821C268.44 111.418 273.503 108.316 281.867 109.422C290.731 110.594 296.31 115.067 307.54 130.005C319.56 145.995 325.455 151.642 332.838 154.242C340.913 157.087 348.336 155.647 367.094 147.597C381.084 141.593 383.237 141.118 392.353 142.021C404.206 143.195 411.134 146.637 420.606 156.055C432.653 168.036 439.423 186.778 445.794 225.791C448.723 243.722 449.022 247.344 449.065 265.429C449.108 282.562 448.77 287.51 446.66 300.957C442.931 324.714 440.221 329.506 420.083 347.96C412.499 354.91 406.576 362.699 403.849 369.308C402.784 371.889 401.149 379.025 400.216 385.166C396.482 409.724 391.597 423.983 382.497 436.888C374.183 448.676 366.385 451.86 359.101 446.438Z" fill="#FF9C9C"/>
<path d="M212.887 209.009C209.153 209.2 205.493 209.507 202.1 209.918C198.707 210.33 195.584 210.847 192.922 211.459C188.553 212.464 179.99 215.405 173.892 217.994C167.795 220.583 162.093 222.948 161.222 223.249C159.553 223.827 155.934 226.336 152.118 229.38C148.301 232.424 144.289 236.004 141.832 238.718C136.862 244.209 131.964 250.509 127.312 257.301C122.66 264.092 118.251 271.376 114.256 278.833C110.262 286.29 106.681 293.922 103.684 301.411C100.687 308.899 98.2725 316.244 96.6128 323.13C95.8075 326.469 95.2037 330.138 94.8019 333.885C94.4005 337.633 94.2006 341.46 94.2022 345.118C94.2042 348.776 94.4056 352.265 94.8103 355.335C95.2145 358.405 95.8204 361.057 96.6273 363.041C97.4162 364.98 98.2409 366.693 99.1348 368.21C100.028 369.727 100.99 371.051 102.053 372.216C103.115 373.382 104.279 374.388 105.575 375.272C106.87 376.156 108.298 376.917 109.891 377.589C111.653 378.334 113.415 378.89 115.232 379.259C117.049 379.629 118.922 379.811 120.901 379.806C122.88 379.798 124.967 379.605 127.217 379.224C129.467 378.842 131.879 378.274 134.507 377.516C138.248 376.439 142.241 374.882 146.539 372.811C150.838 370.74 155.442 368.154 160.41 365.019C165.377 361.885 170.708 358.201 176.455 353.933C182.203 349.664 188.368 344.811 195.009 339.337C201.687 333.832 207.307 329.463 207.499 329.629C207.69 329.794 207.128 330.938 206.253 332.169C204.59 334.505 202.091 339.452 199.737 344.787C197.382 350.122 195.174 355.842 194.093 359.723C192.829 364.259 191.841 370.829 191.841 374.696C191.841 377.858 192.299 380.741 193.204 383.335C194.11 385.929 195.463 388.235 197.256 390.241C199.049 392.248 201.283 393.955 203.946 395.355C206.609 396.754 209.703 397.846 213.219 398.618C215.463 399.111 217.864 399.445 220.418 399.623C222.973 399.8 225.681 399.822 228.539 399.686C234.254 399.415 240.569 398.517 247.451 397.003C254.333 395.488 261.783 393.355 269.77 390.61C277.757 387.865 286.281 384.508 295.312 380.546C300.761 378.156 306.149 375.627 311.436 372.989C316.722 370.35 321.908 367.6 326.955 364.767C332.003 361.934 336.913 359.017 341.646 356.042C346.38 353.068 350.936 350.034 355.279 346.972C359.622 343.909 363.751 340.816 367.627 337.72C371.504 334.623 375.127 331.523 378.462 328.445C381.796 325.367 384.843 322.312 387.56 319.307C390.277 316.302 392.665 313.346 394.689 310.466C396.991 307.191 398.851 303.973 400.261 300.844C401.671 297.715 402.632 294.676 403.14 291.756C403.647 288.837 403.699 286.039 403.291 283.393C402.885 280.746 402.018 278.251 400.687 275.94C399.275 273.49 397.611 271.271 395.665 269.259C393.719 267.248 391.492 265.446 388.953 263.836C386.414 262.225 383.564 260.805 380.373 259.558C377.181 258.311 373.649 257.238 369.746 256.317C365.497 255.315 360.389 254.68 354.73 254.396C349.07 254.113 342.858 254.18 336.401 254.578C329.945 254.975 323.244 255.703 316.604 256.744C309.965 257.785 303.387 259.139 297.177 260.785C296.782 260.89 296.487 260.932 296.309 260.865C296.129 260.799 296.066 260.624 296.121 260.299C296.233 259.648 296.825 258.393 297.959 256.184C298.732 254.678 299.336 253.067 299.767 251.423C300.198 249.778 300.455 248.098 300.536 246.455C300.62 244.813 300.536 243.206 300.249 241.705C299.973 240.204 299.52 238.809 298.882 237.59C298.094 236.085 296.92 234.554 295.415 233.023C293.911 231.492 292.076 229.959 289.967 228.452C287.858 226.945 285.475 225.464 282.875 224.031C280.275 222.598 277.459 221.213 274.48 219.903C268.523 217.284 261.922 214.96 255.127 213.131C251.73 212.217 248.283 211.425 244.845 210.782C241.407 210.14 237.978 209.646 234.612 209.325C228.115 208.706 220.354 208.627 212.886 209.009L212.887 209.009Z" fill="#7F95FF"/>
<path d="M320.21 176.049C317.558 176.225 314.953 176.876 312.449 178.021C310.058 179.113 306.459 180.759 304.454 181.678C302.448 182.596 296.893 186.18 292.11 189.642C288.146 192.51 284.307 196.067 280.594 200.309C276.881 204.552 273.294 209.478 269.836 215.088C266.378 220.698 263.048 226.989 259.849 233.96C256.65 240.93 253.581 248.58 250.646 256.904C248.988 261.606 247.569 266.077 246.387 270.314C245.206 274.552 244.263 278.556 243.559 282.328C242.855 286.1 242.39 289.639 242.163 292.945C241.936 296.251 241.945 299.322 242.196 302.161C242.448 304.999 242.934 307.605 243.661 309.977C244.387 312.348 245.352 314.485 246.556 316.388C247.759 318.291 249.2 319.96 250.88 321.394C252.56 322.828 254.479 324.028 256.636 324.993C259.534 326.288 265.159 328.779 269.138 330.527C273.164 332.295 276.099 334.001 278.305 335.969C279.408 336.952 280.329 338 281.113 339.155C281.898 340.31 282.545 341.572 283.102 342.979C283.711 344.522 284.138 346.88 284.384 349.932C284.629 352.984 284.695 356.728 284.583 361.039C284.47 365.35 284.183 370.227 283.72 375.546C283.257 380.865 282.622 386.625 281.814 392.701C280.91 399.502 280.217 405.798 279.734 411.578C279.251 417.357 278.979 422.62 278.918 427.355C278.856 432.091 279.006 436.3 279.365 439.968C279.726 443.637 280.298 446.765 281.08 449.344C282.315 453.417 283.91 457.135 285.836 460.47C287.763 463.805 290.023 466.756 292.583 469.295C295.144 471.833 298.006 473.961 301.142 475.646C304.278 477.331 307.689 478.575 311.343 479.349C313.716 479.852 316.416 480.056 319.307 479.987C322.197 479.917 325.279 479.574 328.42 478.983C331.56 478.391 334.759 477.553 337.881 476.49C341.004 475.427 344.051 474.14 346.888 472.656C351.025 470.492 355.64 467.54 360.576 463.94C365.512 460.34 370.768 456.092 376.188 451.332C381.609 446.573 387.192 441.303 392.781 435.661C398.37 430.019 403.967 424.005 409.41 417.757C415.821 410.399 421.801 402.744 427.252 394.978C432.702 387.212 437.623 379.332 441.915 371.52C444.06 367.615 446.048 363.726 447.866 359.877C449.685 356.029 451.333 352.221 452.799 348.475C454.265 344.728 455.549 341.044 456.638 337.445C457.726 333.847 458.62 330.333 459.307 326.928C460.249 322.256 460.944 318.087 461.393 314.262C461.841 310.436 462.042 306.955 461.993 303.654C461.944 300.354 461.644 297.234 461.092 294.138C460.54 291.042 459.735 287.969 458.675 284.756C457.525 281.271 455.799 277.699 453.708 274.27C451.616 270.841 449.159 267.555 446.546 264.649C443.933 261.743 441.165 259.215 438.451 257.299C435.737 255.383 433.076 254.081 430.68 253.622C428.174 253.143 425.065 253.39 421.613 254.236C418.161 255.082 414.367 256.527 410.491 258.441C406.615 260.356 402.658 262.739 398.879 265.464C395.099 268.19 391.499 271.257 388.338 274.536C385.158 277.835 381.46 282.711 377.529 288.726C373.599 294.74 369.435 301.894 365.326 309.749C362.727 314.718 360.336 318.944 358.076 322.519C355.816 326.094 353.686 329.016 351.61 331.373C349.533 333.73 347.509 335.525 345.46 336.842C343.411 338.159 341.336 338.999 339.158 339.453C336.778 339.95 334.982 339.967 333.396 339.366C331.811 338.765 330.436 337.545 328.899 335.564C328.131 334.573 327.503 333.449 327.02 332.176C326.538 330.902 326.2 329.479 326.009 327.891C325.819 326.303 325.773 324.55 325.88 322.616C325.987 320.682 326.245 318.567 326.654 316.255C327.473 311.63 328.903 306.217 330.968 299.888C333.033 293.56 335.732 286.316 339.088 278.029C343.159 267.979 346.426 259.693 349.012 252.737C351.597 245.782 353.501 240.158 354.847 235.437C356.193 230.716 356.981 226.898 357.334 223.551C357.686 220.205 357.603 217.331 357.205 214.499C356.798 211.591 356.264 208.934 355.565 206.455C354.866 203.975 354.002 201.673 352.939 199.473C351.876 197.273 350.614 195.174 349.116 193.105C347.618 191.036 345.884 188.995 343.878 186.909C341.433 184.365 338.872 182.252 336.25 180.584C333.627 178.916 330.942 177.695 328.251 176.934C325.56 176.173 322.862 175.873 320.21 176.049Z" fill="#A37AFF"/>
<path d="M1219.94 136.796C1219.04 136.98 1218.18 137.128 1217.28 136.83C1216.45 136.555 1215.91 135.961 1215.54 135.229C1214.85 133.856 1214.52 132.286 1214.34 130.781C1213.91 127.346 1213.71 111.387 1214.83 108.598C1215.36 107.27 1216.51 106.56 1217.81 106C1218.35 106 1218.89 106.002 1219.42 106.14C1220.96 106.545 1222.08 107.574 1222.79 108.909C1223.47 110.173 1223.8 111.596 1223.93 113.002C1224.17 115.793 1223.73 118.533 1223.66 121.314L1223.5 128C1223.48 129.134 1223.58 130.298 1223.47 131.426C1223.41 132.171 1223.25 132.907 1222.98 133.612C1222.39 135.188 1221.49 136.064 1219.94 136.796Z" fill="black"/>
<path d="M1194.84 133.046C1196.09 127.379 1196.16 121.415 1197.47 115.738C1197.95 113.683 1198.7 111.182 1200.58 110.015C1201.58 109.95 1202.36 110.09 1203.26 110.582C1204.5 111.27 1205.61 112.695 1205.9 114.105C1206.15 115.338 1205.88 117.159 1205.72 118.406L1202.23 145.114C1202.08 146.201 1201.96 147.743 1201.37 148.682C1201.33 148.749 1201.28 148.814 1201.24 148.881C1200.47 150.047 1199.58 151.08 1198.23 151.587C1197.19 151.982 1196.02 151.956 1195.02 151.462C1192.27 150.111 1190.87 145.438 1189.95 142.704C1189.61 144.351 1189.23 145.836 1188.59 147.396C1188.92 149.121 1188.91 150.601 1188.13 152.215C1187.34 153.842 1186.17 155.281 1184.39 155.855C1183.56 156.122 1182.71 156.016 1181.97 155.573C1178.92 153.766 1176.91 143.905 1175.88 140.293C1175.03 136.938 1173.95 133.596 1172.9 130.296C1172.27 128.308 1171.47 126.22 1171.14 124.159C1170.96 123.077 1170.91 121.896 1171.23 120.837C1171.63 119.551 1172.45 119.045 1173.6 118.471C1174.27 118.565 1174.96 118.65 1175.6 118.915C1176.6 119.333 1177.24 120.147 1177.75 121.072C1178.62 122.64 1178.97 124.436 1179.52 126.129C1180.71 129.702 1181.87 133.398 1183.23 136.901C1184.13 134.035 1184.62 130.843 1186.27 128.276C1187.25 126.758 1188.16 126.206 1189.86 125.813C1190.38 125.958 1190.94 126.078 1191.42 126.323C1193.67 127.466 1194.21 130.835 1194.84 133.046Z" fill="black"/>
<path d="M1155.48 165C1152.7 165.018 1150.28 164.45 1148.02 162.734C1144.2 159.821 1141.92 155.02 1141.25 150.289C1140.27 143.315 1142.19 135.352 1146.37 129.722C1148.39 126.998 1150.78 124.528 1154.22 124.024C1156.64 123.816 1159.02 124.991 1160.83 126.557C1165.11 130.27 1167.55 136.841 1167.93 142.429C1168.37 148.761 1166.78 156.197 1162.59 161.074C1160.75 163.22 1158.34 164.81 1155.48 165ZM1155.11 132.725C1153.09 133.098 1151.72 134.559 1150.6 136.228C1147.94 140.184 1147.15 145.334 1148.05 150.006C1148.52 152.457 1149.7 154.685 1151.79 156.086C1152.45 156.532 1153.15 156.803 1153.91 157.023C1155.36 157.044 1156.49 156.6 1157.51 155.541C1160.27 152.685 1160.85 147.801 1160.73 144.001C1160.63 140.757 1159.7 135.978 1157.2 133.717C1156.6 133.17 1155.93 132.783 1155.11 132.725Z" fill="black"/>
<path d="M1126.93 173.624C1126.82 173.827 1126.73 174.026 1126.6 174.218C1126.02 175.1 1125.11 175.718 1124.07 175.934C1123.14 176.118 1122.19 175.912 1121.4 175.395C1118.54 173.516 1117.51 166.614 1116.48 163.455C1116.29 162.867 1115.94 162.34 1115.75 161.752C1114.28 157.08 1113.41 152.185 1112.46 147.389C1111.69 143.508 1111.69 139.163 1114.02 135.779C1115.76 133.256 1117.81 131.593 1120.9 131C1122.42 131.059 1123.9 131.158 1125.36 131.579C1128.89 132.596 1131.62 135.44 1133.3 138.576C1135.27 142.238 1135.46 146.695 1134.21 150.614C1132.69 155.361 1128.67 159.141 1124.29 161.409C1125.46 164.477 1127.83 170.458 1126.93 173.624ZM1121.61 139.739C1120.83 140.162 1120.51 140.689 1120.27 141.534C1119.45 144.427 1121 150.173 1121.82 153.193C1122.7 152.715 1123.43 152.202 1124.19 151.573C1125.9 150.179 1126.94 148.778 1127.15 146.515C1127.32 144.676 1126.87 142.565 1125.59 141.162C1124.84 140.344 1123.73 139.711 1122.59 139.694C1122.27 139.689 1121.94 139.714 1121.61 139.739Z" fill="black"/>
<path d="M1220.21 148C1219.34 147.976 1218.5 147.936 1217.73 147.473C1216.93 147.001 1216.4 146.244 1216.16 145.315C1215.8 143.882 1216.08 142.124 1216.78 140.855C1217.76 139.094 1219.28 138.458 1221.06 138C1221.59 137.996 1222.05 138.088 1222.53 138.321C1223.63 138.848 1224.4 139.626 1224.77 140.859C1225.16 142.124 1225.05 143.395 1224.47 144.567C1223.53 146.447 1222.06 147.413 1220.21 148Z" fill="black"/>
<path d="M244.338 387.335C245.762 379.57 246.163 371.551 246.146 363.672C246.133 359.053 245.728 354.045 246.351 349.478C246.625 347.495 247.501 347.136 248.952 346C254.442 347.39 265.627 366.43 270.455 371.368C277.871 368.89 299.479 355.828 305.449 356.475C306.024 356.868 306.403 356.955 306.63 357.659C308.346 362.995 293.832 379.784 290.647 384.246C288.974 386.593 287.562 389.027 286.224 391.574L286.503 392.077C290.024 398.483 309.035 418.428 309 423.182C308.59 423.894 308.325 424.305 307.562 424.703C304.555 426.28 290.512 420.254 286.765 418.908C284.316 417.86 281.741 417.082 279.218 416.234C277.335 421.255 270.259 447.055 267.501 448.803C266.922 449.175 266.468 448.925 265.832 448.821C260.677 444.927 256.843 422.929 254.808 415.5C248.146 413.149 220.891 412.48 217.741 408.801C216.948 407.87 216.969 407.564 217.022 406.423C219.17 402.42 239.357 390.748 244.338 387.335ZM274.943 375.362C273.741 375.821 272.246 376.175 271.619 377.394C270.691 379.207 270.821 380.794 271.497 382.651C271.815 383.516 272.094 384.062 272.821 384.661C274.412 382.144 275.893 379.727 276.368 376.729L276.041 375.707L274.943 375.362ZM255.235 401.306C254.163 403.238 252.242 405.899 252.407 408.128L253.03 409.102C253.654 408.949 254.791 408.875 255.157 408.324C256.137 406.852 255.941 403.325 255.457 401.651C255.418 401.52 255.309 401.42 255.235 401.306ZM243.789 401.621L239.453 406.305L239.701 407.101C241.144 407.267 241.78 407.52 243.105 406.869C243.976 405.475 243.911 403.242 243.789 401.621ZM277.218 402.346L276.25 407.822C280.534 408.761 284.656 409.998 288.834 411.322C288.207 409.587 284.59 407.839 282.908 407.044C281.945 406.576 280.961 406.161 279.954 405.798C279.122 404.588 278.372 403.255 277.218 402.346Z" fill="#010101"/>
</svg>
