<svg width="500" height="500" viewBox="0 0 500 500" fill="none" xmlns="http://www.w3.org/2000/svg">
<g clip-path="url(#clip0_55_297)">
<g clip-path="url(#clip1_55_297)">
<path d="M161.208 256.775C160.74 237.776 159.816 218.789 158.439 199.833C158.067 194.09 158.413 185.883 157.217 180.522C156.233 176.114 153.692 172.378 151.193 168.703C146.073 161.175 141.854 153.371 141.713 144.006C141.6 136.481 144.615 129.571 149.875 124.236C160.487 113.47 181.383 105.508 196.333 103.033C200.655 102.318 206.856 102.538 210.711 101.077C214.601 99.6016 219.707 95.8547 224.157 93.965C229.979 91.4929 236.689 90.2013 242.063 87.8779C244.772 86.707 247.311 85.0694 249.968 83.777C253.859 81.8857 257.915 80.2297 261.894 78.5338C268.972 75.5171 276.322 73.2689 283.426 70.3419C290.793 67.3065 298.081 63.9355 305.624 61.3571C320.515 56.2675 336.358 54.9719 351.993 54.8001C368.457 54.9773 384.196 57.1564 400.13 61.3705C425.307 68.0295 450.162 79.8214 469.484 97.5021C474.375 101.978 478.999 106.627 482.33 112.42C486.122 119.004 488.064 126.346 487.607 133.962C487.147 141.583 483.237 147.496 480.521 154.407C478.293 160.073 476.947 165.878 476.144 171.898C475.191 179.043 475.223 186.296 474.854 193.486C474.177 205.662 473.257 217.823 472.098 229.962C471.183 240.155 470.602 250.383 467.943 260.304C472.928 262.207 485.049 264.628 487.516 269.72C488.19 271.109 488.394 273.068 487.861 274.532C484.602 283.514 433.425 313.879 422.893 320.699C415.489 325.497 408.487 330.945 401 335.62C393.559 340.265 385.799 344.402 378.384 349.095C363.494 358.522 349.098 368.591 333.886 377.541C315.035 388.632 295.606 398.733 276.434 409.257C267.109 414.379 258.084 420.024 248.692 425.015C244.186 427.41 239.545 429.502 234.893 431.595C225.956 435.614 216.608 440.475 206.984 442.53C201.153 443.775 195.082 444.056 189.152 444.543C184.117 444.955 178.933 445.634 173.878 445.46C166.462 445.206 159.02 442.415 152.141 439.804C120.26 426.31 89.0423 411.299 58.5959 394.819C52.8414 391.691 46.9459 388.959 41.2898 385.625C34.3577 381.536 16.5503 370.009 12.8286 363.78C11.1337 360.943 11.0519 356.742 11.9327 353.598C14.2098 345.464 27.5692 340.219 34.4727 336.454C35.3158 334.64 36.0916 333.227 37.62 331.887C41.3875 328.582 46.8498 326.129 51.3093 323.862C58.9165 319.996 66.6391 316.391 74.2998 312.637C73.5295 308.693 72.1268 296.593 73.8768 293.291C74.8096 291.531 76.5906 289.829 78.34 288.9C81.4645 287.236 85.0667 286.07 88.368 284.78L107.888 277.237C125.634 270.4 143.282 263.122 161.208 256.775ZM348.643 61.4749C336.163 62.028 318.621 62.8987 306.834 67.314C320.566 66.3598 334.239 67.57 347.749 70.1527C373.822 75.1377 419.936 91.8669 439.842 109.102C441.42 110.451 442.924 111.891 444.337 113.413C448.645 118.028 452.672 123.343 455.139 129.198C456.014 131.268 456.378 133.774 457.528 135.666C458.24 135.443 458.46 135.181 458.824 134.521C462.832 127.22 462.35 109.759 459.707 101.974C458.925 99.6751 458.056 96.921 456.512 95.0051C452.948 90.578 440.015 83.7722 434.426 81.0488C408.018 68.1812 378.202 59.9732 348.643 61.4749ZM309.167 73.7819C296.663 74.2798 285.246 76.5053 273.496 80.8162C268.83 82.5285 264.262 84.6057 259.563 86.205C268.779 86.4153 278.042 85.1927 287.274 85.4183C295.893 85.6626 304.495 86.3489 313.044 87.4746C318.631 88.1666 324.192 88.8307 329.714 89.9484C349.438 93.9401 368.272 101.971 385.612 112.054C390.621 114.966 395.771 117.782 400.513 121.115C407.376 126.163 413.723 131.931 417.94 139.442C419.15 141.598 419.95 144.767 421.545 146.575C422.593 145.887 423.022 143.699 423.278 142.494C425.7 131.03 423.345 120.445 416.921 110.723C413.959 106.242 409.916 100.637 405.602 97.4484C394.878 89.5232 360.604 79.4738 347.268 76.8074C334.718 74.3839 321.941 73.3693 309.167 73.7819ZM273.079 92.0136C260.072 92.6218 246.185 93.063 233.726 97.1634C240.207 97.3536 246.669 97.1768 253.147 97.587C262.368 98.1711 271.548 99.467 280.686 100.785C314.794 105.704 350.495 114.953 375.312 140.495C380.126 145.888 383.953 151.73 386.783 158.391C387.198 159.371 387.934 161.919 388.983 162.082C390.184 161.425 390.562 159.775 390.918 158.537C391.79 155.494 392.111 152.398 392.341 149.254C393.01 140.022 391.894 131.683 387.287 123.488C386.018 121.231 384.517 118.989 382.532 117.298C380.423 115.507 377.745 114.168 375.323 112.838C364.304 106.803 352.619 102.073 340.503 98.7445C322.048 93.6795 292.077 90.7659 273.079 92.0136ZM238.088 103.501C236.716 103.61 235.322 103.675 233.962 103.886C243.341 104.934 252.513 107.375 261.755 109.2C285.444 113.88 318.037 118.639 334.081 138.719C344.942 152.31 345.055 167.281 343.125 183.733C342.499 189.09 341.359 194.65 339.647 199.776C338.312 203.767 336.305 207.627 335.78 211.843C334.566 221.584 334.327 231.551 333.95 241.349L332.425 282.321C332.117 291.156 331.604 299.984 330.886 308.792C330.528 312.873 329.581 317.063 329.417 321.125C332.709 320.221 335.015 318.867 337.196 316.209C339.128 313.499 340.153 310.625 340.814 307.377C341.638 303.344 341.887 299.162 342.218 295.063C342.828 287.49 343.249 279.905 343.481 272.311L345.057 225.42C345.261 220.092 345.071 214.333 346.018 209.088C346.869 204.361 349.828 201.322 352.499 197.556C359.183 188.121 360.633 175.202 358.72 164.032C355.916 147.662 346.034 134.005 332.591 124.553C312.45 110.39 284.834 106.277 260.859 104.276C253.38 103.652 245.585 102.913 238.088 103.501ZM209.786 108.306C202.955 108.614 196.34 109.257 189.659 110.763C209.654 111.061 229.299 114.239 248.938 117.791C264.73 120.647 281.055 123.407 295.828 129.959C301.876 132.641 307.621 136.384 312.252 141.132C322.685 151.822 326.835 165.788 326.573 180.423C326.469 186.416 326.14 192.911 323.587 198.421C320.967 204.077 316.844 207.078 316.194 213.79C315.244 223.63 315.246 233.634 315.11 243.512L314.545 289.037C314.404 299.221 314.452 309.477 313.638 319.635C313.475 321.133 312.82 323.761 313.299 325.125C313.751 325.54 313.871 325.666 314.535 325.642C316.793 325.559 320.911 321.336 322.094 319.519C323.207 317.81 323.943 315.69 324.36 313.705C325.112 310.133 325.206 306.323 325.463 302.681C325.939 295.924 326.305 289.163 326.56 282.396C327.081 266.836 327.718 251.282 328.47 235.733C328.845 227.714 328.89 219.399 329.955 211.443C330.688 205.971 332.968 201.189 334.627 195.994C336.332 190.649 337.177 184.986 337.632 179.403C338.226 172.129 338.108 164.437 336.385 157.317C333.667 146.093 325.179 138.012 315.581 132.251C309.502 128.601 302.895 125.958 296.174 123.746C285.363 120.188 274.144 117.925 263.026 115.577C245.751 111.928 227.544 107.687 209.786 108.306ZM185.387 116.593C173.772 117.33 161.36 120.196 153.32 129.297C149.598 133.51 147.346 138.832 147.696 144.512C148.193 152.557 152.104 159.516 156.574 166.006C159.061 169.617 161.549 173.131 162.643 177.445C163.676 181.514 163.697 185.883 163.904 190.061C164.277 197.578 164.358 205.111 164.745 212.624C165.46 226.524 167.007 240.328 167.312 254.26C172.944 252.785 178.792 251.383 184.642 252.392C188.213 253.01 191.778 254.541 195.188 255.761C202.019 258.201 208.785 260.834 215.644 263.192L261.525 278.481C269.456 281.05 277.301 283.867 285.056 286.931C288.325 288.256 291.841 289.588 294.881 291.386C296.834 292.545 298.616 293.883 299.205 296.179C300.441 301.016 297.974 308.407 297.126 313.36C296.302 317.454 295.398 321.534 294.416 325.593C296.642 326.653 298.86 327.758 301.15 328.676C302.879 328.135 304.715 327.616 305.541 325.818C306.216 324.355 306.323 322.233 306.556 320.641C307.907 311.353 308.231 301.854 308.522 292.481C308.873 279.875 309.1 267.264 309.199 254.653C309.376 242.171 309.491 229.657 310.021 217.185C310.168 213.76 310.221 210.244 311.372 206.976C312.231 204.536 313.695 202.511 315.155 200.405C318.934 194.956 320.124 190.108 320.518 183.514C320.994 175.484 320.448 167.302 317.307 159.813C311.84 146.781 300.958 138.941 288.218 133.818C277.398 129.465 265.504 127.063 254.067 124.9C243.122 122.755 232.11 120.957 221.05 119.51C209.366 117.919 197.213 115.967 185.387 116.593ZM472.829 156.389C470.57 156.85 462.192 160.474 461.004 162.412C460.788 162.765 460.801 162.796 460.705 163.144L461.146 163.777C464.076 163.505 470.849 160.591 472.799 158.432C473.267 157.916 473.401 157.591 473.417 156.908C473.235 156.733 473.053 156.504 472.829 156.389ZM450.569 165.698C446.087 167.837 441.677 170.126 437.179 172.226C433.928 173.743 430.474 175.055 427.324 176.743C425.732 177.597 423.578 178.655 422.532 180.158L422.663 180.587L423.447 180.453C428.534 178.875 449.694 171.33 451.85 167.132C452.016 166.808 451.998 166.785 452.043 166.475C451.754 165.999 451.655 165.742 451.037 165.678C450.882 165.662 450.724 165.691 450.569 165.698ZM413.729 181.724C410.957 182.896 408.324 184.349 405.597 185.613C402.223 187.176 388.178 192.68 386.684 195.433C386.642 195.514 386.618 195.605 386.583 195.691L386.826 196.116C387.147 196.135 387.511 196.183 387.832 196.167C393.457 194.861 411.826 187.379 414.834 183.183C414.906 182.515 414.871 182.557 414.448 182.026L413.729 181.724ZM374.499 199.732C370.012 200.966 356.512 205.49 354.238 209.333C354.206 210.046 354.192 210.036 354.639 210.592C355.407 210.703 355.822 210.653 356.553 210.455C361.018 208.871 373.945 204.063 376.757 200.542L376.792 199.952C376.051 199.505 375.35 199.62 374.499 199.732ZM178.088 257.056C173.526 257.551 168.984 259.1 164.655 260.588C156.973 263.226 149.465 266.298 141.895 269.234C132.137 272.947 122.4 276.718 112.685 280.541C102.847 284.429 92.7272 287.902 83.0133 292.061C82.0291 292.483 80.635 292.962 79.9961 293.869C79.2862 294.873 79.7105 296.24 80.0378 297.305C80.1012 297.514 80.1772 297.717 80.2516 297.921C85.1544 302.14 91.2295 305.185 96.8653 308.332C110.51 315.947 124.609 322.848 138.659 329.682C148.424 334.49 158.271 339.133 168.194 343.607C173.743 346.09 179.365 348.758 185.177 350.561C186.803 351.064 188.472 351.471 190.188 351.326C191.021 351.257 191.904 351.067 192.712 350.861C199.057 349.071 205.076 345.876 210.963 342.957C220.711 338.025 230.415 333.008 240.073 327.905L266.855 314.168C272.236 311.404 277.761 308.763 282.942 305.635C284.89 304.46 290.102 301.099 291.084 299.242C291.437 298.576 291.496 298.094 291.28 297.372C290.592 295.106 286.998 292.842 284.882 291.927C281.759 290.573 278.216 289.741 274.957 288.769C270.325 287.386 265.71 285.952 261.11 284.467C243.926 278.941 226.777 273.306 209.665 267.561C204.499 265.795 199.295 264.072 194.197 262.113C190.04 260.518 185.768 258.439 181.47 257.31C180.299 257 179.288 256.922 178.088 257.056ZM465.845 265.691C464.477 267.489 462.995 269.581 461.018 270.756C455.883 273.814 450.117 276.003 444.744 278.623C440.414 280.734 436.31 283.311 431.945 285.331C418.681 291.475 404.981 296.786 391.643 302.807C383.492 306.486 375.556 310.625 367.438 314.371C362.581 316.614 357.583 318.567 352.67 320.681C349.716 321.952 346.864 323.72 343.869 324.815C340.626 326 337.183 326.45 333.779 326.913C330.565 327.349 327.108 327.549 324.034 328.585C321.527 329.428 319.142 330.787 316.6 331.491C312.702 332.572 309.451 332.585 305.584 334.292C305.937 336.048 305.978 337.691 305.908 339.478C305.745 343.674 303.679 363.244 301.763 365.923C298.218 370.881 241.534 403.791 232.973 408.452C225.41 412.57 197.516 427.402 190.457 428.298C186.176 428.841 179.62 428.065 175.424 426.832C163.644 423.367 152.159 418.157 140.746 413.645C118.573 405.053 96.5666 396.033 74.7411 386.591C68.1774 383.821 61.6421 380.988 55.1359 378.084C50.575 376.053 45.0485 374.105 41.1961 370.886C36.0578 366.594 35.5361 349.494 33.9994 342.55C28.9459 345.014 20.7361 348 18.6955 353.812C17.9886 355.827 18.1721 357.874 19.1127 359.779C19.9981 361.569 21.4114 363.065 22.8331 364.446C27.3878 368.882 32.4231 372.216 37.7059 375.681C47.6731 382.221 57.25 387.498 67.6896 393.176C90.5199 405.591 113.792 417.822 137.912 427.554C144.427 430.182 151.178 431.913 157.84 434.099C160.552 434.987 163.058 436.296 165.688 437.382C169.3 438.875 173.641 438.95 177.489 438.905C193.267 438.72 209.182 436.205 223.837 430.254C234.522 425.917 243.953 418.992 254.067 413.554C268.466 405.813 283.236 398.749 297.589 390.941C306.325 386.189 314.727 380.87 323.354 375.933C336.457 368.524 349.475 360.97 362.407 353.269C366.806 350.682 371.307 348.247 375.663 345.587C381.895 341.785 387.618 337.174 393.727 333.182C400.93 328.475 408.714 324.809 415.941 320.221C422.749 315.899 429.018 310.748 435.798 306.36C441.57 302.625 447.62 299.328 453.357 295.547C459.653 291.397 465.585 286.792 471.673 282.353C474.568 280.239 478.143 278.374 480.612 275.768C481.241 275.102 481.827 274.301 481.851 273.346C481.878 272.3 481.209 271.43 480.468 270.775C477.099 267.797 470.225 266.36 465.845 265.691ZM74.645 318.224C68.9031 320.745 63.2778 323.555 57.6404 326.3C53.4221 328.355 48.9449 330.292 45.0271 332.874C43.6718 333.768 41.6232 335.216 41.057 336.776C40.6313 337.948 40.9909 339.157 41.5879 340.203C43.428 343.428 47.431 345.686 50.6318 347.315C57.7542 350.946 65.4529 353.735 72.8648 356.732C88.6188 362.996 104.41 369.169 120.237 375.245L158.102 390.254C165.722 393.189 173.664 396.384 181.583 398.359C184.282 399.033 186.955 399.028 189.622 398.217C195.311 396.491 200.757 393.577 206.034 390.875C213.986 386.802 221.805 382.497 229.682 378.285L257.832 363.218C262.317 360.812 266.93 358.527 271.332 355.98C276.509 353.189 297.38 343.007 298.539 337.677C298.686 336.998 298.48 336.487 298.047 335.976C296.066 333.645 291.793 331.82 289.093 330.479C280.37 334.975 271.918 340.115 263.368 344.939C255.237 349.528 246.955 353.844 238.819 358.423C234.428 360.895 230.342 364.015 225.861 366.295C224.021 367.231 222.01 367.127 220.22 368.01C212.22 371.962 204.435 377.282 195.683 379.414C191.893 380.337 188.45 379.973 184.765 378.785C170.978 374.341 156.86 367.245 143.818 360.807C128.721 353.462 113.779 345.801 99.0035 337.83C94.6363 335.472 90.2812 333.091 85.9384 330.688C83.9428 329.594 81.56 328.582 79.7392 327.228C78.5549 326.348 77.5849 325.147 76.9168 323.835C76.2639 322.551 75.7228 318.963 75.0694 318.246L74.645 318.224Z" fill="#2B2B2B"/>
<path d="M194.172 334.038C191.115 333.779 188.251 333.297 185.316 332.377C180.722 330.94 176.223 328.952 171.744 327.178C161.141 323.009 150.674 318.5 140.36 313.66C136.079 311.647 131.086 309.731 127.326 306.858C124.882 304.99 122.853 302.229 122.466 299.111C122.184 296.84 122.591 295.146 124.023 293.35C128.203 288.106 151.558 275.254 158.543 271.272C162.269 269.148 166.005 266.603 169.93 264.896C172.238 263.893 174.485 263.502 176.965 263.21C179.603 262.961 182.105 262.919 184.684 263.633C193.366 266.036 202.486 270.839 210.98 274.186C221.584 278.369 233.283 281.186 243.152 286.985C245.432 288.323 247.49 290.784 248.092 293.398C248.518 295.242 247.988 297.03 246.971 298.581C245.66 300.586 243.653 302.162 241.784 303.615C237.214 307.171 232.165 309.956 227.432 313.269C219.044 319.142 210.939 325.532 202.056 330.661C199.531 332.12 197.028 333.396 194.172 334.038ZM179.376 267.505C176.847 267.727 174.398 268.04 172.032 269.011C166.965 271.088 162.044 274.103 157.317 276.857C149.426 281.451 141.838 286.059 134.358 291.303C132.342 292.716 129.827 293.998 128.276 295.943C127.615 296.773 127.378 297.693 127.526 298.742C127.721 300.128 128.487 300.805 129.567 301.602C132.182 303.534 135.496 304.896 138.41 306.347C150.553 312.399 162.933 317.705 175.516 322.765C180.728 324.86 186.162 327.453 191.659 328.663C193.632 328.949 195.307 328.443 197.09 327.608C199.752 326.359 202.332 324.48 204.781 322.851C210.198 319.247 215.489 315.458 220.855 311.778C226.912 307.626 233.346 303.874 239.231 299.499C240.622 298.466 242.421 297.34 242.722 295.494C242.884 294.496 242.772 293.489 242.147 292.665C239.596 289.305 209.406 278.219 203.749 275.91C197.361 273.301 190.909 270.1 184.371 267.965C183.264 267.601 182.199 267.497 181.043 267.47C180.486 267.457 179.931 267.454 179.376 267.505Z" fill="#2B2B2B"/>
</g>
</g>
<defs>
<clipPath id="clip0_55_297">
<rect width="500" height="500" fill="white"/>
</clipPath>
<clipPath id="clip1_55_297">
<rect width="548" height="548" fill="white" transform="translate(-24 -24)"/>
</clipPath>
</defs>
</svg>
