<svg width="200" height="200" viewBox="0 0 200 200" fill="none" xmlns="http://www.w3.org/2000/svg">
<path d="M52.3438 71.1037C51.9273 71.1105 48.8136 70.6424 36.0908 70.9105C27.6068 71.0893 21.8999 70.9829 20.0245 72.3254" stroke="black" stroke-width="2" stroke-linecap="round"/>
<path d="M180.037 73.0155C178.971 70.4221 176.309 70.9392 173.115 70.9376C169.931 70.9359 160.261 71.133 154.014 70.9388C149.925 70.8116 136.757 70.9572 134.087 70.94C124.752 70.8797 122.206 71.0705 112.006 70.9414C108.432 70.8961 99.8419 71.1561 94.7723 70.9425C92.2846 70.8376 83.833 71.0012 76.4613 70.9436C69.9238 70.8926 65.8349 70.7768 59.2273 70.9447C51.9925 71.1286 51.0405 70.8922 47.9176 70.9454C40.588 71.0704 38.6035 70.9044 36.0692 70.9462C33.535 70.9879 31.9175 70.8997 29.068 70.9466C24.7851 71.0172 18.8953 70.9473 19.4337 72.5639" stroke="black" stroke-width="2" stroke-linecap="round"/>
</svg>
