<svg width="200" height="200" viewBox="0 0 200 200" fill="none" xmlns="http://www.w3.org/2000/svg">
<path d="M18.9668 96.6885C20.0382 99.2808 22.7138 98.7637 25.9242 98.7653C29.1247 98.7668 38.8449 98.5693 45.124 98.7632C49.2341 98.8901 62.4704 98.7438 65.1536 98.7609C74.5368 98.8207 77.0965 98.6299 87.3487 98.7585C90.9416 98.8035 99.576 98.5433 104.672 98.7566C107.172 98.8612 115.668 98.6973 123.077 98.7545C129.649 98.8052 133.759 98.9208 140.4 98.7526C147.673 98.5684 148.629 98.8047 151.768 98.7513C159.136 98.6261 161.131 98.7919 163.678 98.75C166.225 98.7082 167.851 98.7963 170.715 98.7492C175.02 98.6785 179.443 98.5081 180.526 96.4832" stroke="black" stroke-width="2" stroke-linecap="round"/>
<path d="M146.833 98.6085C147.247 98.6017 150.345 99.0702 163.002 98.8026C171.443 98.6241 177.12 98.7308 178.986 97.3879" stroke="black" stroke-width="2" stroke-linecap="round"/>
</svg>
