<svg width="500" height="500" viewBox="0 0 500 500" fill="none" xmlns="http://www.w3.org/2000/svg">
<path d="M21.647 244.709C24.4837 193.774 29.7593 188.04 89.5539 170.911C118.17 162.713 127.352 161.094 163.013 157.961C241.715 151.044 333.092 154.409 411.485 167.111C470.234 176.629 482.097 189.004 478.249 236.753C477.416 247.089 476.149 265.479 475.433 277.62C473.273 314.264 468.385 327.242 453.067 337.011C442.899 343.494 411.571 345.382 337.442 343.976C219.121 341.732 183.085 339.742 89.8008 330.301C47.0354 325.972 39.6551 324.045 33.4349 315.585C28.3195 308.627 20.6539 262.538 21.647 244.709Z" fill="black"/>
</svg>
