<svg width="500" height="500" viewBox="0 0 500 500" fill="none" xmlns="http://www.w3.org/2000/svg">
<path d="M196.402 83.4068C198.119 89.4536 200.525 95.2451 202.691 101.139C204.829 106.951 208.881 115.929 205.862 121.792C204.21 124.989 200.699 128.329 197.104 129.167C193.392 130.035 190.097 129.381 187.026 127.185C178.698 121.23 166.383 90.8019 164.654 80.3221C163.647 74.2344 164.362 68.0651 168.166 63.0295C172.795 56.9009 179.626 55.2666 186.853 54.0818C188.123 54.0103 189.385 54 190.659 54C218.706 54.0817 249.964 61.0989 277.869 65.2152C309.869 69.9955 341.816 75.123 373.706 80.5877C391.337 83.5804 409.708 85.8684 426.968 90.4035C431.792 91.6701 438.646 93.5189 442.053 97.2164C448.985 104.734 485.01 202.709 489.632 219.47C491.182 225.088 492.385 230.91 491.885 236.763C490.892 248.397 478.602 257.457 470.145 264.29C461.363 271.491 451.897 277.814 441.882 283.177C423.95 292.921 354.97 323.993 338.92 321.694C336.971 321.408 335.806 321.041 334.326 319.713C328.549 314.544 323.636 306.312 319.024 300.02L291.597 262.482C281.279 272.319 268.995 278.468 256.034 284.126C261.641 300.52 280.877 340.979 277.312 356.065C273.305 373.031 246.692 388.71 232.684 397.933C201.952 418.157 144.925 452.467 107.21 443.55C85.6923 438.474 60.2768 376.024 47.7292 356.984C40.4871 362.235 30.4638 368.189 21.116 367.035C17.3051 366.565 14.0889 364.349 11.8911 361.275C9.05059 357.291 8.08532 352.347 8.0065 347.547C7.86012 338.599 10.2206 328.814 11.6107 319.958C14.2588 302.972 17.0246 286.006 19.9102 269.061C27.5004 233.576 34.1519 197.939 42.5036 162.618C45.9215 148.165 48.6546 132.946 54.3224 119.167C58.7629 108.381 65.5177 97.4002 74.2277 89.4944C79.6386 84.5916 86.5194 80.9554 94.0164 81.5172C100.473 82.0075 105.714 85.6233 109.708 90.5363C115.784 98.0131 127.996 128.125 126.573 137.573C126.021 141.24 123.285 145.111 120.301 147.246C117.808 149.033 114.671 149.993 111.65 149.043C101.979 146.01 96.5417 129.575 92.6704 120.985C74.9719 180.054 64.0662 240.614 48.9279 300.347C60.3935 291.746 72.0618 283.411 83.9245 275.363C111.1 256.64 170.437 214.997 202.02 210.839C206.474 210.247 210.865 211.146 215.234 211.943C220.815 216.365 225.455 221.217 230.204 226.508C237.025 223.474 245.412 220.594 251.276 216.028C258.989 210.012 254.627 206.468 256.384 198.909C259.47 185.62 337.562 135.847 354.513 124.856C301.203 112.272 248.367 100.934 196.402 83.4068ZM226.486 71.4663L225.247 74.2038C226.482 76.5837 227.206 77.3701 229.861 78.126C235.37 79.7092 241.236 79.0351 246.542 77.1864L250.222 74.6838L250.43 73.0291C245.189 69.4643 232.773 70.6594 226.486 71.4663ZM303.742 83.9073C300.332 84.1831 296.93 83.9379 294.274 86.3587L294.563 87.9827C299.484 91.2309 303.62 91.5884 309.428 91.6803C313.2 90.8631 315.402 90.8325 318.33 88.2483L317.974 86.2361C312.907 82.8859 309.619 83.3251 303.742 83.9073ZM419.372 108.861C406.685 116.021 393.815 123.028 381.418 130.668C366.473 139.891 284.187 192.679 277.401 203.087C275.719 220.083 326.993 294.504 339.571 309.846L340.651 311.164C355.703 311.623 426.209 279.377 442.007 270.439C451.686 264.965 461.019 258.744 469.118 251.084C473.521 246.926 478.983 241.737 479.145 235.374C479.574 218.541 444.269 124.519 431.592 112.558C428.691 109.821 425.078 108.575 421.096 108.748C420.52 108.779 419.947 108.82 419.372 108.861ZM70.5294 114.478C66.2916 120.413 61.2677 129.555 62.3261 137.072C62.5666 138.768 62.8921 139.687 64.4143 140.678C65.0725 141.097 66.4943 141.536 67.2651 141.791C71.2173 136.378 76.4377 126.746 75.2995 119.821C75.0047 118.033 74.1991 116.726 72.7783 115.53C72.1631 115.01 71.2746 114.744 70.5294 114.478ZM51.0345 191.075C48.5256 195.927 43.692 204.057 45.2828 209.624C46.0812 212.412 46.9687 212.984 49.4704 214.282C49.6557 214.384 49.8645 214.425 50.061 214.486C53.1534 209.849 56.6869 201.984 55.2672 196.284C54.5445 193.383 53.2947 192.842 51.0345 191.075ZM208.753 229.368C173.456 243.525 139.61 261.053 107.689 281.706C94.041 290.582 81.1986 300.684 67.7431 309.846C59.114 315.719 35.3946 329.457 31.6983 339.283C31.1475 340.754 31.1977 340.887 31.0298 342.245L32.1732 344.053C43.3983 345.126 49.4745 325.474 62.2708 340.969C78.4481 360.56 89.3548 386.984 101.866 409.169C105.574 416.697 108.995 424.307 112.309 432.018C126.254 432.376 140.446 432.09 153.939 428.167C178.761 420.966 239.906 383.593 259.219 365.411C263.295 361.571 266.439 358.088 266.573 352.286C266.991 334.064 227.754 242.8 212.511 230.41C210.979 229.164 210.602 229 208.753 229.368ZM268.513 229.225C259.342 235.977 249.268 240.747 239.281 246.13C241.415 251.002 243.304 256.18 246.402 260.521L247.809 260.91C257.758 256.477 267.44 251.747 277.09 246.702C275.014 241.268 272.843 233.28 268.513 229.225ZM35.2379 259.01C33.1897 266.262 28.0705 278.427 31.1097 285.495C33.724 286.966 34.5419 286.568 37.4572 286.271C39.9927 278.376 44.1414 269.52 42.2395 261.216C39.7746 259.234 38.3293 259.398 35.2379 259.01Z" fill="black"/>
<path d="M345.254 297.235C341.946 295.589 339.573 293.709 337.231 290.857C327.943 279.544 297.425 228.289 293.065 215.391C291.891 211.916 291.372 209.126 293.184 205.743C300.391 192.314 365.884 149.338 381.111 140.405C392.718 133.588 404.685 127.119 417.541 123C417.987 123.031 418.437 123.02 418.878 123.082C423.69 123.838 426.928 127.507 429.697 131.197C441.275 146.65 471.245 216.28 467.713 234.646C465.799 244.59 448.066 254.576 440.153 260.105C415.683 277.183 376.419 302.754 345.254 297.235ZM418.308 134.334C388.154 141.57 328.395 189.575 301.621 210.363C314.65 236.895 332.056 260.166 346.568 285.747C350.093 288.497 352.052 288.415 356.545 287.873C386.74 284.235 414.346 265.184 438.386 247.922C445.182 243.047 452.798 238.356 458.253 231.968C455.109 216.955 430.173 142.531 419.582 134.978C419.193 134.702 418.732 134.549 418.308 134.334Z" fill="black"/>
<path d="M125.94 426C123.733 425.99 121.775 425.827 119.848 424.603C117.405 423.052 115.834 420.115 114.463 417.657C107.752 405.652 102.529 392.73 96.175 380.501C90.3122 369.231 83.2465 358.48 77.8884 346.955C75.9752 342.845 74.297 338.5 73.3516 334.063C72.4958 330.035 73.1949 328.117 75.5305 324.823C85.0518 311.4 156.236 268.879 174.62 259.996C182.975 255.967 191.033 252.673 200.175 251C202.414 251.439 204.832 252.071 206.877 253.111C220.964 260.23 242.598 310.992 248.002 326.047C250.816 333.88 255.495 345.935 251.374 353.86C247.074 362.122 238.705 368.976 231.775 374.952C196.285 405.55 169.437 413.353 125.94 426ZM197.45 261.913C187.54 265.554 177.97 269.491 168.613 274.407C150.6 283.862 94.559 317.448 82.6532 331.962C85.521 340.101 121.864 410.803 125.357 414.444L127.546 414.74C169.806 403.48 216.813 384.795 242.773 347.577C236.186 325.618 219.447 276.988 201.895 262.576C200.33 262.219 199.065 261.913 197.45 261.913Z" fill="black"/>
</svg>
