<svg width="1062" height="1062" viewBox="0 0 1062 1062" fill="none" xmlns="http://www.w3.org/2000/svg">
<path d="M967.319 148.004C972.277 147.954 979.562 148.273 985.34 151.687C989.291 154.021 991.979 157.073 993.678 160.763C995.119 163.893 995.699 167.3 996.091 169.334L996.354 170.741C998.986 185.323 999.169 201.253 1000.07 214.373H1000.07L1005.43 288.989L1005.43 289.001L1005.43 289.012C1012.19 386.101 1016.11 483.368 1017.19 580.687V580.712C1017.71 640.712 1015.7 698.731 1017.04 758.053V758.054C1017.22 765.874 1019.08 794.144 1020.5 821.986C1021.19 835.734 1021.77 849.27 1021.95 859.748C1022.03 864.965 1022.02 869.584 1021.86 873.152C1021.78 874.917 1021.65 876.626 1021.44 878.107C1021.34 878.844 1021.19 879.703 1020.95 880.573C1020.77 881.262 1020.32 882.796 1019.28 884.347L1018.03 886.2L1016.11 887.346C1012.52 889.488 1007.58 890.806 1002.93 891.76C997.927 892.785 991.904 893.64 985.311 894.364C972.103 895.815 955.935 896.815 939.708 897.516C907.23 898.919 873.815 899.152 862.106 899.312H862.102C792.91 900.231 723.124 899.313 654.071 898.032H654.069C604.111 897.097 555.429 895.128 506.061 896.846H506.06C444.705 898.977 383.855 900.207 322.995 904.262L322.996 904.263C252.339 908.984 187.801 917.873 114.425 912.118C105.44 911.939 96.7019 911.229 88.0176 910.336L80.9268 909.607L79.3027 902.666C78.8962 900.928 78.54 899.175 78.2334 897.448L78.2295 897.429L78.2256 897.408C73.5676 870.538 72.5239 841.411 70.2402 815.499C66.2495 770.213 62.2353 724.75 60.1738 679.037C59.2951 659.548 58.8552 640.064 58.4307 620.704C58.0053 601.308 57.5958 582.044 56.7803 562.812C56.1991 549.107 54.6319 535.429 52.9854 521.364C51.3524 507.416 49.6372 493.058 48.8984 478.566C47.8368 457.74 47.883 436.902 48.0039 416.329C48.1253 395.671 48.3207 375.316 47.5947 355.034C46.7143 330.442 44.9305 305.843 43.3066 280.93C41.6882 256.1 40.2354 231.037 40.0713 205.929C40.0527 203.081 39.8606 198.028 40.2012 193.335C40.525 188.874 41.4158 182.515 44.9346 177.436L46.2285 175.568L48.2031 174.442C56.304 169.825 65.6378 169.091 73.2617 169.017C77.1405 168.979 81.1522 169.125 84.5723 169.203C88.1515 169.285 91.2312 169.298 93.957 169.086C130.687 166.22 168.208 163.088 205.48 162.255L210.729 162.147C264.975 161.143 319.747 163.282 373.483 164.658C417.072 165.775 457.942 169.856 500.316 168.787C541.345 167.751 581.206 164.357 622.889 162.593H622.895L953.409 148.783C955.836 148.676 962.521 148.052 967.319 148.004ZM636.154 548.985C618.385 567.449 600.651 585.561 583.145 604.062L579.224 608.216C569.027 619.05 557.486 633.496 545.229 644.675H545.228C543.593 646.165 540.804 648.816 537.775 651.013C534.883 653.111 530.384 655.864 524.969 656.275L522.201 656.486L519.721 655.24C511.176 650.947 503.64 644.439 497.129 638.121C493.838 634.928 490.656 631.627 487.683 628.552C484.662 625.427 481.869 622.547 479.156 619.958C467.195 608.54 454.725 597.411 441.596 588.251C371.901 654.093 304.163 721.285 234.717 787.841C203.209 818.037 171.824 848.79 138.957 878.137C196.941 879.892 250.351 873.942 310.326 869.352C337.616 867.262 365.607 866.789 392.285 865.396L392.521 865.384L392.758 865.383C425.021 865.227 457.319 863.695 489.92 862.316C522.437 860.942 555.206 859.723 587.993 860.246H587.992C600.673 860.448 613.322 861.023 625.824 861.622C638.373 862.223 650.75 862.847 663.12 863.169H663.121C741.361 865.207 820.344 866.149 898.343 863.42C922.569 862.572 947.06 862.376 970.679 860.345C947.761 838.662 924.056 817.717 900.148 796.739C870.95 771.119 841.417 745.421 813.006 718.521C788.699 695.507 764.728 670.218 741.214 647.315C719.741 626.401 697.522 606.668 675.247 585.935L673.741 584.527C660.613 572.211 648.902 559.99 636.154 548.985ZM77.0332 245.055C77.5689 257.974 78.4279 270.965 79.377 284.054C81.0323 306.883 82.9712 330.135 83.832 353.269L83.9639 357.093C84.5756 376.213 84.4662 395.314 84.3574 414.194C84.241 434.404 84.1255 454.361 84.8574 474.246C85.3085 486.486 86.8305 498.734 88.4697 511.442C90.0908 524.011 91.8344 537.081 92.5361 550.278L92.793 555.286C94.027 580.329 94.5463 605.375 95.0967 630.25C95.6483 655.178 96.2313 679.947 97.582 704.667L97.8623 709.61C99.4817 737.098 102.303 764.55 105.064 792.291C107.138 813.124 109.175 834.103 110.604 855.164C135.804 832.606 160.555 809.551 184.84 786.009C210.725 760.728 236.517 733.934 263.591 708.99L413.848 566.877C402.856 557.675 391.464 548.912 379.872 539.893C365.42 528.648 350.717 517.048 336.823 504.121C310.65 479.77 285.869 454.192 261.393 428.686C237.627 403.92 214.182 379.256 189.78 355.533L187.415 353.24C150.707 317.738 111.186 284.852 77.0332 245.055ZM964.433 217.788C934.732 254.782 892.486 293.057 862.111 323.043L862.11 323.042C794.53 389.76 725.788 454.977 660.63 523.399C699.76 558.442 738.862 594.629 776.464 631.245H776.463C785.74 640.279 794.692 649.77 803.465 658.936C811.751 667.592 819.929 676.012 828.416 683.903L830.118 685.475L830.134 685.489L830.148 685.503C868.076 720.564 906.53 755.05 945.5 788.948L953.301 795.72L953.32 795.736L953.34 795.754C963.699 804.823 973.449 813.857 983.321 822.599C978.03 742.586 982.175 661.605 981.275 582.97V582.969C979.697 474.083 974.743 365.273 966.419 256.693L966.413 256.609C966.223 253.823 966.031 248.753 965.792 242.981C965.548 237.091 965.245 230.223 964.826 223.513C964.705 221.568 964.572 219.651 964.433 217.788ZM942.074 185.743C929.247 185.766 916.532 185.89 903.823 186.426L903.708 186.431L903.594 186.433C846.199 187.537 789.244 191.478 731.441 194.201H731.44C712.913 195.073 694.388 195.591 675.973 196.107C657.526 196.624 639.187 197.139 620.876 198.006C584.518 199.726 546.589 203.211 509.325 203.542C460.676 203.973 412.04 202.28 363.634 200.526C315.157 198.77 266.922 196.952 218.721 197.098L218.722 197.099C175.989 197.228 132.832 200.422 89.7705 204.031C103.311 224.063 122.72 244.556 143.969 264.781C156.888 277.078 170.273 289.082 183.192 300.704C196.055 312.275 208.495 323.502 219.279 334.051C236.032 350.437 252.222 367.342 268.271 384.135C283.35 399.914 298.299 415.587 313.635 430.833L316.707 433.876L316.753 433.922C343.559 460.72 370.883 486.424 400.078 510.191V510.192C413.381 521.024 427.095 531.388 440.973 541.926C453.934 551.768 467.023 561.751 479.77 572.221L482.314 574.321L483.998 575.726C498.781 588.114 512.513 601.242 525.959 614.577C537.593 602.768 547.951 589.701 559.987 576.333L559.988 576.332C581.333 552.628 603.576 528.994 626.007 506.303V506.302C694.915 436.597 766.427 368.155 835.45 299.068C852.342 282.161 876.043 259.383 898.553 235.83C915.29 218.317 930.844 200.899 942.074 185.743Z" fill="black" stroke="black" stroke-width="20"/>
</svg>
