<svg width="1024" height="1024" viewBox="0 0 1024 1024" fill="none" xmlns="http://www.w3.org/2000/svg">
<path d="M893.796 379.296C855.205 417.03 818.668 458.4 780.087 496.41C783.424 475.913 785.467 455.103 786.03 434.393C787.542 378.619 778.898 321.905 758.168 271.71C738.294 223.722 707.377 182.102 670.923 151.489C638.13 124.022 599.768 105.017 560.582 95.7156C520.75 86.2131 480.344 85.8747 440.178 92.5815C352.203 107.274 268.41 158.007 202.634 229.2C137.297 299.867 85.5677 390.804 62.8049 493.689C57.0595 519.689 52.784 546.14 51.0322 572.967C49.1553 601.612 49.896 630.07 52.7843 658.564C58.3212 712.62 75.7971 767.667 103.044 811.343C131.228 856.498 168.297 892.879 212.04 914.228C232.488 924.219 253.989 933.282 276.23 934.887C277.336 934.962 278.441 935 279.536 935C287.554 935 295.333 933.132 303.32 932.581C309.597 932.668 315.833 933.357 322.09 933.909C340.17 935.526 356.062 917.111 356.875 895.812C357.688 873.623 343.267 855.658 325.186 854.041C322.58 853.803 320.004 853.603 317.408 853.314C315.802 853.051 314.207 852.713 312.611 852.324C311.767 852.023 310.922 851.697 310.088 851.359C306.198 849.152 302.559 846.394 298.628 844.25C289.963 839.524 280.985 835.663 272.143 831.576C263.186 827.051 254.468 822.2 245.741 817.06C245.553 816.935 245.366 816.809 245.178 816.684C244.865 816.483 244.208 816.045 243.551 815.606C242.926 815.193 242.31 814.791 241.685 814.378C240.705 813.713 238.285 812.095 235.856 810.503C234.208 809.349 227.973 804.173 221.779 798.97C216.503 793.981 211.341 788.866 206.242 783.588C200.851 777.082 195.627 770.501 190.497 763.706C186.003 756.699 181.676 749.603 177.463 742.307C173.761 734.722 170.237 727.062 166.827 719.215C162.563 707.167 158.798 695.095 155.483 682.647C153.845 674.548 152.354 666.45 151.02 658.277C149.727 646.468 148.84 634.683 148.267 622.762C148.267 608.759 148.767 594.881 149.789 580.903C151.374 567.176 153.334 553.637 155.806 540.098C159.486 523.425 163.887 507.127 168.871 490.968C174.815 473.994 181.363 457.522 188.558 441.25C196.816 424.151 205.711 407.728 215.241 391.695C224.584 377.002 234.406 362.962 244.771 349.322C256.909 334.304 269.599 320.125 282.904 306.636C295.865 294.401 309.18 283.018 322.965 272.162C337.772 261.443 352.923 251.653 368.522 242.677C382.724 235.256 397.103 228.787 411.827 223.058C425.455 218.432 439.136 214.71 453.067 211.651C466.111 209.495 479.114 208.027 492.304 207.426C503.618 207.463 514.848 207.952 526.099 209.268C534.848 210.609 543.513 212.565 552.126 214.872C560.499 217.592 568.705 220.739 576.848 224.325C583.407 227.697 589.82 231.369 596.202 235.28C603.23 240.144 610.059 245.347 616.722 250.95C622.468 256.266 628.026 261.82 633.417 267.675C637.629 272.815 641.706 278.054 645.648 283.495C649.569 289.575 653.26 295.844 656.795 302.287C661.08 311.012 664.99 319.925 668.629 329.089C672.404 339.707 675.751 350.463 678.713 361.47C681.403 373.204 683.645 385.001 685.407 396.973C686.867 409.684 687.805 422.371 688.16 435.183C688.191 450.201 687.576 465.206 686.325 480.187C684.072 500.897 680.517 521.394 676.606 541.752C625.857 469.093 528.195 306.474 509.634 451.041C547.047 529.768 593.251 609.561 649.506 670.625C733.644 756.272 882.983 527.336 957.611 473.38C1003.86 424.652 942.512 334.604 893.775 379.246L893.796 379.296Z" fill="black"/>
<path d="M436.615 975.688C435.24 975.83 433.645 976.083 432.246 975.973C427.502 975.633 423.025 972.988 419.963 969.421C416.459 965.338 414.485 959.949 413.822 954.67C411.246 934.135 415.407 910.143 416.99 889.542C418.87 865.121 420.026 840.624 422.262 816.226C424.823 788.272 429.683 716.119 438.947 692.072C441.567 685.278 444.573 680.8 450.193 676.147C452.706 676.004 455.278 675.84 457.765 676.322C462.523 677.233 466.505 680.131 468.953 684.269C484.151 709.973 466.394 850.151 462.383 887.566C460.175 908.167 459.315 930.249 454.686 950.4C451.946 962.32 447.044 969.3 436.615 975.688Z" fill="black"/>
<path d="M593.123 977.955C576.766 977.196 566.123 972.903 553.041 963.377C526.946 944.373 514.166 912.926 509.515 881.707C503.228 839.516 516.946 782.252 542.609 748.115C556.131 730.136 573.667 714.232 596.58 711C614.183 712.797 635.928 721.756 648.153 734.839C673.142 761.596 684.174 814.941 682.901 850.549C681.56 888.11 671.21 931.555 642.695 958.011C628.845 970.853 612.223 978.667 593.123 977.955ZM599.705 763.537C580.235 771.869 570.553 789.064 562.91 807.947C551.721 835.597 545.722 870.204 557.824 898.613C563.145 911.093 572.186 921.439 585.16 926.057C586.936 926.684 588.747 927.106 590.579 927.54C602.324 926.636 608.735 925.056 616.792 915.602C634.204 895.164 639.465 854.432 637.015 828.579C635.18 809.214 626.752 780.202 610.981 767.77C607.546 765.057 604.003 763.911 599.705 763.537Z" fill="black"/>
</svg>
