<svg width="500" height="500" viewBox="0 0 500 500" fill="none" xmlns="http://www.w3.org/2000/svg">
<path d="M177.015 247.337C169.909 229.241 164.9 212.378 162.773 192.912C158.369 152.474 170.329 114.713 195.684 83.1938C224.2 47.7485 259.348 29.3543 304.584 24.6609C311.099 23.711 318.694 23.9792 325.272 24.2769C336.796 24.8 348.484 26.3391 359.442 30.0717C384.253 38.5203 414.711 61.2465 432.401 80.7126C452.988 103.775 463.573 134.086 461.81 164.964C459.714 209.242 438.824 255.724 405.842 285.485C383.034 306.067 349.641 320.655 318.609 319.118C321.397 325.169 324.301 331.168 327.027 337.245C342.59 371.979 332.308 416.6 319.362 450.866C313.181 467.248 303.986 490.63 286.567 498.014C268.046 505.857 233.674 488.438 215.665 480.991C201.765 474.866 187.755 468.99 173.637 463.377C143.917 451.813 70.841 427.758 50.7742 406.481C41.7969 396.963 37.7198 383.679 38.0149 370.738C38.2091 362.545 40.2282 354.723 43.4743 347.226C53.4223 324.251 81.8607 288.064 100.475 270.549C125.512 246.986 144.088 246.426 177.015 247.337ZM308.599 32.3702C279.578 36.8094 265.84 46.4908 248.655 69.9127C246.27 73.1642 243.886 76.4017 241.828 79.8786C252.134 86.7267 263.86 91.5429 275.097 96.6436L288.99 102.564C301.144 78.2501 316.691 56.2095 333.838 35.2222C325.575 33.6893 317.04 31.8922 308.599 32.3702ZM346.092 37.6645C332.059 41.628 310.486 81.0306 303.054 94.3078C301.183 97.6743 299.389 101.086 297.68 104.54C321.249 112.905 345.199 120.784 368.038 130.993C373.94 133.755 379.749 136.718 385.449 139.878C397.572 117.294 408.203 98.3358 408.576 71.8707C392.384 58.1559 368.815 36.7752 346.092 37.6645ZM259.1 44.4636C251.396 48.3051 227.477 59.0032 225.194 67.2512C224.705 69.0421 225.179 70.3659 226.297 71.7705C226.809 72.4187 227.982 73.1168 228.627 73.5707C230.684 74.4903 232.564 75.6834 234.87 75.1603C239.778 69.0825 244.267 62.6627 249.307 56.693C252.677 52.7 256.941 49.0249 260.032 44.9152L259.1 44.4636ZM215.51 73.758C201.71 86.5619 192.337 100.672 184.261 117.591C182.342 121.622 179.469 126.757 179.166 131.288C178.988 133.991 179.663 135.564 181.511 137.462C185.029 141.077 189.735 144.119 193.727 147.241C195.179 148.315 196.336 149.745 198.177 149.619C201.252 141.434 202.774 132.738 205.826 124.553C211.239 109.999 219.478 96.7556 227.384 83.4729C223.517 80.9124 219.339 75.4502 215.51 73.758ZM416.458 80.202C415.06 87.1255 414.206 94.0816 412.412 100.932C408.335 116.52 400.181 130.263 392.237 144.119C403.66 154.421 414.92 164.441 424.581 176.483L427.408 179.307L428.293 179.199C438.35 164.106 446.45 144.408 442.637 126.031C439.375 110.321 428.79 90.6218 416.458 80.202ZM236.206 86.6334C220.123 107.348 211.767 129.29 205.974 154.667C219.867 166.699 239.382 174.881 256.063 182.452C256.444 182.202 256.894 182.033 257.213 181.701C258.082 180.782 261.569 168.82 262.346 166.741C269.467 147.711 276.309 128.282 285.146 109.976C269.164 101.544 252.39 94.6661 236.206 86.6334ZM293.999 112.684C286.233 125.039 266.05 171.697 266.392 185.316C268.349 190.835 291.615 200.392 298.006 203.433C310.136 209.246 322.492 214.579 335.041 219.419L342.403 208.158C354.502 187.963 369.094 168.703 380.013 147.901C360.63 132.3 318.112 119.529 293.999 112.684ZM175.26 144.493C171.455 159.529 168.147 192.738 175.998 206.43C178.444 210.701 185.348 217.312 190.217 218.392C190.714 218.502 191.009 218.465 191.475 218.441C191.366 198.629 192.096 178.524 195.599 158.968C189.029 153.838 182.342 148.908 175.26 144.493ZM387.872 151.91C372.752 174.65 356.444 197.337 344.081 221.748C356.506 226.888 368.978 232.261 381.885 236.101C385.643 237.02 389.371 238.014 393.207 238.557C403.955 228.105 420.38 203.129 423.649 188.116C414.897 174.167 402.208 160.245 387.872 151.91ZM446.512 161.628C442.233 170.569 437.876 179.472 433.442 188.337C435.073 191.143 436.641 194.03 438.513 196.689L439.957 198.39C441.767 197.525 442.194 196.668 442.893 194.843C445.246 188.752 448.896 167.126 446.512 161.628ZM204.125 164.524C200.39 183.306 198.13 205.735 201.167 224.684C212.676 234.252 226.351 240.936 239.367 248.199L241.036 239.478C244.772 223.618 248.678 207.427 253.547 191.883C236.882 183.119 220.403 173.998 204.125 164.524ZM262.439 195.171C254.937 212.607 250.573 232.963 247.878 251.744C267.052 260.461 286.948 267.495 307.341 272.766L309.702 267.441C315.565 253.226 323.067 240.552 330.188 227.025C308.071 215.622 284.253 206.981 262.439 195.171ZM428.775 199.732C420.232 213.472 412.94 227.982 404.623 241.868L414.633 245.212C417.009 245.814 419.192 247.082 421.389 245.595C426.717 241.997 434.584 221.012 436.898 214.443C434.894 208.556 433.613 203.941 428.775 199.732ZM177.396 219.803C180.028 234.144 189.697 259.605 201.602 268.565C197.928 255.23 193.851 243.195 192.337 229.329C187.398 226.108 182.49 222.766 177.396 219.803ZM339.017 228.712C328.51 241.819 321.195 258.434 316.543 274.489C329.124 277.177 342.077 278.801 354.829 280.429C356.824 279.063 358.906 277.771 360.684 276.116C370.376 266.757 379.353 257.149 386.529 245.664C370.135 241.246 355.132 233.555 339.017 228.712ZM202.588 236.538C202.961 246.95 207.783 259.258 211.464 269.038C215.72 272.515 230.304 285.086 235.29 285.342C235.608 285.359 235.926 285.248 236.253 285.2C236.548 275.684 237.316 266.258 238.155 256.778C226.592 250.029 214.757 242.096 202.588 236.538ZM397.455 249.628C391.312 256.582 374.95 271.927 372.814 279.799C373.148 280.869 373.016 281.576 374.135 282.064C377.194 283.395 383.314 281.759 386.335 280.584C396.857 274.722 408.304 264.705 414.804 254.538C409.057 252.915 403.116 251.517 397.455 249.628ZM159.387 255.561C135.538 256.294 117.933 264.393 101.508 281.837C87.817 296.383 59.9067 331.789 52.1953 349.349C49.1666 356.159 47.6678 363.552 47.8076 371.005C47.893 374.606 48.1726 381.439 50.5723 384.069C50.7509 384.262 50.976 384.4 51.1779 384.565C54.292 380.629 56.2956 375.879 58.5167 371.398C79.1426 335.48 104.04 290.013 146.767 278.4C157.787 275.407 169.125 274.52 180.479 273.821C182.047 270.121 184.866 264.552 183.01 260.559C181.931 258.224 180.23 257.011 177.846 256.27C172.472 254.598 164.994 255.452 159.387 255.561ZM246.511 260.724C245.207 271.732 244.857 282.735 245.913 293.775C255.737 300.461 280.409 311.402 292.337 309.521C294.061 309.25 295.545 308.697 296.562 307.214C297.074 306.459 297.416 305.169 297.696 304.341C300.313 296.36 303.155 288.388 305.376 280.286C285.356 274.483 266.058 267.904 246.511 260.724ZM212.947 281.575C217.358 288.979 226.312 296.227 235.018 298.028C236.268 298.287 236.237 298.251 237.309 298.301C234.699 291.234 223.695 286.343 217.024 283.297C215.681 282.685 214.322 282.11 212.947 281.575ZM313.173 282.539C309.872 291.42 306.673 300.255 304.988 309.615C313.88 307.732 322.041 304.676 329.955 300.136C336.432 296.828 342.388 293.24 348.088 288.705C336.501 286.347 324.86 284.291 313.173 282.539ZM166.655 283.472C137.2 287.196 119.354 298.975 101.33 322.332C83.3129 345.99 68.6122 371.998 57.6313 399.637C70.4449 414.819 94.1307 424.093 112.505 430.901C122.911 408.701 133.542 386.602 144.383 364.609C149.54 354.005 155.271 337.927 162.796 329.373C165.522 329.123 168.17 329.551 170.818 330.171C180.207 332.367 189.355 335.629 198.752 337.884C211.666 340.985 225.039 343.139 237.72 347.062C242.061 348.406 248.119 350.262 251.691 353.116C253.337 354.427 253.889 357.282 253.951 359.298C254.145 365.733 249.92 372.939 247.303 378.718L208.824 469.347C231.003 477.641 251.846 490.086 276.006 491.011C297.051 455.589 320.147 373.032 310.455 334.035C309.306 329.216 307.838 324.478 306.067 319.853C285.76 316.499 265.91 316.537 245.735 311.155C228.782 306.629 212.916 298.994 196.849 292.073C189.619 288.962 181.9 285.198 174.235 283.445C171.696 282.864 169.21 283.133 166.655 283.472ZM167.121 337.1C164.792 342.34 162.221 347.583 160.187 352.939C185.425 361.092 210.827 367.891 236.284 375.257C239.235 369.208 241.432 363.206 243.164 356.696C217.692 350.08 192.158 345.46 167.121 337.1ZM320.457 343.662C323.152 379.199 314.151 414.804 303.831 448.574C301.92 454.835 293.883 473.708 294.139 478.62C295.7 478.278 295.032 478.675 296.096 477.377C316.062 448.699 331.143 391.588 324.954 356.592C324.262 352.706 322.95 346.662 320.457 343.662ZM158.02 357.61C154.013 365.899 150.161 374.187 146.736 382.737C158.245 386.441 169.987 389.389 181.558 392.913C195.071 397.029 208.575 401.754 222.251 405.276C226.732 398.286 229.605 390.315 232.603 382.613C221.008 380.138 163.549 366.381 158.649 358.679C158.424 358.329 158.23 357.966 158.02 357.61ZM143.164 390.878C140.609 395.871 138.38 400.887 136.291 406.094C149.004 412.088 196.352 431.903 208.521 433.761L209.927 432.883C212.846 426.664 216.015 420.465 218.562 414.089C209.002 410.146 198.79 407.403 188.912 404.338C173.761 399.636 158.54 394.812 143.164 390.878ZM133.744 414.013C130.855 421.407 127.788 428.78 125.326 436.329C131.88 438.629 192.57 462.072 194.822 462.134L195.164 461.908C198.938 455.387 202.075 448.68 205.197 441.831C180.502 434.122 157.616 423.81 133.744 414.013Z" fill="black"/>
<path d="M242 80.0794C244.058 76.5665 246.442 73.2956 248.825 70.0104C266.009 46.3461 279.746 36.5645 308.764 32.0794C317.204 31.5964 325.738 33.4121 334 34.9609C316.855 56.1654 301.309 78.4341 289.157 103L275.265 97.018C264.029 91.8645 252.304 86.9984 242 80.0794Z" fill="#FEFEFE"/>
<path d="M298 104.746C299.71 101.299 301.506 97.8958 303.379 94.5372C310.818 81.2911 332.412 41.981 346.458 38.0268C369.202 37.1397 392.793 58.4701 409 72.1528C408.627 98.5557 397.985 117.47 385.852 140C380.146 136.848 374.332 133.892 368.424 131.136C345.564 120.952 321.591 113.091 298 104.746Z" fill="#FEFEFE"/>
<path d="M228.621 73.2729C227.977 72.8163 226.806 72.1143 226.294 71.4624C225.176 70.0498 224.703 68.7185 225.192 66.9174C227.473 58.6224 251.372 47.8633 259.069 44L260 44.4542C256.912 48.5872 252.652 52.2833 249.284 56.299C244.249 62.3028 239.764 68.7591 234.86 74.8715C232.555 75.3976 230.678 74.1977 228.621 73.2729Z" fill="#FEFEFE"/>
<path d="M193.514 147.61C189.543 144.482 184.861 141.436 181.361 137.814C179.522 135.913 178.85 134.337 179.028 131.629C179.329 127.09 182.188 121.947 184.096 117.909C192.131 100.961 201.457 86.826 215.187 74C218.996 75.6951 223.152 81.1668 227 83.7317C219.135 97.0374 210.937 110.304 205.552 124.883C202.515 133.082 201.001 141.793 197.941 149.992C196.11 150.118 194.959 148.686 193.514 147.61Z" fill="#FEFEFE"/>
<path d="M392 143.849C400.043 130.008 408.299 116.28 412.427 100.708C414.243 93.8649 415.108 86.9161 416.523 80C429.008 90.4088 439.725 110.087 443.027 125.781C446.888 144.137 438.687 163.815 428.505 178.891L427.609 179L424.747 176.178C414.966 164.15 403.566 154.14 392 143.849Z" fill="#FEFEFE"/>
<path d="M206 154.452C211.781 129.292 220.118 107.537 236.166 87C252.315 94.9641 269.053 101.783 285 110.143C276.182 128.293 269.355 147.555 262.249 166.423C261.474 168.484 257.995 180.344 257.127 181.256C256.81 181.585 256.36 181.752 255.98 182C239.336 174.494 219.863 166.381 206 154.452Z" fill="#FEFEFE"/>
<path d="M334.88 219C322.289 214.194 309.893 208.897 297.723 203.124C291.311 200.104 267.968 190.613 266.004 185.132C265.661 171.607 285.911 125.27 293.703 113C317.895 119.798 360.553 132.481 380 147.974C369.045 168.634 354.405 187.761 342.266 207.817L334.88 219Z" fill="#FEFEFE"/>
<path d="M190.943 217.974C190.484 217.998 190.194 218.035 189.705 217.925C184.914 216.845 178.121 210.232 175.714 205.959C167.99 192.262 171.245 159.042 174.989 144C181.957 148.416 188.536 153.348 195 158.48C191.554 178.043 190.836 198.155 190.943 217.974Z" fill="#FEFEFE"/>
<path d="M344 222.122C356.43 197.612 372.827 174.833 388.029 152C402.442 160.37 415.2 174.348 424 188.354C420.713 203.428 404.199 228.506 393.393 239C389.536 238.455 385.788 237.457 382.009 236.534C369.032 232.678 356.493 227.284 344 222.122Z" fill="#FEFEFE"/>
<path d="M433 188.156C437.483 179.474 441.888 170.755 446.215 162C448.625 167.384 444.935 188.562 442.556 194.527C441.849 196.314 441.417 197.154 439.588 198L438.127 196.334C436.235 193.731 434.649 190.904 433 188.156Z" fill="#FEFEFE"/>
<path d="M200.419 224.674C197.371 205.879 199.639 183.63 203.389 165C219.728 174.397 236.271 183.445 253 192.138C248.112 207.556 244.191 223.617 240.441 239.35L238.765 248C225.7 240.796 211.972 234.166 200.419 224.674Z" fill="#FEFEFE"/>
<path d="M248 251.868C250.685 232.99 255.033 212.527 262.506 195C284.238 206.872 307.966 215.558 330 227.02C322.906 240.618 315.432 253.357 309.591 267.647L307.239 273C286.923 267.701 267.102 260.63 248 251.868Z" fill="#FEFEFE"/>
<path d="M405 241.63C413.246 227.911 420.476 213.575 428.946 200C433.743 204.159 435.013 208.718 437 214.535C434.705 221.025 426.906 241.758 421.624 245.313C419.445 246.782 417.281 245.529 414.925 244.934L405 241.63Z" fill="#FEFEFE"/>
<path d="M201 269C189.196 259.996 179.61 234.411 177 220C182.051 222.978 186.917 226.336 191.814 229.572C193.316 243.506 197.358 255.6 201 269Z" fill="#FEFEFE"/>
<path d="M316 274.142C320.653 258.31 327.97 241.925 338.479 229C354.596 233.776 369.603 241.361 386 245.717C378.823 257.043 369.844 266.518 360.15 275.747C358.371 277.379 356.29 278.652 354.293 280C341.539 278.395 328.583 276.793 316 274.142Z" fill="#FEFEFE"/>
<path d="M210.984 268.963C207.258 259.345 202.377 247.24 202 237C214.317 242.467 226.296 250.269 238 256.906C237.151 266.229 236.373 275.5 236.074 284.858C235.744 284.905 235.422 285.014 235.1 284.998C230.053 284.746 215.292 272.383 210.984 268.963Z" fill="#FEFEFE"/>
<path d="M386.524 281.019C383.502 282.197 377.381 283.836 374.321 282.502C373.202 282.014 373.334 281.305 373 280.233C375.136 272.344 391.503 256.968 397.647 250C403.31 251.893 409.252 253.293 415 254.92C408.498 265.108 397.049 275.145 386.524 281.019Z" fill="#FEFEFE"/>
<path d="M57.732 371.764C55.5081 376.268 53.5019 381.043 50.3837 385C50.1815 384.834 49.9561 384.695 49.7772 384.501C47.3745 381.857 47.0945 374.988 47.009 371.368C46.869 363.876 48.3698 356.444 51.4024 349.598C59.1239 331.946 87.0707 296.353 100.78 281.73C117.226 264.195 134.854 256.053 158.734 255.316C164.348 255.206 171.836 254.348 177.217 256.029C179.605 256.774 181.307 257.993 182.388 260.34C184.247 264.354 181.424 269.953 179.853 273.672C168.485 274.375 157.132 275.266 146.098 278.276C103.315 289.949 78.385 335.657 57.732 371.764Z" fill="#FEFEFE"/>
<path d="M245.621 294.043C244.566 283.006 244.915 272.006 246.218 261C265.737 268.178 285.008 274.757 305 280.558C302.782 288.658 299.944 296.628 297.33 304.606C297.051 305.435 296.71 306.724 296.198 307.479C295.182 308.962 293.701 309.515 291.979 309.786C280.068 311.666 255.431 300.728 245.621 294.043Z" fill="#FEFEFE"/>
<path d="M237 298C235.944 297.952 235.975 297.987 234.743 297.739C226.167 296.016 217.346 289.082 213 282C214.354 282.512 215.693 283.062 217.017 283.648C223.588 286.561 234.429 291.24 237 298Z" fill="#FEFEFE"/>
<path d="M305 310C306.681 300.666 309.873 291.856 313.166 283C324.827 284.746 336.44 286.797 348 289.148C342.313 293.67 336.371 297.248 329.909 300.547C322.014 305.074 313.871 308.122 305 310Z" fill="#FEFEFE"/>
<path d="M57 399.585C68.0196 371.934 82.7721 345.913 100.852 322.245C118.94 298.877 136.849 287.093 166.409 283.368C168.973 283.028 171.466 282.759 174.015 283.34C181.707 285.094 189.453 288.86 196.708 291.972C212.833 298.896 228.754 306.535 245.767 311.062C266.013 316.448 285.933 316.409 306.312 319.764C308.089 324.392 309.562 329.132 310.715 333.953C320.441 372.968 297.264 455.562 276.144 491C251.9 490.075 230.983 477.624 208.726 469.327L247.341 378.656C249.967 372.875 254.207 365.666 254.012 359.228C253.949 357.211 253.396 354.355 251.744 353.043C248.159 350.187 242.08 348.33 237.724 346.986C224.998 343.061 211.578 340.907 198.618 337.804C189.188 335.548 180.008 332.284 170.586 330.088C167.928 329.467 165.271 329.039 162.535 329.289C154.984 337.847 149.232 353.932 144.058 364.541C133.178 386.544 122.51 408.653 112.067 430.863C93.628 424.052 69.8588 414.774 57 399.585Z" fill="#FEFEFE"/>
<path d="M160 352.774C162.035 347.44 164.606 342.219 166.937 337C191.98 345.326 217.521 349.927 243 356.516C241.268 362.998 239.069 368.976 236.118 375C210.654 367.665 185.246 360.894 160 352.774Z" fill="#FEFEFE"/>
<path d="M295.949 477.756C294.893 479.054 295.556 478.658 294.006 479C293.751 474.086 301.733 455.207 303.629 448.945C313.878 415.164 322.815 379.547 320.139 344C322.614 347.001 323.918 353.046 324.604 356.934C330.75 391.941 315.775 449.069 295.949 477.756Z" fill="#FEFEFE"/>
<path d="M146 382.776C149.43 374.346 153.288 366.173 157.301 358C157.511 358.351 157.706 358.709 157.931 359.054C162.839 366.648 220.388 380.213 232 382.653C228.998 390.248 226.12 398.108 221.632 405C207.935 401.527 194.409 396.868 180.876 392.809C169.287 389.335 157.527 386.428 146 382.776Z" fill="#FEFEFE"/>
<path d="M136 406.257C138.082 401.037 140.304 396.007 142.85 391C158.176 394.945 173.347 399.783 188.448 404.497C198.293 407.57 208.472 410.321 218 414.274C215.461 420.668 212.303 426.884 209.393 433.119L207.992 434C195.863 432.136 148.671 412.268 136 406.257Z" fill="#FEFEFE"/>
<path d="M125 436.26C127.466 428.73 130.538 421.376 133.432 414C157.342 423.773 180.265 434.058 205 441.748C201.873 448.58 198.731 455.27 194.95 461.775L194.608 462C192.352 461.938 131.565 438.555 125 436.26Z" fill="#FEFEFE"/>
</svg>
