<svg width="1062" height="1062" viewBox="0 0 1062 1062" fill="none" xmlns="http://www.w3.org/2000/svg">
<path d="M103 474.411C129.965 433.661 186.435 392.817 223.243 358.924C275.696 310.628 325.848 259.851 378.886 212.197C436.555 160.381 496.676 112.989 558.993 67C561.875 67.1078 561.439 66.9953 564.947 67.7315C568.955 68.571 572.373 70.4951 575.386 73.2817C586.601 83.6505 596.124 97.5145 606.167 109.122C618.434 123.3 631.505 135.838 645.326 148.459C695.767 194.524 742.1 245.45 791.801 292.379C843.722 341.404 919.771 393.264 958 452.05C849.856 459.157 740.29 455.697 632 454.972C584.008 454.651 535.661 453.431 487.749 456.431C397.65 462.004 308 468.425 217.764 471.82C179.78 473.265 140.958 476.269 103 474.411Z" fill="black"/>
<path d="M845.761 300.739C844.419 268.497 836.556 117.841 848.594 98.3227C853.582 98.1079 858.835 97.6305 863.767 98.5147C868.837 99.424 868.872 99.2138 872.081 103.507C877.45 133.567 882.872 290.135 870.388 312C861.819 310.638 853.329 304.815 845.761 300.739Z" fill="black"/>
<path d="M181.002 517.628C327.474 498.001 476.158 495.385 623.655 488.039C712.014 482.163 809.905 489.944 898 499.218C895.504 547.17 891.065 595.1 889.653 643.121C886.493 750.526 887.742 858.069 884.426 965.382C863.876 969.055 843.294 972.36 822.458 973.898C773.097 977.548 722.924 976.768 673.41 978.237C646.008 979.04 647.275 978.398 620 978.237C613.392 978.214 620.761 978.242 617.903 978.237L618 975.5C617.767 978.231 618.457 970.225 617.96 973.554C626.026 921.653 621.788 853.983 616.166 801.555C614.598 786.932 612.072 758.698 598.309 750.503C579.145 739.118 525.215 752.018 503.541 754.819C484.707 756.54 465.228 757.435 447.281 763.771C431.772 840.072 427.269 912.196 432.545 989.714C374.114 999.126 254.048 990.724 192.244 986.432C188.485 962.811 188.917 937.837 187.993 913.964C185.448 848.336 186.023 782.846 184.572 717.219C183.249 657.491 173.055 574.808 181.002 517.628Z" fill="black"/>
</svg>
