<svg width="500" height="500" viewBox="0 0 500 500" fill="none" xmlns="http://www.w3.org/2000/svg">
<g clip-path="url(#clip0_84_625)">
<path d="M270.25 179.74C261.17 175.288 252.657 170.379 245.277 163.365C229.956 148.804 221.153 125.329 220.628 104.423C220.135 84.7846 228.181 68.2403 241.67 54.2731C260.635 35.0222 286.402 23.9888 313.422 23.5485C321.139 23.3684 329.506 25.3396 336.659 28.1429C356.604 35.959 371.619 52.5546 379.967 72.0394C388.341 91.5886 389.358 114.918 381.368 134.771C373.586 154.099 358.433 168.684 339.459 176.793C355.714 175.977 408.415 175.957 420.043 185.051C425.632 196.334 420.154 291.685 418.915 311.004C417.958 325.911 411.952 417.883 404.811 424.172C394.646 425.913 382.564 424.307 372.182 424.383C358.934 424.483 345.569 425.548 332.375 426.604C280.854 430.721 228.18 439.836 177.576 450.423C169.597 452.089 127.233 462.38 123.715 460.08C118.676 456.799 108.088 406.28 105.82 397.054C97.5016 360.634 87.3971 324.518 78.6054 288.178C73.6766 267.819 66.9879 245.25 66.615 224.208C84.8771 210.996 114.486 205.191 136.436 201.133C121.819 194.111 109.837 184.171 104.171 168.524C99.6719 156.1 99.7645 140.434 105.72 128.509C111.383 117.172 122.285 109.745 134.119 106.009C148.386 101.57 163.841 103.072 176.987 110.176C189.828 117.044 199.402 128.747 203.59 142.694C208.765 159.898 203.647 174.157 195.481 189.345C219.857 184.203 245.438 182.015 270.25 179.74ZM307.018 77.0998C312.58 84.9878 316.964 92.9091 320.735 101.801C322.118 105.081 323.36 111.728 325.751 114.089C326.803 103.726 323.737 92.2939 317.094 84.1548C314.277 80.7029 311.305 78.3478 307.018 77.0998ZM143.926 128.134L144.14 129.859C147.073 131.392 150.194 132.158 153.147 133.563C158.433 136.077 161.108 142.017 165.128 145.918C165.717 141.902 165.24 138.753 162.835 135.375C159.844 131.173 154.343 128.602 149.323 127.996C147.446 127.769 145.79 127.885 143.926 128.134ZM380.083 184.317C354.577 183.25 329.389 183.17 303.887 184.763C255.458 187.787 111.849 204.894 74.8332 228.788C75.6152 253.85 88.9632 296.216 95.337 322.034L111.862 387.376C114.906 399.244 117.455 411.569 121.359 423.165C123.674 431.363 125.627 440.078 128.547 448.054C175.69 436.938 223.333 428.061 271.315 421.448C313.22 415.376 354.392 409.725 396.848 412.737C402.471 370.502 406.016 328.513 408.725 286.016C410.778 253.791 412.688 220.896 412.003 188.606C401.419 186.66 390.827 184.987 380.083 184.317Z" fill="#010101"/>
<path d="M156.531 376.03C142.912 356.226 127.95 297.224 126.047 273.459C125.349 264.733 123.998 247.946 130.405 241.069C135.6 235.492 147.816 233.222 155.084 230.961C210.972 213.569 266.96 207.649 325.336 207.654C328.871 207.457 332.611 207.86 336.157 207.992C338.188 212.633 339.935 217.009 341.099 221.956C346.142 243.344 356.197 326.317 350.722 344.903C350.206 346.657 349.681 348.418 347.836 349.128C339.453 352.356 292.756 356.58 279.77 358.235C252.693 361.853 225.688 365.985 198.77 370.633C191.711 371.79 162.938 377.679 158.679 377.073C157.891 376.963 157.247 376.375 156.531 376.03ZM304.756 226.048C308.991 237.25 313.648 249.212 314.759 261.225C315.504 269.217 314.744 277.998 316.831 285.769C317.494 288.248 318.593 290.99 320.989 292.289C322.128 292.913 323.497 293.218 324.769 293.434C326.771 279.035 317.976 240.595 308.943 229.222C307.741 227.704 306.542 226.804 304.756 226.048ZM151.708 252.345C148.781 256.156 150.439 266.105 151.049 270.709C154.66 297.971 161.535 322.002 177.677 344.664C178.654 340.038 169.33 326.459 167.126 321.474C160.836 307.273 157.56 288.455 155.391 273.017C154.746 268.426 154.602 256.273 152.215 252.882C152.074 252.681 151.877 252.525 151.708 252.345Z" fill="#010101"/>
<path d="M315.776 381.531C314.063 381.929 312.398 382.155 310.659 382.39C308.845 381.538 308.248 380.348 307.17 378.737C306.998 376.93 306.678 376.063 308.185 374.703C313.571 369.849 330.222 369.773 337.279 369.156C339.362 369.129 341.474 369.063 343.555 369.157C345.516 369.248 346.447 369.95 347.666 371.412C348.666 372.613 348.419 372.124 348.313 373.704C343.516 380.021 323.733 380.404 315.776 381.531Z" fill="#010101"/>
<path d="M244.299 390.138C243.042 390.278 241.522 390.548 240.27 390.407C238.253 390.174 237.31 389.244 236.017 387.8L236.196 386.097C242.185 378.981 260.938 377.79 269.723 376.888C270.515 376.925 272.014 376.879 272.799 377.198C274.922 378.045 275.365 378.85 276.43 380.71L275.828 382.4C269.435 387.867 252.768 388.676 244.299 390.138Z" fill="#010101"/>
<path d="M316.618 399.426C316.368 399.42 316.117 399.431 315.869 399.409C312.999 399.198 311.863 398.26 310.152 396.15C310.067 394.908 309.692 394.391 310.604 393.381C314.894 388.61 339.078 388.087 345.791 387.715C346.575 387.694 347.766 387.637 348.51 387.799C350.584 388.255 351.081 388.855 352.021 390.551C351.875 391.764 352.03 392.754 351.188 393.713C347.384 398.003 323.386 398.51 316.618 399.426Z" fill="#010101"/>
<path d="M170.428 401.368C169.162 401.475 168.377 401.576 167.165 401.083C165.957 400.582 165.972 399.663 165.502 398.525C165.638 397.254 165.515 396.316 166.308 395.248C170.477 389.602 193.685 384.775 200.951 383.676C202.86 384.173 203.818 384.749 205.326 386.011C205.818 388.039 205.771 388.083 204.908 389.984C197.916 395.851 179.607 399.13 170.428 401.368Z" fill="#010101"/>
<path d="M246.571 407.013C246.06 407.009 245.545 407.052 245.036 407C242.364 406.742 241.988 406.281 240.274 404.389C240.175 403.347 239.843 402.641 240.48 401.728C244.31 396.23 269.072 394.492 276.25 393.595C278.289 393.515 279.15 393.792 280.926 394.787C282.039 396.836 282.138 396.813 281.642 399.069C276.37 404.416 254.3 405.898 246.571 407.013Z" fill="#010101"/>
<path d="M175.948 415.945C175.488 415.921 175.025 415.937 174.567 415.881C172.212 415.594 171.308 414.741 169.879 412.978C169.885 411.825 169.617 410.97 170.377 410.004C174.829 404.343 200.861 400.15 208.517 398.883C210.241 399.22 211.302 399.708 212.89 400.428C214.028 402.254 214.223 402.376 214.052 404.483C209.735 410.89 184.459 413.979 175.948 415.945Z" fill="#010101"/>
</g>
<defs>
<clipPath id="clip0_84_625">
<rect width="500" height="500" fill="white"/>
</clipPath>
</defs>
</svg>
