<svg width="500" height="500" viewBox="0 0 500 500" fill="none" xmlns="http://www.w3.org/2000/svg">
<path d="M176.752 322.027C167.835 326.608 124.657 349.971 118.296 349.21C107.554 342.773 84.1606 292.177 79.0643 277.868C75.8149 268.745 71.1827 254.377 76.2438 245.352C82.7898 233.68 140.202 209.242 154.497 201.76C167.122 195.128 179.505 188.056 191.623 180.545C209.753 169.215 227.799 154.954 242.559 139.584C258.264 123.229 266.971 105.964 274.79 84.8874C277.343 78.0053 279.629 70.3349 283.002 63.8415C286.662 56.7962 293.193 52.5718 300.436 50C302.393 50.1309 304.418 50.3351 306.314 50.8459C332.694 57.9586 373.272 124.633 386.415 149.697C400.67 176.882 434.134 249.455 424.18 278.142C423.215 280.925 421.678 283.553 419.525 285.584C404.216 300.021 368.47 282.283 351.186 278.962C338.513 276.53 325.314 275.895 312.44 276.432C277.309 277.888 242.159 291.162 210.823 306.536C233.056 339.227 255.102 381.364 260.775 420.834C261.768 427.74 262.759 436.98 257.974 442.762C253.017 448.75 242.83 449.346 235.614 450C227.788 443.407 225.148 419.584 221.747 409.416C211.179 377.828 195.735 349.298 176.752 322.027ZM297.147 69.1179C289.54 86.2402 301.575 118.713 307.988 135.387C321.444 170.377 375.192 263.031 408.812 277.585C409.154 277.741 409.501 277.868 409.842 278.015C409.981 278.073 410.117 278.142 410.255 278.2L412.944 266.899C375.645 229.802 340.652 162.632 317.788 114.641C313.112 104.827 302.654 75.9375 297.147 69.1179ZM276.594 121.808C253.09 171.452 197.307 202.375 150.106 226.442C155.045 225.075 159.901 223.659 164.728 221.92C209.116 206.341 253.163 188.281 291.64 160.854C287.488 149.665 282.627 131.574 276.594 121.808ZM87.4762 252.453C83.5049 263.744 92.6774 282.498 97.591 292.744C102.123 302.189 114.034 329.772 121.863 335.017C124.157 334.666 126.024 334.09 128.179 333.24L129.964 331.062C126.61 321.47 117.156 312.328 111.989 303.312C106.385 293.545 101.133 282.566 96.7176 272.164C94.655 267.3 92.7478 258.548 89.9124 254.436C89.3178 253.576 88.2879 253.107 87.4762 252.453Z" fill="#010101"/>
</svg>
