<svg width="1062" height="1062" viewBox="0 0 1062 1062" fill="none" xmlns="http://www.w3.org/2000/svg">
<path d="M532.084 273.888C540.107 262.801 548.731 252.657 558.907 243.472C625.824 183.062 781.876 183.544 868.289 188.295C882.387 189.144 908.382 187.792 919.59 196.666C922.906 199.29 924.942 203.261 925.796 207.356C928.684 221.217 926.286 250.559 927.581 267.664C941.777 268.448 955.646 269.632 969.743 271.608C979.868 297.985 978.984 376.567 980.432 408.5L989.995 634.458C991.829 673.537 1000.38 828.855 972.25 853.13C968.581 856.296 963.179 857.528 958.53 858.126C942.551 860.181 925.888 860.431 909.784 861.348C872.142 863.491 834.452 864.877 796.839 867.513L656.123 877.545C612.821 880.789 569.594 884.613 526.131 884.011C480.217 883.377 435.727 873.621 390.12 870.666C305.274 865.166 219.07 866.138 134.073 867.124C121.662 867.142 94.0162 870.11 84.81 860.352C76.2453 851.272 73.8647 793.803 72.6786 779.911C63.9794 677.954 61.2027 574.398 61.0122 472.064C60.8676 442.836 61.4194 413.61 62.6671 384.409C63.1975 370.089 62.9968 355.063 65.0126 340.887C66.2158 332.421 68.271 320.701 74.1585 314.282C89.2681 297.804 124.869 299.751 145.632 299.695C146.879 278.523 144.464 256.123 147.412 235.189C148.112 230.215 149.356 226.691 153.712 223.887C179.19 207.489 341.105 201.283 379.322 201.964C394.7 202.097 410.043 203.475 425.2 206.087C473.876 214.667 503.818 233.635 532.084 273.888ZM855.281 205.83C778.301 202.691 627.81 202.027 569.024 256.407C556.88 267.641 547.616 281.476 538.95 295.457C548.008 424.053 543.297 553.526 541.337 682.28C541.11 697.17 544.307 749.785 538.904 759.256C535.795 761.397 534.572 762.378 530.537 761.761C528.718 761.484 525.593 759.704 524.956 758.05C520.044 745.279 523.78 695.323 524.133 678.532C525.373 619.5 535.234 325.247 519.476 286.652C511.305 266.638 490.89 249.347 472.149 239.573C455.035 230.648 435.798 225.621 416.764 222.954C353.947 214.149 226.238 222.5 163.725 236.401C162.256 263.342 163.356 289.132 163.018 315.92C162.937 322.357 161.722 328.452 161.942 334.963C161.292 397.781 158.033 460.504 156.978 523.3C155.765 595.576 156.902 667.561 157.902 739.813C262.16 745.599 366.16 754.067 462.577 797.864C480.526 806.017 502.608 816.342 516.135 831.149C518.737 833.995 520.858 837.254 522.928 840.497C544.653 826.387 569.337 816.791 593.086 806.59C694.397 763.074 801.027 731.165 910.709 718.303C910.941 676.02 908.854 633.597 908.118 591.305L906.503 393.205C906.157 332.445 912.062 271.172 907.6 210.496C890.251 208.045 872.79 206.489 855.281 205.83ZM926.148 305.78C926.392 348.575 928.918 703.713 933.409 714.046C937.937 716.883 940.857 715.94 946.112 715.733C945.781 641.067 943.652 566.397 944.745 491.731L946.583 374.281C946.8 352.44 947.849 329.814 945.936 308.058C939.39 307.178 932.751 306.005 926.148 305.78ZM137.998 334.853C128.571 337.931 119.815 339.646 109.875 340.289C107.978 402.984 107.242 465.709 107.664 528.431C108.156 563.791 110.017 599.162 110.815 634.526C111.4 660.416 112.693 685.925 113.949 711.727C114.366 720.289 113.207 728.709 115.192 737.133C118.703 738.111 118.335 737.485 121.321 735.81C123.599 731.852 124.183 728.269 124.259 723.705C124.458 711.896 123.173 699.93 123.186 688.063C123.27 610.333 122.604 532.569 124.133 454.854C124.812 420.417 124.72 385.36 127.686 351.047C128.313 346.957 128.003 346.147 130.951 343.349L132.861 344.286C135.372 353.759 130.832 404.39 130.505 418.496C128.508 503.582 128.317 588.701 129.933 673.796C130.06 684.863 128.324 721.999 131.322 731.041C131.699 732.18 132.724 732.987 133.425 733.96C136.533 735.518 138.386 736.873 141.958 736.223C142.829 727.569 140.662 717.55 140.385 708.695C139.629 683.469 139.11 658.237 138.826 633.002C138.356 562.034 140.091 491.068 144.025 420.206C144.725 406.052 149.941 344.872 144.567 337.327C142.053 335.889 140.937 335.347 137.998 334.853ZM942.994 736.736C914.077 737.709 885.292 738.544 856.611 742.728C810.354 749.477 670.473 783.426 634.304 809.328C637.565 809.406 636.172 809.731 638.557 808.766C700.189 784.31 793.476 771.682 859.266 766.045C888.272 763.56 918.534 763.829 947.22 759.09C947.418 751.995 948.307 744.394 946.396 737.508C943.554 736.654 944.715 736.728 942.994 736.736ZM943.116 765.311C913.207 768.602 882.844 768.937 852.816 771.338C783.176 776.908 711.68 787.642 644.91 808.555C635.11 811.624 619.781 814.29 611.724 820.147L615.734 819.715C652.971 812.166 690.599 808.931 728.348 805.029C801.39 797.591 874.589 791.784 947.89 787.608C948.026 780.309 948.582 773.051 946.724 765.933C944.053 765.007 945.272 765.071 943.116 765.311ZM946.296 794.597C878.544 797.382 810.884 802.047 743.39 808.582C695.839 812.999 627.944 815.068 584.621 834.395L583.711 836.037L585.653 836.285C631.945 833.125 936.196 818.44 947.623 804.667C948.665 803.411 948.901 801.042 948.659 799.503C948.419 797.97 947.507 795.632 946.296 794.597ZM188.31 759.822C165.855 759.131 143.251 757.983 120.796 758.801L120.976 779.53C202.233 781.423 282.302 785.275 362.691 798.586C386.631 802.28 409.908 807.661 433.354 813.689C360.988 775.322 269.355 762.439 188.31 759.822ZM184.327 788.21C163.445 787.755 141.643 786.103 120.842 788.245C120.838 794.854 120.694 801.453 121.347 808.036C210.926 814.893 300.815 817.332 390.24 825.891C414.084 828.058 438.085 830.878 462.016 831.616C408.851 808.259 345.506 804.001 288.499 797.313C254.288 793.299 218.725 788.477 184.327 788.21Z" fill="#010101" stroke="#010101" stroke-width="28"/>
</svg>
