<svg width="500" height="500" viewBox="0 0 500 500" fill="none" xmlns="http://www.w3.org/2000/svg">
<path d="M255.789 98.6689L253.522 101L253 100.989C258.504 86.8545 260.113 70.4492 261.482 55.4371C262.398 45.3942 261.597 14.1254 266.177 7C268.986 9.3031 269.728 12.8277 270.305 16.236C273.316 34.024 266.186 84.2821 255.789 98.6689Z" fill="#010101"/>
<path d="M201 101C195.222 94.0001 181.375 46.7282 179.19 35.7922C178.336 31.5184 177.742 27.3571 178.113 23C178.862 23.1923 179.443 23.4333 180.05 23.9197C190.639 32.4152 199.368 86.1 201 101Z" fill="#010101"/>
<path d="M288.897 122.293C288.048 122.865 288.08 123.015 287 122.999C289.509 118.058 296.664 111.744 300.531 107.408C304.908 102.473 309.137 97.4148 313.211 92.2291C320.691 82.7192 326.582 72.3922 333.187 62.2987C335.418 58.886 337.696 55.6345 340.833 53C341.974 53.1945 342.346 53.3835 343.303 53.9615C343.862 54.9731 344.124 55.7179 343.944 56.8907C341.956 69.8355 320.517 94.5301 310.795 103.884C303.916 110.504 296.361 116.362 288.897 122.293Z" fill="#010101"/>
<path d="M158 120C151.113 111.993 143.864 104.317 136.275 96.99C129.639 90.6507 121.726 84.4686 116.311 77.0681C113.951 73.8395 113.664 71.9248 114.279 68C117.349 68.977 119.769 70.3863 122.372 72.2561C134.771 81.1726 155.455 104.441 158 120Z" fill="#010101"/>
<path d="M164.632 206.008C163.087 201.789 162.027 197.902 161.389 193.439C158.368 172.349 161.414 150.066 174.517 132.752C184.91 119.013 197.712 112.765 214.545 110.37C214.66 110.353 214.773 110.326 214.889 110.314C231.748 108.79 247.733 112.737 260.835 123.732C273.755 134.57 277.724 148.148 279.074 164.343C280.446 164.177 281.856 164.038 283.24 164.032C286.216 164.016 288.911 165.901 290.854 168.035C293.164 170.58 294.643 174.156 294.478 177.616C294.295 181.463 293.191 183.027 290.436 185.594C296.467 196.449 298.955 220.245 301.515 233.002C303.254 241.674 305.495 250.223 307.03 258.938C310.903 257.83 314.868 256.715 318.909 256.482C322.472 256.277 326.592 256.56 329.33 259.149C331.914 261.594 332.091 268.297 332.789 271.745C336.825 291.721 339.135 312.024 341.721 332.222C346.864 372.75 350.875 413.411 353.75 454.167C354.34 462.727 354.367 468.77 348.211 475.556C339.095 485.603 320.558 491.69 307.343 491.99C301.933 492.112 297.601 491.202 293.657 487.371C287.442 480.369 282.443 472.507 277.361 464.668C262.634 441.964 250.277 417.924 237.282 394.223C223.915 369.839 208.525 345.744 190.958 324.149C189.753 324.033 188.226 324.027 187.083 323.667C185.571 323.185 185.401 322.464 184.72 321.167C185.14 317.635 189.285 311.675 190.903 308.365C194.64 300.731 197.466 292.459 200.524 284.525C197.034 276.486 192.969 268.68 189.248 260.74C184.534 250.689 180.099 240.52 175.171 230.569C170.702 229.327 167.218 228.24 163.966 224.67C161.456 221.92 159.678 218.05 160.049 214.263C160.4 210.67 161.917 208.27 164.632 206.008ZM222.115 117.672C222.168 121.153 220.475 128.089 222.187 130.745C223.365 131.044 224.127 130.978 225.321 130.778L226.026 129.791C226.804 125.567 227.885 121.564 229.268 117.494C226.89 117.544 224.488 117.522 222.115 117.672ZM212.574 119.235C210.312 119.656 207.978 119.989 205.764 120.616C205.182 123.432 204.338 126.321 204.669 129.204C205.707 130.157 205.125 129.924 206.348 130.046L213.351 129.819C214.047 126.736 215.804 122.146 214.214 119.257L212.574 119.235ZM235.074 118.858C234.419 121.952 231.809 128.483 233.31 131.177C233.806 132.07 235.506 132.192 236.427 132.336C236.703 132.38 236.978 132.414 237.254 132.453C237.987 128.427 239.092 124.558 238.47 120.466C237.363 119.318 236.587 119.279 235.074 118.858ZM245.696 121.697C245.232 124.635 243.74 129.387 245.42 132.037C246.06 133.046 246.977 133.495 248.127 133.689C249.498 133.922 250.894 134.055 252.275 134.199C252.417 130.579 250.649 126.371 248.172 123.743C247.423 122.95 246.589 122.318 245.696 121.697ZM197.755 123.438C194.652 125.167 191.817 126.947 189.007 129.126C192.491 132.303 192.525 134.637 192.74 139.183L193.94 140.092C195.917 140.109 198.042 140.004 199.439 138.379C199.953 137.781 199.879 136.888 199.977 136.139C199.353 134.62 198.319 133.75 197.153 132.658C197.599 129.769 198.113 126.897 198.248 123.975L197.755 123.438ZM204.353 133.384C203.712 135.214 203.297 136.311 203.768 138.23C205.968 140.553 208.79 140.148 211.781 140.226L212.825 133.672L204.353 133.384ZM219.461 134.232C218.823 136.25 217.793 138.485 218.279 140.608C220.05 142.421 222.071 142.366 224.504 142.571C224.92 139.937 225.385 137.304 225.663 134.648L219.461 134.232ZM231.444 135.025C230.899 137.431 229.978 140.02 230.593 142.46C231.711 143.707 232.63 144.029 234.309 144.095C234.909 144.118 235.509 144.095 236.11 144.09C236.69 141.839 237.503 139.577 237.236 137.237C236.333 135.94 236.164 135.652 234.531 135.28C233.567 135.064 232.435 135.081 231.444 135.025ZM261.357 135.663C260.639 143.635 259.749 151.414 257.391 159.104C259.09 161.615 261.16 167.448 264.564 167.653C265.936 167.736 267.653 167.043 268.958 166.627C270.571 166.156 271.591 166.134 272.682 164.82C272.186 156.659 266.38 142.199 261.357 135.663ZM181.052 136.455C178.997 140.115 178.993 142.099 180.179 146.152C181.294 149.961 183.106 153.731 184.641 157.396C184.956 151.547 185.21 145.792 186.356 140.026L181.052 136.455ZM243.906 137.686C243.326 139.715 242.411 141.867 242.947 143.973C243.859 145.038 244.412 145.498 245.854 145.681C248.049 145.953 250.466 145.797 252.685 145.803L253.637 138.762C250.41 138.374 247.148 137.88 243.906 137.686ZM195.244 142.238C194.977 142.327 194.714 142.432 194.443 142.515C193.512 142.804 193.249 142.831 192.36 142.571C191.204 143.469 190.914 143.996 190.459 145.382C190.725 146.834 190.807 147.777 191.781 148.941L194.431 149.346C196.092 149.279 196.563 149.49 197.849 148.37C198.457 146.995 198.734 145.992 198.303 144.489C197.863 142.953 197.489 142.671 196.218 141.9L195.244 142.238ZM204.52 142.831C204.387 142.964 204.257 143.103 204.123 143.236C202.797 144.567 201.837 145.21 200.098 145.908C200.666 147.477 202.316 149.562 203.865 150.272C204.405 150.516 204.904 150.56 205.489 150.71C205.747 150.776 206.001 150.865 206.257 150.937C208.041 150.743 208.824 150.898 210.089 149.396C210.902 148.431 211.131 147.239 210.838 146.025C210.54 144.788 209.546 143.668 208.372 143.214C207.341 142.82 205.637 142.881 204.52 142.831ZM217.01 145.032C216.401 147.167 215.775 149.279 215.418 151.475L222.628 153.105L224.053 145.919C221.735 145.587 219.348 145.11 217.01 145.032ZM228.911 146.84L227.316 153.776C229.73 154.208 232.148 154.618 234.569 155.006C235.021 152.628 235.461 150.272 235.728 147.86L228.911 146.84ZM241.55 149.074L240.66 155.81L250.525 157.723C250.983 154.995 251.425 152.268 251.851 149.54C248.405 149.534 244.962 149.623 241.55 149.074ZM173.773 149.351C172.983 151.813 172.222 154.236 171.667 156.758C173.591 159.17 180.114 168.789 182.141 169.671C183.12 168.446 183.721 167.902 183.593 166.206C183.337 162.818 176.222 152.051 173.773 149.351ZM190.127 152.151L189.67 159.142C192.18 159.375 194.711 159.758 197.221 159.409L198.438 152.423C195.673 152.318 192.895 152.146 190.127 152.151ZM202.276 153.277C201.646 155.744 201 158.178 200.622 160.7L207.541 161.887C208.056 159.702 208.979 157.274 208.232 155.084C206.5 153.487 204.548 153.443 202.276 153.277ZM214.62 155.4C214.117 157.812 213.58 160.207 213.307 162.663C215.809 163.051 218.216 163.445 220.758 163.423C221.147 161.183 221.587 158.937 221.877 156.681C219.48 156.21 217.053 155.622 214.62 155.4ZM226.606 157.657C226.048 159.558 225.247 161.343 225.903 163.312C226.914 164.493 249.076 166.866 250.525 167.254C250.493 168.673 251.515 167.331 250.525 168.268C249.255 169.477 225.029 166.494 224.504 168.268C225.121 169.366 225.514 173.036 226.745 173.319C227.839 173.568 229.053 173.602 230.173 173.679L231.634 173.79C233.631 171.822 234.558 163.938 234.563 161.138C234.565 159.819 234.762 160.035 233.738 159.026C231.365 158.449 229.022 158.006 226.606 157.657ZM240.216 159.835C239.709 163.223 237.453 171.096 239.745 173.945C240.337 174.677 241.05 174.905 241.971 175.06C243.775 175.365 246.696 174.311 248.448 173.873C248.813 173.219 249.012 173.058 249.001 172.288C248.949 168.839 249.154 165.224 249.637 161.809C246.543 161.116 243.353 160.224 240.216 159.835ZM189.402 162.286C189.203 164.282 188.769 166.372 189.574 168.268C191.493 169.798 193.314 169.56 195.673 169.471C196.066 167.581 196.795 165.468 196.028 163.628C194.065 162.28 191.749 162.413 189.402 162.286ZM200.151 164.343C199.881 166.245 199.348 167.814 200.115 169.615C201.832 170.453 203.894 170.275 205.774 170.308C206.135 168.479 206.606 167.653 205.792 165.94C204.006 165.008 202.112 164.737 200.151 164.343ZM212.765 166.084C212.518 168.035 212.041 169.1 213.006 170.852C214.847 171.706 216.947 171.756 218.946 171.95C219.271 170.031 219.755 169.039 218.901 167.254C217.112 166.272 214.769 166.289 212.765 166.084ZM283.753 169.56C274.382 172.049 265.081 174.788 255.858 177.771C244.231 181.657 167.884 209.417 165.347 213.459C164.568 214.701 164.505 215.86 164.894 217.246C165.668 220.012 168.754 221.981 171.059 223.311C171.743 223.378 172.831 223.644 173.48 223.55C176.986 223.039 182.616 219.419 186.019 217.906L213.388 206.024C228.674 199.382 244.234 193.389 260.025 188.061C263.643 186.863 284.9 181.142 286.67 179.562C287.498 178.819 287.748 178.309 288.086 177.289C287.968 174.894 287.379 171.833 285.342 170.264C284.966 169.976 284.238 169.654 283.753 169.56ZM189.002 172.221C188.692 178.065 188.202 184.396 189.128 190.179L189.615 190.506L190.058 188.782L190.149 187.895C190.62 183.482 193.727 177.089 192.402 172.997C191.157 172.216 190.448 172.304 189.002 172.221ZM179.622 173.269C178.174 174.284 176.651 175.254 175.257 176.335C172.802 184.657 175.94 191.626 176.094 199.953L176.758 200.885C178.337 200.33 179.625 200.075 180.811 198.845C181.56 191.41 183.398 181.391 182.539 174.156C181.432 173.369 180.994 173.408 179.622 173.269ZM199.235 173.119C198.198 179.645 197.282 186.226 196.074 192.724C197.826 191.942 199.577 191.088 201.372 190.417C203.529 187.8 204.448 177.971 204.685 174.239C203.607 173.086 200.839 173.258 199.235 173.119ZM211.205 174.522C210.549 178.691 209.757 182.894 209.49 187.107L215.159 184.468C217.015 182.783 217.515 178.331 218.08 175.864L211.205 174.522ZM223.545 176.413C223.109 178.115 222.521 179.129 223.166 180.793C225.106 181.064 227.256 179.833 229.03 179.107L230.701 178.348L230.704 177.616C228.403 176.723 225.983 176.64 223.545 176.413ZM283.599 187.263C248.937 198.456 216.322 214.84 182.259 227.625C193.573 250.866 203.725 274.662 215.384 297.726L221.25 309.812C244.251 304.379 282.941 293.462 302.43 280.422C300.719 262.636 297.202 245.477 294.016 227.924C291.558 214.391 290.191 200.685 285.14 187.773C284.003 187.168 284.538 187.252 283.599 187.263ZM308.292 264.527C306.877 267.454 308.536 272.904 309.132 275.998L314.555 271.707C317.072 269.456 319.025 267.327 321.057 264.61C316.776 264.316 312.579 264.244 308.292 264.527ZM325.107 270.797C318.611 276.48 312.106 281.975 304.65 286.382C278.704 301.723 227.455 316.981 197.469 321.228C201.217 326.938 205.704 332.083 209.722 337.594C212.878 341.93 215.723 346.587 218.667 351.072C234.33 374.934 248.543 399.601 262.874 424.272C273.92 443.35 285.754 461.962 298.347 480.058C300.421 464.008 301.366 447.774 304.307 431.857C308.293 410.29 315.254 389.621 321.403 368.625C324.169 359.178 333.66 341.503 334.687 334.101C335.677 326.971 328.974 277.334 325.669 271.052L325.107 270.797ZM205 294.089C203.124 300.459 202.013 306.901 201.16 313.477L209.375 311.958C210.975 311.719 213.165 311.658 214.454 310.627C214.242 309.529 213.892 309.258 213.281 308.387C210.251 304.063 208.475 297.925 205 294.089ZM334.637 356.738C332.005 363.58 329.88 370.599 327.872 377.651C330.775 379.813 334.057 383.218 337.251 384.698C337.174 384.421 337.109 384.138 337.02 383.866C335.819 380.152 330.668 378.438 330.389 373.837C331.201 372.933 330.791 373.022 331.832 372.988C333.356 372.933 334.979 373.948 336.315 374.602C335.669 369.019 336.041 362.083 334.637 356.738ZM326.874 380.606L324.157 388.601C328.854 391.146 332.678 394.389 336.772 397.777L337.58 397.316C337.778 395.354 337.212 393.885 336.004 392.382C332.86 388.468 327.54 385.912 326.874 380.606ZM323.12 393.153L321.229 398.508C327.437 403.26 332.936 408.876 339.261 413.461C339.878 412.097 339.626 411.449 339.068 410.118C337.186 405.633 327.34 395.348 323.12 393.153ZM320.191 401.114C316.668 413.578 314.766 426.429 311.381 438.937C311.542 439.109 311.701 439.281 311.865 439.453C317.518 445.307 340.305 456.811 340.407 464.058C339.732 464.634 339.573 465.122 338.612 464.973C333.706 464.23 316.311 449.088 312.423 444.975C312.115 443.572 311.83 442.169 311.43 440.789C310.727 444.814 309.445 449.454 309.679 453.518L310.333 454.183C310.534 454.178 310.735 454.161 310.936 454.156C312.14 454.134 313.349 454.172 314.447 454.721C317.043 456.019 319.604 458.125 322.008 459.767C327.811 463.736 333.55 467.706 339.858 470.844C342.809 468.732 346.144 466.83 346.742 462.927C347.212 459.855 345.597 456.163 344.679 453.235C344.631 453.003 344.585 452.77 344.535 452.537C343.746 448.928 342.625 448.024 339.598 446.106C332.889 441.848 317.237 435.804 315.598 427.333C315.5 426.823 315.495 426.496 315.454 425.952L316.105 425.293C323.552 427.178 334.883 439.458 342.825 442.108L343.343 441.587C343.139 439.109 343.464 437.811 341.432 436.093C334.169 429.95 322.526 424.694 318.295 415.795L318.625 414.537C320.027 413.949 320.64 413.971 322.085 414.515C328.335 416.865 336.95 424.954 342.408 429.157C342.216 424.661 341.58 423.103 338.184 420.031C332.002 414.431 322.233 409.869 320.191 401.114ZM309.154 455.453C308.874 458.198 308.629 460.953 308.249 463.692C314.981 467.661 320.825 471.936 326.27 477.569L332.56 475.063L333.495 474.376C331.718 471.759 314.328 461.901 309.154 455.453ZM308.009 467.501C307.736 469.558 307.374 471.637 307.255 473.705C310.552 474.991 316.136 480.108 317.542 480.363C318.474 480.53 320.06 479.97 320.965 479.704L321.02 478.733C316.735 474.985 312.501 470.994 308.009 467.501ZM306.901 476.943C306.744 478.772 306.062 481.738 307.092 483.324C308.811 483.684 309.92 483.102 311.585 482.603C311.591 480.934 310.589 480.147 309.397 478.983C308.672 478.273 307.763 477.48 306.901 476.943Z" fill="#010101"/>
<path d="M323.008 158.73C322.129 159.279 321.299 159.614 320.34 160L320 159.446C320.226 159.038 320.438 158.63 320.698 158.244C331.572 142.041 367.702 119.374 385.892 115.123C387.051 115.017 388.189 115.011 389.352 115L390 115.671C385.846 123.999 353.373 138.68 344.141 144.251C336.783 148.686 329.92 153.652 323.008 158.73Z" fill="#010101"/>
<path d="M139 176C127.841 175.404 100.689 168.471 91.1307 163.299C88.6487 161.956 86.861 160.964 86 158.133C90.415 157.698 95.0259 158.4 99.3607 159.225C108.318 160.925 133.816 168.482 139 176Z" fill="#010101"/>
<path d="M404.89 213C390.99 212.984 377.513 208.247 363.821 206.407C359.993 205.895 343.278 205.614 341 203.899L341.325 203.041C344.474 200.764 348.67 199.923 352.463 199.167C375.913 197.355 393.436 210.88 416 210.265C412.259 211.673 408.852 212.504 404.89 213Z" fill="#010101"/>
<path d="M212.445 238.659C212.113 236.755 211.845 234.71 212.103 232.783C212.374 230.755 213.212 228.262 214.905 227.041C214.591 230.615 214.33 234.083 215.174 237.617C216.2 241.92 218.493 246.256 222.402 248.591C225.89 250.675 230.231 251.275 234.125 250.031C235.587 249.561 236.222 249.152 236.952 247.835C235.571 245.701 232.036 244.138 229.945 242.631C225.203 239.208 227.297 231.635 225.61 226.772C224.729 224.235 224.164 221.675 225.517 219.182C226.9 216.633 229.366 214.879 232.083 214C235.234 214.045 238.183 214.655 241.067 215.944C246.974 218.577 252.06 223.904 254.11 230.038C255.656 234.671 255.153 239.36 252.872 243.662C250.044 248.995 244.959 253.252 239.146 255.022C234.01 256.585 228.259 256.344 223.483 253.79C217.467 250.574 214.437 244.877 212.445 238.659ZM233.155 220.028L232.366 221.624L232.981 222.111C236.556 224.996 240.186 228.884 240.97 233.573C241.225 235.097 240.894 235.662 240.065 236.912L237.537 238.239C237.153 239.516 237.034 239.035 237.554 240.065C238.59 242.127 240.96 243.718 242.443 245.505C246.094 241.92 248.655 238.2 248.704 232.889C248.735 229.579 247.464 226.43 245.06 224.123C241.704 220.901 237.666 220.044 233.155 220.028Z" fill="#010101"/>
<path d="M85.6988 257C84.6646 256.793 84.0997 256.547 83.1773 256.071L83 255.253C83.1089 255.096 83.2035 254.923 83.3268 254.777C90.9773 245.707 124.475 240.803 136.751 239.118C137.419 239 138.315 239.028 139 239L138.984 239.42C128.158 247.163 98.7626 255.337 85.6988 257Z" fill="#010101"/>
<path d="M117.04 329L116.039 327.417C115.969 326.67 115.967 326.054 116.262 325.345C121.2 313.534 159.226 291.38 171.579 286L172 286.148L171.898 286.94C158.912 298.888 133.022 322.24 117.04 329Z" fill="#010101"/>
</svg>
