<svg width="500" height="500" viewBox="0 0 500 500" fill="none" xmlns="http://www.w3.org/2000/svg">
<path d="M119.644 449.857C111.571 458.75 101.721 467.453 91.3979 473.637C86.6739 476.468 81.8134 478.987 76.2433 477.614C73.9447 476.033 72.9651 474.792 72.5908 471.942C71.759 465.634 73.7193 458.636 73.977 452.225C74.4213 441.145 74.1333 429.733 73.5696 418.672C68.3055 315.381 51.3421 211.966 28.4846 111.251C27.3988 106.459 25.756 99.8961 28.5178 95.5019C37.9489 88.8255 62.3876 86.1359 74.4829 83.0676C103.333 75.7471 131.919 67.6691 160.915 60.8695C192.998 53.3597 225.354 47.2229 257.658 40.7832C298.115 32.7241 338.969 25.2237 380.023 21L383.33 21.2652C385.348 22.5721 386.267 23.9074 387.243 26.0477C393.733 40.2908 397.627 57.1003 402.554 72.0443C414.795 109.139 426.827 146.177 438.112 183.575C445.132 206.852 451.064 230.272 456.796 253.891C466.839 295.304 474.693 331.243 472.685 374.361C472.296 382.552 472.751 392.809 468.525 400.129C466.64 403.377 463.068 405.726 459.458 406.654C443.465 410.783 433.403 393.396 421.493 386.994C421.2 386.843 420.906 386.7 420.622 386.549C415.894 394.4 410.787 402.544 403.312 408.065C398.745 411.427 393.107 413.747 387.366 412.649C380.354 411.304 377.133 406.664 373.277 401.247C364.295 410.13 355.105 416.986 343.517 422.09C330.414 419.647 324.919 412.062 316.486 402.734C312.583 411.768 309.039 421.106 302.729 428.805C296.173 436.807 285.182 444.961 274.656 445.652C266.233 446.202 260.719 442.253 254.699 437.025C252.701 439.317 250.685 441.609 248.503 443.73C242.718 449.346 235.12 454.962 226.635 454.602C217.909 454.242 212.279 448.361 206.797 442.347C203.154 448.086 196.517 455.236 189.626 456.78C180.121 458.901 170.639 449.137 163.337 444.166C161.348 444.904 160.274 447.205 159.031 448.91C158.661 449.478 158.298 450.046 157.898 450.596C154.147 455.7 149.392 461.288 142.679 461.979C133.651 462.907 125.999 455.123 119.644 449.857ZM375.494 33.5669C347.136 34.1446 317.386 41.2758 289.436 46.3234C205.15 61.7503 121.538 80.6432 38.8101 102.955C54.3086 170.421 66.4039 238.615 75.0485 307.293C81.8731 358.328 87.8421 409.486 87.051 461.051C93.1043 455.994 114.517 433.682 120.448 434.506C128.532 435.633 134.915 451.808 143.11 446.912C151.064 442.158 151.738 427.65 163.662 429.506C165.747 429.837 167.768 430.813 169.679 431.674C174.846 436.04 180.189 441.343 186.333 444.222C186.662 443.995 186.996 443.777 187.324 443.54C193.149 439.449 201.871 426.721 209.178 427.763C216.066 428.748 222.284 438.247 226.455 443.247C226.817 443.039 227.18 442.83 227.54 442.622C236.436 437.385 247.161 420.812 258.255 423.738C267.123 426.068 268.535 436.05 279.848 430.708C283.363 429.042 287.854 426.22 290.365 423.236C297.31 414.988 305.477 384.409 318.561 388.007C327.59 390.489 334.677 403.33 342.039 409.116C345.82 406.825 350.102 404.495 353.248 401.37C358.222 396.436 365.508 382.676 373.798 385.223C382.003 387.742 384.798 402.336 395.59 397.525C406.713 392.563 409.167 370.933 426.126 376.113C433.64 378.414 450.495 394.154 455.81 392.316C463.523 381.804 459.941 332.673 457.866 319.244C444.791 234.448 415.856 152.825 389.384 71.533C387.404 65.4815 379.454 36.0671 376.214 33.3776L375.494 33.5669Z" fill="#2B2B2B"/>
<path d="M358.347 115.772C356.667 109.082 354.151 102.516 353.249 95.656C352.765 91.9607 353.373 90.8994 355.679 88C356.012 88.1706 356.373 88.3032 356.695 88.5117C361.423 91.6195 363.815 108.428 365.286 114.066C368.22 114.455 372.302 114.208 374.846 115.677C376.052 116.378 375.662 116.444 375.985 118.027C374.096 120.178 371.865 120.613 369.255 121.551L368.02 121.987C367.688 123.001 367.527 123.257 367.574 124.489C367.755 129.34 374.466 149.863 376.222 156.733C383.788 186.333 390.177 216.189 398.417 245.628C402.594 260.542 421.21 319.478 419.938 328.991C418.22 330.62 418.324 330.696 415.97 330.725C411.014 325.542 406.875 301.674 404.531 293.08C397.876 268.606 390.367 244.444 384.149 219.837C375.938 187.318 369.084 154.525 360.255 122.139C305.253 128.421 250.362 138.73 195.68 147.456C164.488 152.44 133.172 156.193 101.849 160.238C103.353 181.141 111.453 201.408 112.768 222.225C123.209 215.668 136.876 208.344 149.159 206.468C151.644 203.862 154.312 200.242 157.824 199.134C159.581 200.934 159.466 204.061 159.781 206.553C160.205 209.907 160.591 211.243 162.81 213.953C163.006 214.199 163.212 214.436 163.414 214.673C168.448 219.941 173.684 224.631 179.447 229.094C172.508 243.667 162.584 249.21 152.519 260.77C144.739 269.705 138.53 281.217 133.352 291.81L131.993 292.208L129.795 289.242L129.085 289.28C130.205 303.417 135.601 318.587 139 332.402C143.284 349.817 146.727 367.412 150.885 384.856C153.365 395.25 157.128 405.929 157.353 416.654L155.604 418C152.92 415.413 151.169 411.026 149.954 407.549C145.078 393.601 142.596 377.712 139.137 363.291C132.418 335.282 125.507 307.454 119.325 279.303C116.925 268.378 114.408 247.846 109.357 238.674C107.913 236.049 105.338 233.33 102.398 232.591C100.636 233.728 99.2303 234.836 97.1114 235.13C96.7725 231.008 99.6147 227.067 102.097 223.911C103.843 223.476 105.284 223.049 106.871 222.187C106.012 213.782 103.393 205.151 101.605 196.869C99.0442 185.006 97.1475 173.248 95.8033 161.177C86.7669 161.84 77.795 164.493 68.7852 164.407C66.9236 163.28 66.8971 162.91 66 160.892L66.8677 159.12C69.465 157.358 72.0309 156.657 75.1256 156.136C83.4766 154.762 92.2226 154.316 100.65 153.265C124.011 150.413 147.355 147.409 170.68 144.282C233.307 135.262 295.674 124.631 358.347 115.772Z" fill="#2B2B2B"/>
<path d="M220.088 246.03C218.917 241.887 217.288 237.639 217.657 233.296C219.187 232.521 218.757 232.511 220.283 232.454C225.691 232.237 240.484 233.173 244.164 237.005C244.51 237.364 244.817 237.762 245.143 238.14L246.87 237.45C247.368 236.503 247.918 235.586 248.144 234.526C248.752 231.669 247.729 229.503 246.476 227.043C239.348 220.676 224.218 225.113 215.335 224.735L214.03 223.069C213.938 221.281 214.022 220.241 214.785 218.566C217.616 212.341 230.887 201.149 237.472 199.002C241.584 197.658 244.327 199.333 248.482 196.495C255.622 191.632 256.797 183.969 262.885 178.794C269.18 173.439 279.843 170.96 287.623 168.056C298.229 167.668 312.89 169.248 322.324 174.205C325.386 175.823 327.958 178.434 331.058 179.853C333.232 180.847 333.922 178.491 336.796 179.853C337.07 180.714 337.372 181.556 337.618 182.427C338.053 183.997 338.393 185.388 339.093 186.883C340.397 189.683 341.541 192.162 341.881 195.274C342.883 204.281 337.354 210.931 332.24 217.563C332.854 225.86 333.034 233.523 332.523 241.839C328.251 242.937 321.52 245.567 317.21 245.132C312.332 244.63 310.29 242.047 307.058 238.708C303.588 235.122 299.042 233.798 294.476 232.066C293.861 236.04 293.266 240.042 292.491 243.987C291.612 248.443 290.43 253.485 286.526 256.096L284.362 255.548C281.337 252.747 280.325 248.528 278.936 244.734C280.722 242.814 281.866 241.754 282.509 239.124L281.393 238.187C276.09 239.19 270.088 243.372 265.711 246.399C264.445 249.767 271.487 260.836 272.621 265.197C275.155 274.942 275.192 284.156 274.805 294.175C271.317 299.303 266.364 303.201 262.79 308.395L261.58 309C260.531 308.678 260.295 308.678 259.274 307.988C253.961 304.383 252.143 290.694 250.88 284.686L247.072 284.052C243.779 281.829 241.317 275.046 239.467 271.413C235.474 273.267 231.869 275.491 228.168 277.846C226.552 275.169 224.571 272.529 222.343 270.344C220.036 268.073 218.199 266.191 217.118 263.059C215.235 257.601 217.86 251.044 220.088 246.03Z" fill="#2B2B2B"/>
<path d="M181.03 209.991C177.926 206.406 174.808 203.076 171.289 199.86C170.96 197.221 170.628 196.18 172.019 193.758C176.856 185.368 196.429 184.346 205.381 182C207.385 182.804 207.654 183.126 208.994 184.828C209.134 188.726 206.771 192.415 204.99 195.802C202.131 201.231 197.005 211.448 190.502 212.782C186.612 213.576 184.05 212.101 181.03 209.991Z" fill="#2B2B2B"/>
<path d="M348.581 262.106C347.554 262.481 346.243 262.721 345.178 263L344 261.808C344.361 256.341 347.915 251.295 351.051 247C353.304 247.663 355.908 248.403 357.419 250.315C358.359 251.497 357.903 252.372 357.789 253.765C355.461 257.474 352.049 259.589 348.581 262.106Z" fill="#2B2B2B"/>
<path d="M368.347 286.032C362.729 286.503 353.341 285.834 347.875 284.628C345.333 284.062 344.295 283.459 343 281.281C344.266 275.457 359.72 263.505 364.605 259C378.935 261.535 377.621 270.48 383.686 277.813C384.419 278.708 387.304 279.915 388.428 280.565C389.275 282.846 389.161 282.78 388.219 285.052C384.638 288.284 378.982 290.151 374.117 289.99C370.937 289.887 370.223 288.19 368.347 286.032Z" fill="#2B2B2B"/>
<path d="M179.905 309.103C178.778 308.367 177.713 307.669 176.682 306.779C172.485 303.183 160.603 293.629 160 288.311C163.947 283.806 172.131 286.417 179.391 280.803L180.413 280C184.136 281.042 187.119 284.763 190.863 286.331C193.287 287.336 195.688 288.378 197.841 289.956C200.472 291.888 202.574 294.748 202.932 298.172C203.784 306.339 196.447 314.918 192.237 321.03C192.904 327.648 193.157 334.209 193.319 340.865L189.315 346.489C186.996 349.741 185.886 351.539 185.561 355.69C185.535 356.015 185.523 356.35 185.504 356.684L184.206 357C180.982 340.598 180.228 325.831 179.905 309.103Z" fill="#2B2B2B"/>
</svg>
