<svg width="1024" height="1024" viewBox="0 0 1024 1024" fill="none" xmlns="http://www.w3.org/2000/svg">
<path d="M130.204 379.296C168.795 417.03 205.332 458.4 243.913 496.41C240.576 475.913 238.533 455.103 237.97 434.393C236.458 378.619 245.102 321.905 265.832 271.71C285.706 223.722 316.623 182.102 353.077 151.489C385.87 124.022 424.232 105.017 463.418 95.7156C503.25 86.2131 543.656 85.8747 583.822 92.5815C671.797 107.274 755.59 158.007 821.366 229.2C886.703 299.867 938.432 390.804 961.195 493.689C966.94 519.689 971.216 546.14 972.968 572.967C974.845 601.612 974.104 630.07 971.216 658.564C965.679 712.62 948.203 767.667 920.956 811.343C892.772 856.498 855.703 892.879 811.96 914.228C791.512 924.219 770.011 933.282 747.77 934.887C746.664 934.962 745.559 935 744.464 935C736.446 935 728.667 933.132 720.68 932.581C714.403 932.668 708.167 933.357 701.91 933.909C683.83 935.526 667.938 917.111 667.125 895.812C666.312 873.623 680.733 855.658 698.814 854.041C701.42 853.803 703.996 853.603 706.592 853.314C708.198 853.051 709.793 852.713 711.389 852.324C712.233 852.023 713.078 851.697 713.912 851.359C717.802 849.152 721.441 846.394 725.372 844.25C734.037 839.524 743.015 835.663 751.857 831.576C760.814 827.051 769.532 822.2 778.259 817.06C778.447 816.935 778.634 816.809 778.822 816.684C779.135 816.483 779.792 816.045 780.449 815.606C781.074 815.193 781.69 814.791 782.315 814.378C783.295 813.713 785.715 812.095 788.144 810.503C789.792 809.349 796.027 804.173 802.221 798.97C807.497 793.981 812.659 788.866 817.758 783.588C823.149 777.082 828.373 770.501 833.503 763.706C837.997 756.699 842.324 749.603 846.537 742.307C850.239 734.722 853.763 727.062 857.173 719.215C861.437 707.167 865.202 695.095 868.517 682.647C870.155 674.548 871.646 666.45 872.98 658.277C874.273 646.468 875.16 634.683 875.733 622.762C875.733 608.759 875.233 594.881 874.211 580.903C872.626 567.176 870.666 553.637 868.194 540.098C864.514 523.425 860.113 507.127 855.129 490.968C849.185 473.994 842.637 457.522 835.442 441.25C827.184 424.151 818.289 407.728 808.759 391.695C799.416 377.002 789.594 362.962 779.229 349.322C767.091 334.304 754.401 320.125 741.096 306.636C728.135 294.401 714.82 283.018 701.035 272.162C686.228 261.443 671.077 251.653 655.478 242.677C641.276 235.256 626.897 228.787 612.173 223.058C598.545 218.432 584.864 214.71 570.933 211.651C557.889 209.495 544.886 208.027 531.696 207.426C520.382 207.463 509.152 207.952 497.901 209.268C489.152 210.609 480.487 212.565 471.874 214.872C463.501 217.592 455.295 220.739 447.152 224.325C440.593 227.697 434.18 231.369 427.798 235.28C420.77 240.144 413.941 245.347 407.278 250.95C401.532 256.266 395.974 261.82 390.583 267.675C386.371 272.815 382.294 278.054 378.352 283.495C374.431 289.575 370.74 295.844 367.205 302.287C362.92 311.012 359.01 319.925 355.371 329.089C351.596 339.707 348.249 350.463 345.287 361.47C342.597 373.204 340.355 385.001 338.593 396.973C337.133 409.684 336.195 422.371 335.84 435.183C335.809 450.201 336.424 465.206 337.675 480.187C339.928 500.897 343.483 521.394 347.394 541.752C398.143 469.093 495.805 306.474 514.366 451.041C476.953 529.768 430.749 609.561 374.494 670.625C290.356 756.272 141.017 527.336 66.3889 473.38C20.1439 424.652 81.4877 334.604 130.225 379.246L130.204 379.296Z" fill="black"/>
<path d="M400.615 963.688C399.24 963.83 397.645 964.083 396.246 963.973C391.502 963.633 387.025 960.988 383.963 957.421C380.459 953.338 378.485 947.949 377.822 942.67C375.246 922.135 379.407 898.143 380.99 877.542C382.87 853.121 384.026 828.624 386.262 804.226C388.823 776.272 393.683 704.119 402.947 680.072C405.567 673.278 408.573 668.8 414.193 664.147C416.706 664.004 419.278 663.84 421.765 664.322C426.523 665.233 430.505 668.131 432.953 672.269C448.151 697.973 430.394 838.151 426.383 875.566C424.175 896.167 423.315 918.249 418.686 938.4C415.946 950.32 411.044 957.3 400.615 963.688Z" fill="black"/>
<path d="M557.123 965.955C540.766 965.196 530.123 960.903 517.041 951.377C490.946 932.373 478.166 900.926 473.515 869.707C467.228 827.516 480.946 770.252 506.609 736.115C520.131 718.136 537.667 702.232 560.58 699C578.183 700.797 599.928 709.756 612.153 722.839C637.142 749.596 648.174 802.941 646.901 838.549C645.56 876.11 635.21 919.555 606.695 946.011C592.845 958.853 576.223 966.667 557.123 965.955ZM563.705 751.537C544.235 759.869 534.553 777.064 526.91 795.947C515.721 823.597 509.722 858.204 521.824 886.613C527.145 899.093 536.186 909.439 549.16 914.057C550.936 914.684 552.747 915.106 554.579 915.54C566.324 914.636 572.735 913.056 580.792 903.602C598.204 883.164 603.465 842.432 601.015 816.579C599.18 797.214 590.752 768.202 574.981 755.77C571.546 753.057 568.003 751.911 563.705 751.537Z" fill="black"/>
</svg>
