<svg width="1062" height="1062" viewBox="0 0 1062 1062" fill="none" xmlns="http://www.w3.org/2000/svg">
<path d="M254.711 434.072C254.448 431.645 254.222 429.233 254.03 426.805C251.826 392.636 250.403 358.406 249.764 324.175C248.841 247.801 253.02 171.09 306.105 110.652C356.797 52.9455 424.801 40.2289 497.701 35.3048C563.512 32.8558 630.476 44.6491 681.461 89.4945C699.101 105.007 713.282 124.43 725.309 144.48C779.507 234.742 761.959 323.192 768.157 422.119C800.762 421.628 833.398 421.812 866.004 421.735C884.798 421.689 904.823 420.168 923.417 422.611C930.845 423.594 936.89 425.269 943.349 429.079C948.117 434.856 949.24 447.685 949.932 455.213C952.547 483.851 952.393 513.273 953.654 542.049C956.945 612.047 959.391 682.075 960.99 752.134C962.943 819.504 968.511 886.92 969.618 954.275C969.88 970.254 972.402 992.101 959.96 1004.28C951.639 1012.43 936.998 1014.16 925.847 1015.7C882.107 1021.72 835.475 1020.52 791.304 1021.61C715.081 1023.95 638.843 1025.3 562.589 1025.66C485.182 1026.18 407.615 1027.87 330.227 1026.44C271.362 1025.35 211.378 1019.66 152.658 1023.93C148.798 1022.14 145.082 1020.03 141.545 1017.65C131.938 1011.11 125.632 1002.75 123.45 991.318C120.574 976.261 120.709 959.775 119.782 944.489L114.58 863.521C110.802 808.504 81.4767 463.371 96.0169 441.631C115.923 433.366 224.656 435.117 254.711 434.072ZM486.828 55.4852C425.594 58.1185 366.426 72.1503 323.636 119.13C265.408 183.058 266.199 264.794 270.485 345.915C272.021 375.014 275.045 404.144 274.764 433.289C299.984 432.935 325.121 432.551 350.304 431.015C333.93 373.493 334.339 240.872 363.31 188.236C383.018 152.423 427.468 134.278 464.892 123.554C478.092 119.775 490.857 117.609 504.53 116.426C555.961 118.438 602.838 135.692 638.397 174.101C651.347 188.083 660.913 204.414 665.804 222.866C672.925 249.707 670.879 279.512 670.648 307.09C670.31 344.486 670.033 387.243 678.185 423.763L740.242 422.918C738.197 385.046 736.705 347.144 735.736 309.226C734.414 248.816 739.012 201.941 705.776 148.428C696.133 132.911 684.89 118.408 671.248 106.177C619.187 59.4675 553.946 51.6796 486.828 55.4852ZM483.398 157.908C449.301 164.499 418.738 177.22 398.776 207.18C366.303 255.914 379.791 376.228 385.774 432.582C436.64 431.292 487.489 429.356 538.304 426.759C575.232 425.33 612.159 424.347 649.101 423.794C645.81 395.263 643.288 366.656 641.55 338.002C638.566 283.415 642.688 223.388 595.056 185.517C564.542 161.257 521.11 155.434 483.398 157.908ZM694.518 441.063C615.758 442.015 537.012 444.151 458.301 447.47C342.297 451.065 226.271 453.938 110.231 456.058C108.73 570.795 119.737 685.885 128.867 800.13C133.442 863.045 137.441 926.021 140.863 989.013C210.391 988.045 280.004 993.714 349.639 993.115C464.609 992.915 579.569 991.993 694.533 990.319C774.493 989.581 856.668 992.27 935.967 980.501C931.738 832.563 926.37 684.656 919.864 536.795C918.495 505.268 918.495 473.511 916.819 442.046C880.845 439.235 844.78 440.034 808.729 440.126C770.664 439.987 732.583 440.295 694.518 441.063Z" fill="black" stroke="black" stroke-width="20"/>
</svg>
