<svg width="1024" height="1024" viewBox="0 0 1024 1024" fill="none" xmlns="http://www.w3.org/2000/svg">
<path d="M450.078 901.031C371.966 886.362 302.778 859.386 240.246 809.149C161.211 745.685 101.076 644.872 90.6359 543.415C81.0794 450.52 83.5099 361.606 141.929 290.5C164.62 262.88 210.319 216.794 240.246 197C328.246 138.797 407.869 124.483 507 115C529.289 112.852 622.131 118.499 644.408 120.74C727.915 129.118 787.303 166.681 839.468 231.28C908.346 316.595 945.013 422.778 932.559 532.797C919.734 646.1 858.909 746.973 769.749 816.944C675.047 891.272 568.349 915.455 450.078 901.031ZM545.022 154.375C427.681 161.863 297.91 210.013 218.908 300.606C163.847 363.763 135.653 441.989 141.929 525.616C148.684 615.626 189.033 700.603 258.377 759.157C324.726 815.164 408.083 839.469 493.508 844.625C594.707 848.707 691.944 823.02 767.359 752.743C838.33 686.087 880.29 594.205 884.215 496.922C887.358 400.958 849.301 303.951 783.618 234.226C731.867 179.324 668.922 154.865 594.001 153.423C577.905 153.116 561.042 152.717 545.022 154.375Z" fill="black"/>
<path d="M493.511 844.623C408.086 839.467 324.729 815.162 258.38 759.155C189.036 700.601 148.687 615.624 141.932 525.614C135.656 441.987 163.85 363.761 218.911 300.604C297.913 210.011 427.684 161.86 545.025 154.372C561.045 152.715 577.908 153.114 594.004 153.421C668.925 154.863 731.87 179.322 783.621 234.224C849.304 303.949 887.361 400.956 884.218 496.92C880.293 594.203 838.333 686.085 767.362 752.741C691.947 823.018 594.71 848.704 493.511 844.623ZM377.081 323.436C364.799 368.18 372.146 631.306 394.822 668.378C397.962 673.503 398.76 673.41 403.584 676.142C437.876 671.17 502.521 606.478 531.007 583.677C553.093 565.417 621.879 513.338 623.579 487.099C624.368 474.946 609.201 460.953 601.127 453.587C561.438 417.467 424.817 327.334 377.081 323.436Z" fill="#010101"/>
<circle cx="498" cy="504" r="232" fill="black"/>
<path d="M425.615 661.688C424.24 661.83 422.645 662.083 421.246 661.973C416.502 661.633 412.025 658.988 408.963 655.421C405.459 651.338 403.485 645.949 402.822 640.67C400.246 620.135 404.407 596.143 405.99 575.542C407.87 551.121 409.026 526.624 411.262 502.226C413.823 474.272 418.683 402.119 427.947 378.072C430.567 371.278 433.573 366.8 439.193 362.147C441.706 362.004 444.278 361.84 446.765 362.322C451.523 363.233 455.505 366.131 457.953 370.269C473.151 395.973 455.394 536.151 451.383 573.566C449.175 594.167 448.315 616.249 443.686 636.4C440.946 648.32 436.044 655.3 425.615 661.688Z" fill="#FEFEFE"/>
<path d="M583.615 661.688C582.24 661.83 580.645 662.083 579.246 661.973C574.502 661.633 570.025 658.988 566.963 655.421C563.459 651.338 561.485 645.949 560.822 640.67C558.246 620.135 562.407 596.143 563.99 575.542C565.87 551.121 567.026 526.624 569.262 502.226C571.823 474.272 576.683 402.119 585.947 378.072C588.567 371.278 591.573 366.8 597.193 362.147C599.706 362.004 602.278 361.84 604.765 362.322C609.523 363.233 613.505 366.131 615.953 370.269C631.151 395.973 613.394 536.151 609.383 573.566C607.175 594.167 606.315 616.249 601.686 636.4C598.946 648.32 594.044 655.3 583.615 661.688Z" fill="#FEFEFE"/>
</svg>
