<svg width="500" height="500" viewBox="0 0 500 500" fill="none" xmlns="http://www.w3.org/2000/svg">
<path d="M114.63 456.948C100.409 464.706 77.1031 479.061 60.9549 480C57.164 478.16 53.6077 475.32 52.3914 471.04C51.6708 468.505 52.067 465.757 52.604 463.236C56.7125 443.944 63.7381 424.964 68.6969 405.836C74.0797 385.076 77.6111 363.708 84.6533 343.414C87.6753 334.705 91.295 327.34 96.6902 319.883C123.001 283.521 151.394 248.536 179.251 213.36C214.667 168.638 250.064 123.732 287.96 81.0758C302.524 64.6959 317.489 44.814 334.553 31.2666C343.885 23.8478 352.9 20.9045 364.386 19C367.824 19.0207 371.096 19.2462 374.478 19.7635C398.886 23.4895 425.254 33.7562 439.902 54.8303C445.258 62.5286 448.53 72.4881 446.28 81.871C442.056 99.5109 410.331 124.709 397.464 138.325C390.12 146.077 383.479 154.612 376.825 162.956C337.245 212.667 301.765 265.563 265.54 317.746C246.723 344.875 226.194 378.987 203.018 402.063C184.869 420.129 138.301 443.539 114.63 456.948ZM313.776 70.6044C287.587 96.0463 105.691 314.613 103.453 330.992C104.984 334.624 107.663 336.819 111.281 338.33C113.621 339.307 114.891 339.556 117.343 339.24L268.729 154.9C288.112 131.029 311.733 107.52 328.092 81.5488C323.605 77.7066 319.105 73.2115 313.776 70.6044ZM338.888 87.5818C320.554 112.53 300.04 136.052 280.491 160.061C228.969 223.34 176.049 285.514 125.822 349.84C132.003 354.756 139.11 361.733 146.218 364.868C161.896 349.428 175.516 331.268 189.57 314.339C220.755 276.768 250.975 238.551 281.457 200.406C307.494 167.809 336.417 137.726 361.308 104.139C353.936 98.6507 346.605 92.5623 338.888 87.5818ZM371.648 113.62C300.743 200.248 231.413 288.814 157.953 373.274C162.908 378.722 167.669 384.654 173.657 388.98C174.637 388.7 175.781 388.625 176.532 387.933C250.05 302.031 321.548 214.422 390.975 125.176C384.57 121.27 378.123 117.418 371.648 113.62ZM96.0924 348.572C91.1197 364.123 87.6711 380.059 84.0058 395.957C98.4407 408.29 113.287 420.093 129.593 429.869C134.797 427.136 140.057 424.481 145.158 421.559C151.852 417.255 158.663 413.085 165.01 408.276C151.76 383.12 119.752 362.865 96.0924 348.572Z" fill="#212121"/>
<path d="M116.912 338.872C114.456 339.186 113.184 338.938 110.84 337.964C107.216 336.457 104.533 334.268 103 330.646C105.241 314.314 287.43 96.3695 313.661 71C318.998 73.5997 323.506 78.082 328 81.9133C311.614 107.811 287.955 131.252 268.541 155.055L116.912 338.872Z" fill="#FEFEFE"/>
<path d="M126 350.042C176.337 286.015 229.372 224.129 281.007 161.143C300.598 137.246 321.157 113.832 339.531 89C347.265 93.9574 354.612 100.018 362 105.48C337.054 138.911 308.069 168.855 281.975 201.301C251.426 239.27 221.14 277.309 189.887 314.706C175.803 331.556 162.152 349.632 146.441 365C139.317 361.88 132.194 354.935 126 350.042Z" fill="#FEFEFE"/>
<path d="M158 374.2C231.768 289.238 301.389 200.144 372.591 113C379.093 116.821 385.567 120.695 392 124.624C322.281 214.402 250.483 302.533 176.657 388.947C175.903 389.642 174.754 389.718 173.77 390C167.757 385.648 162.976 379.681 158 374.2Z" fill="#FEFEFE"/>
<path d="M83 395.212C86.6651 379.373 90.1134 363.495 95.0859 348C118.744 362.241 150.75 382.422 164 407.486C157.653 412.277 150.843 416.432 144.149 420.721C139.048 423.633 133.789 426.277 128.584 429C112.28 419.26 97.4341 407.5 83 395.212Z" fill="#FEFEFE"/>
</svg>
