<svg width="1024" height="1024" viewBox="0 0 1024 1024" fill="none" xmlns="http://www.w3.org/2000/svg">
<path d="M450.078 901.031C371.966 886.361 302.778 859.386 240.246 809.149C161.211 745.685 101.076 644.872 90.6359 543.415C81.0794 450.52 83.5099 361.606 141.929 290.5C164.62 262.88 210.319 216.794 240.246 197C328.246 138.797 407.869 124.483 507 115C529.289 112.852 622.131 118.499 644.408 120.739C727.915 129.117 787.303 166.68 839.468 231.28C908.346 316.595 945.013 422.778 932.559 532.797C919.734 646.099 858.909 746.973 769.749 816.943C675.047 891.272 568.349 915.454 450.078 901.031ZM545.022 154.374C427.681 161.862 297.91 210.013 218.908 300.606C163.847 363.763 135.653 441.989 141.929 525.616C148.684 615.626 189.033 700.603 258.377 759.157C324.726 815.164 408.083 839.469 493.508 844.625C594.707 848.706 691.944 823.02 767.359 752.743C838.33 686.087 880.29 594.205 884.215 496.922C887.358 400.958 849.301 303.951 783.618 234.226C731.867 179.324 668.922 154.865 594.001 153.423C577.905 153.116 561.042 152.717 545.022 154.374Z" fill="black"/>
<path d="M529 878C443.575 872.844 338.349 864.007 272 808C202.656 749.446 143.755 621.01 137 531C130.724 447.373 158.938 344.157 214 281C293.002 190.407 396.159 146.988 513.5 139.5C529.52 137.843 607.839 152.969 623.935 153.276C698.856 154.719 761.801 179.177 813.552 234.08C879.235 303.804 917.292 400.812 914.149 496.775C910.224 594.059 868.263 685.94 797.293 752.596C721.878 822.874 630.199 882.082 529 878ZM407.012 323.292C394.73 368.036 402.077 631.161 424.753 668.233C427.893 673.358 428.691 673.266 433.515 675.997C467.806 671.025 532.452 606.334 560.937 583.532C583.024 565.273 651.81 513.194 653.51 486.955C654.299 474.802 639.132 460.808 631.058 453.443C591.368 417.322 454.748 327.189 407.012 323.292Z" fill="#010101"/>
</svg>
