<svg width="1062" height="1062" viewBox="0 0 1062 1062" fill="none" xmlns="http://www.w3.org/2000/svg">
<path d="M502.832 985.306C492.625 982.209 481.416 978.514 472.573 972.421C411.134 929.939 455.164 775.688 441.396 705.671C414.133 567.004 146.892 710.135 60.0001 648.343C42.3814 635.791 39.8553 587.415 36.3408 566.673C30.9328 534.745 29.999 488.074 49.8408 460.673C95.6346 397.482 278.049 433.134 353.979 422.48C373.198 419.783 397.756 415.888 411.84 401.572C461.261 351.299 379.764 182.801 441.396 105.36C469.728 69.7694 513.342 80.8259 555.595 75.2659C561.306 74.8331 594.367 74.9993 600.095 75.2656C745.969 82.0575 603.598 311.147 671.663 379.532C708.338 416.354 883.053 402.138 936.841 401.572C966.47 401.239 998.336 402.97 1019.76 425.576C1039.63 446.551 1021.3 534.305 1019.76 562.171C1011 719.749 742.524 579.359 669.293 648.343C656.841 648.343 670.951 665.223 669.293 679.273C666.578 702.278 671.473 726.916 673.244 750.021C676.272 789.507 677.986 829.825 675.044 869.378C672.582 902.505 666.325 937.197 639.062 959.304C605.182 986.837 544.632 990.4 502.832 985.306Z" fill="#212121"/>
</svg>
