<svg width="1062" height="1062" viewBox="0 0 1062 1062" fill="none" xmlns="http://www.w3.org/2000/svg">
<path d="M484.717 743.952C405.877 745.129 331.385 724.533 271.008 672.144C206.195 615.907 166.793 525.078 161.63 440.248C156.136 350.559 186.724 262.387 246.617 195.27C309.349 124.991 393.417 87.3968 486.808 82.2283C563.574 78.9951 647.598 110.355 705.415 160.195C766.042 212.464 799.625 296.423 804.793 374.92C810.58 462.538 796.782 559.561 736.673 627.766C691.065 679.534 625.505 721.009 557.904 735.744C533.72 741.014 509.336 742.449 484.717 743.952ZM467.976 103.386C431.984 143.875 384.62 224.127 368.819 275.848C374.485 276.675 381.676 278.612 387.129 276.747L389.938 272.905C422.1 205.572 449.294 162.137 495.17 103.76C486.155 103.76 476.99 104.087 467.976 103.386ZM568.173 118.381L568.741 120.253C577.304 147.319 590.4 172.939 599.347 199.936C641.644 327.678 659.205 469.892 595.651 594.12L594.865 595.63C610.653 607.999 659.489 647.904 675.779 651.762C676.95 651.058 678.706 650.232 679.659 649.284C682.736 645.485 685.496 643.398 685.964 638.472C667.584 617.666 634.068 598.433 611.523 580.615C631.609 539.662 646.36 497.018 651.679 451.517C663.185 353.295 626.441 219.268 594.999 125.807C586.068 122.809 577.488 120.021 568.173 118.381ZM237.861 237.16C234.973 243.223 231.891 249.254 229.534 255.547C240.883 267.861 263.91 298.18 278.644 304.173C280.758 303.49 282.8 303.018 284.675 301.807C288.95 299.373 293.636 297.584 296.329 293.39C287.875 281.822 249.811 242.401 237.861 237.16ZM755.957 273.37C725.1 291.066 695.046 305.13 661.847 318.02C663.085 325.346 663.754 338.098 668.721 343.766C702.957 332.865 735.352 316.919 764.855 296.458C762.346 288.589 760.255 280.484 755.957 273.37ZM356.2 296.729C296.618 300.779 251.499 352.062 255.203 411.52C258.909 470.977 310.05 516.292 369.675 512.949C429.81 509.579 475.702 458.037 471.956 398.077C468.226 338.117 416.28 292.643 356.2 296.729ZM606.338 330.653C563.289 338.799 523.735 343.809 479.817 343.958C482.492 350.516 484.867 358.773 489.651 364.046L491.189 364.608C532.282 370.619 573.725 363.958 614.366 357.593C613.413 348.953 613.195 339.552 610.001 331.422L606.338 330.653ZM237.605 450.199C220.601 455.505 202.895 460.114 186.336 466.627C187.455 474.112 187.212 481.816 192.701 487.278C195.371 486.995 197.873 486.676 200.509 486.139C217.914 481.08 235.863 476.582 252.96 470.626C249.187 463.798 245.767 455.965 240.107 450.516L237.605 450.199ZM465.049 488.012C460.516 494.505 455.766 499.269 449.879 504.532C489.534 533.436 529.673 562.152 572.07 586.933C577.539 580.926 580.516 573.498 583.944 566.226C544.541 539.816 504.904 513.743 465.049 488.012ZM327.111 525.987C324.948 581.858 329.138 638.79 343.653 692.94C349.229 695.802 354.807 698.984 360.642 701.28C350.064 654.666 342.874 603.253 343.681 555.477C343.762 550.765 345.596 532.443 341.424 529.973C337.279 527.519 331.795 526.943 327.111 525.987ZM577.706 611.771C557.887 641.196 535.392 666.852 509.921 691.485C500.12 700.951 479.181 714.258 472.658 724.68C476.488 725.209 479.934 725.606 483.814 725.464C504.084 726.253 516.862 715.384 531.094 702.154C556.365 678.642 575.281 651.847 593.009 622.429C587.941 618.859 582.957 615.051 577.706 611.771Z" fill="#2B2B2B"/>
<path d="M399.885 817.672C335.26 797.692 270.663 765.934 223.228 716.495C211.887 704.673 187.802 679.113 189.046 662.252C189.238 659.636 189.013 660.347 190.672 658.796C203.057 658.751 233.477 701.518 244.495 712.575C252.016 720.121 261.061 726.594 269.48 733.104C342.312 789.428 438.689 811.313 529.189 799.025C628.726 786.23 719.026 734.064 779.959 654.15C884.666 513.292 882.014 319.55 773.505 181.615C751.143 153.017 723.028 132.473 697.981 106.944C695.763 104.681 694.462 103.413 693.995 100.169C695.829 94.9399 699.431 92.998 703.767 90C729.064 95.5682 752.861 108.62 773.422 124.163C844.327 177.743 885.016 261.737 897.206 348.517C912.114 454.729 882.581 570.798 817.529 656.219C764.267 726.164 683.123 781.624 598.977 806.815C569.744 815.571 539.928 820.342 509.761 824.425C511.562 840.073 513.13 855.617 514.014 871.35C543.396 879.303 660.86 910.799 673.801 934.13C676.202 938.455 675.685 939.574 674.618 944.123C671.566 947.626 669.382 949.116 664.779 950.176C649.504 953.705 596.392 951.501 575.631 952.166C513.28 954.16 452.28 957.47 390.43 966.129C371.558 968.771 274.456 985.443 263.357 978.184C262.446 975.017 262.048 973.224 262.865 969.925C267.494 951.217 323.838 916.745 341.928 905.485C361.609 894.736 381.708 884.776 402.186 875.63C400.618 856.302 399.501 837.069 399.885 817.672Z" fill="#2B2B2B"/>
<path d="M370 275.327C385.757 223.947 432.99 144.223 468.881 104C477.871 104.696 487.01 104.371 496 104.371C450.252 162.364 423.133 205.514 391.061 272.403L388.259 276.22C382.822 278.073 375.651 276.149 370 275.327Z" fill="#FEFEFE"/>
<path d="M594.513 595.804L595.294 594.292C658.42 469.92 640.978 327.54 598.965 199.65C590.078 172.621 577.07 146.971 568.565 119.874L568 118C577.253 119.642 585.775 122.433 594.646 125.434C625.877 219.003 662.374 353.187 650.945 451.523C645.662 497.077 631.01 539.771 611.059 580.771C633.452 598.61 666.743 617.865 685 638.695C684.535 643.627 681.794 645.716 678.737 649.52C677.79 650.468 676.046 651.295 674.883 652C658.703 648.138 610.195 608.187 594.513 595.804Z" fill="#FEFEFE"/>
<path d="M663 318.033C695.552 305.033 725.02 290.848 755.276 273C759.49 280.175 761.54 288.349 764 296.286C735.073 316.923 703.308 333.005 669.74 344C664.87 338.284 664.214 325.422 663 318.033Z" fill="#FEFEFE"/>
<path d="M370.59 512.826C311.014 516.175 259.916 470.786 256.213 411.233C252.511 351.679 297.593 300.313 357.126 296.256C417.156 292.163 469.06 337.711 472.786 397.768C476.529 457.825 430.675 509.45 370.59 512.826Z" fill="#FEFEFE"/>
<path d="M480 343.192C524.066 343.044 563.752 338.077 606.945 330L610.62 330.763C613.825 338.823 614.044 348.144 615 356.711C574.223 363.021 532.641 369.626 491.411 363.666L489.867 363.109C485.068 357.88 482.685 349.694 480 343.192Z" fill="#FEFEFE"/>
<path d="M450 505.366C455.84 500.152 460.553 495.433 465.049 489C504.587 514.491 543.91 540.321 583 566.485C579.599 573.69 576.645 581.048 571.22 587C529.16 562.449 489.339 534.001 450 505.366Z" fill="#FEFEFE"/>
<path d="M343.545 692.626C328.631 638.258 324.327 581.097 326.549 525C331.362 525.96 336.996 526.538 341.254 529.002C345.542 531.482 343.657 549.878 343.574 554.609C342.744 602.578 350.131 654.198 361 701C355.005 698.695 349.274 695.501 343.545 692.626Z" fill="#FEFEFE"/>
<path d="M484.216 724.96C480.315 725.101 476.851 724.706 473 724.181C479.558 713.826 500.61 700.605 510.464 691.2C536.073 666.725 558.689 641.235 578.614 612C583.894 615.259 588.905 619.041 594 622.589C576.176 651.817 557.159 678.44 531.751 701.8C517.442 714.945 504.595 725.744 484.216 724.96Z" fill="#FEFEFE"/>
</svg>
