<svg width="1062" height="1062" viewBox="0 0 1062 1062" fill="none" xmlns="http://www.w3.org/2000/svg">
<path d="M444.911 146.603C453.227 115.812 460.462 86.2629 458.019 54.0864C457.094 41.9017 453.629 30.3735 453.371 18.0672C453.356 17.3619 453.358 16.681 453.351 16C455.332 16.0486 457.829 16.0728 459.735 16.4376C464.809 17.4834 467.948 18.7239 470.983 22.9801C479.374 34.8 483.173 53.6 489.396 67.1224C499.145 88.3058 512.148 107.081 525.681 125.979C547.105 106.181 558.711 83.3686 574.748 59.5099C579.995 51.703 584.758 44.1633 594.405 42.315C600.204 49.5382 610.457 113.526 615.086 128.776C627.853 115.837 638.841 101.269 647.76 85.4357C653.997 74.2968 661.746 49.5868 670.21 41.3664C672.043 39.5667 674.598 38.7398 676.791 37.4265L681.417 38.7642C692.035 52.7487 684.819 133.591 684.98 157.012C705.228 151.321 723.702 141.203 743.621 135.707C750.053 133.931 753.1 134.491 758.724 137.677C766.602 153.899 754.743 186.124 750.615 203.465C757.811 202.467 765.066 201.422 772.304 200.814C782.42 199.938 788.999 201.422 796.854 208.086C804.53 231.507 777.31 247.68 780.087 269.204C780.658 273.654 782.286 276.305 785.513 279.175C796.139 288.66 815.949 284.818 829.154 284.185C834.629 278.324 840.115 272.341 846.109 267.015C854.193 259.792 863.492 253.833 874.689 254.295L876.585 258.357C871.56 281.68 844.164 304.274 829.701 323.22C820.621 335.089 812.546 347.468 804.71 360.188C824.8 361.915 844.909 358.631 864.955 360.845C872.421 361.672 877.349 362.79 882 368.797L880.316 373.783C869.399 384.971 856.882 385.676 842.222 388.23C829.728 400.171 819.044 412.113 808.847 426.049C827.586 434.342 856.439 435.096 869.625 451.512C870.538 458.103 871.139 458.468 867.6 463.989C851.132 470.945 823.323 459.879 806.195 455.452C799.872 459.076 792.712 461.338 785.922 463.94C790.086 479.433 794.114 494.974 798.008 510.539C809.078 514.771 817.156 519.003 825.501 527.515L825.221 533.254C811.756 542.01 781.228 532.963 765.397 533.206C754.73 533.352 744.142 532.622 733.499 532.014C735.68 547.045 738.004 562.05 740.472 577.032C750.214 582.237 761.53 587.393 770.257 594.129C775.626 598.288 777.047 600.891 777.439 607.482L773.202 611.543C751.815 615.045 730.618 598.288 710.784 591.77C700.789 588.487 688.684 588.512 678.214 587.879C676.411 604.855 667.441 618.329 665.416 632.751C662.476 653.691 820.913 816.713 829.757 855.992C828.214 862.923 828.606 863.434 823.035 867.714C800.269 868.128 760.116 843.15 738.189 833.227C738.571 847.212 738.934 861.269 740.637 875.181C743.864 901.471 756.677 938.269 749.669 963.806C744.777 969.083 744.94 969.229 737.814 970.007C701.356 957.263 607.493 785.875 584.867 743.678C578.124 731.42 571.972 718.749 565.6 706.273C556.557 792.32 549.171 884.033 555.513 970.469C556.951 990.096 565.427 1028.18 553.13 1043.46C547.397 1044.96 543.515 1046.13 537.755 1043.14C536.684 1042.58 532.749 1039.15 531.892 1037.89C525.217 1028.06 517.186 991.993 512.155 978.398C502.9 953.421 492.141 928.759 481.377 904.39C470.486 925.525 452.083 972.999 430.01 982.046C423.473 984.721 418.265 981.973 412.254 979.517C406.676 971.783 408.402 961.446 409.461 952.229C413.656 915.675 424.834 878.707 433.709 843.077C450.173 776.997 468.347 706.103 474.913 638.418C452.813 648.633 432.741 658.847 412.532 672.54C409.509 683.071 407.017 695.037 398.526 702.503C393.778 702.503 394.654 703.476 391.712 700.606C375.893 685.187 384.095 640.728 384.598 620.031C367.152 625.187 351.778 636.91 333.701 639.707C327.43 640.679 324.921 640.242 319.759 636.715C313.59 618.961 327.517 587.66 332.475 569.371C326.181 570.003 319.893 570.733 313.6 571.317C291.042 573.384 273.075 587.417 251.308 589.582L248.794 586.955C249.673 570.587 296.318 515.355 308.37 495.484C287.864 493.758 263.35 495.898 243.781 489.501C236.898 487.264 234.638 485.683 231.187 479.408C234.041 460.463 267.516 436.677 279.293 419.774C279.84 418.971 280.361 418.169 280.894 417.366C267.161 408.805 253.097 400.098 237.49 395.404C223.297 391.124 198.408 391.464 186.676 383.803C181.195 380.228 181.38 377.14 180 371.181C186.269 356.564 208.795 363.617 222.457 362.109C241.323 359.993 266.36 344.501 283.853 336.402C272.972 315.219 259.269 294.935 239.432 281.242C230.783 275.284 221.491 270.225 213.769 263.051C212.385 256.605 212.219 256.265 214.945 250.306C231.754 242.11 263.978 264.072 283.364 267.915C296.048 270.444 310.27 268.814 323.139 268.158C320.947 244.518 317.471 222.775 306.099 201.543C299.545 189.334 291.889 177.879 287.645 164.6C288.908 157.863 288.618 157.888 294.033 153.777C309.324 154.434 329.411 174.717 344.035 181.625C355.48 186.999 369.78 189.383 382.089 192.399L379.646 117.321C372.64 109.149 363.969 100.442 358.894 90.9322C355.375 84.3656 355.83 80.2555 358.223 73.4457L363.711 71.9135C389.383 80.2798 425.226 125.93 444.911 146.603ZM478.22 103.604C475.003 126.1 471.956 161.171 456.627 178.366C450.506 180.7 447.552 181.6 441.307 178.828C426.868 172.456 415.262 153.412 405.593 141.179C406.506 161.463 414.773 201.495 404.211 218.811C396.815 224.162 389.643 223.991 380.941 222.386C367.32 219.881 354.183 213.339 340.958 209.204C346.084 229.293 359.78 263.245 352.253 282.872C344.879 291.336 336.008 293.233 325.162 294.011C312.018 294.959 298.793 294.352 285.637 294.887C297.153 308.652 317.435 327.647 318.401 345.96C308.917 364.785 277.114 368.992 258.694 376.483C275.625 384.095 304.534 391.318 312.638 409C313.823 429.186 289.959 450.904 277.428 465.327C296.35 468.051 326.512 467.029 340.954 479.919C343.36 487.775 342.866 492.031 339.026 499.424C331.114 514.625 319.146 529.047 309.036 542.934C322.044 542.302 344.327 538.07 354.623 547.604C359.267 551.884 360.586 557.478 360.523 563.655C360.386 577.105 356.578 591.6 354.141 604.831C369.751 597.583 392.625 583.112 409.813 587.295C414.493 591.09 416.379 594.786 417.187 600.696C418.881 613.1 414.401 628.981 412.32 641.336C428.934 630.586 467.354 600.064 487.074 604.441C490.827 605.268 491.993 607.482 493.681 610.814C495.419 614.267 496.407 618.645 497.541 622.342C503.221 626.622 504.037 626.282 511.252 626.379C525.762 620.031 532.938 599.626 550.767 605.341C560.577 608.479 567.759 618.912 574.22 626.379L578.907 629.151C590.608 616.821 592.368 598.483 613.324 598.677C624.448 598.775 636.434 604.515 646.57 608.868C648.188 594.373 647.723 575.33 660.108 565.382C673.067 554.997 698.621 560.372 713.899 562.683C711.015 548.796 703.057 525.691 713.244 513.312C724.512 499.595 751.238 499.108 767.76 497.673C762.484 484.589 746.481 456.79 750.34 443.365C752.433 436.069 758.902 432.202 765.494 429.672C771.588 427.362 777.957 425.611 784.224 423.835C792.067 409.802 802.045 397.909 812.211 385.554C796.545 383.998 779.337 385.141 768.189 372.494C766.178 365.222 766.246 361.136 770.191 354.473C780.06 337.837 796.876 325.263 808.458 309.601C792.428 308.798 767.13 310.354 755.74 296.808C750.756 290.874 750.029 282.021 751.338 274.652C753.794 260.789 760.379 245.856 765.667 232.796C750.73 234.036 734.12 237.611 719.859 232.261C716.719 228.126 715.573 227.25 716.17 221.778C717.944 205.459 726.78 188.848 729.243 171.848C712.307 177.782 682.072 193.055 664.567 185.103C653.596 172.14 659.697 124.86 659.587 106.473C648.758 121.99 628.116 160.879 610.238 165.913C602.913 163.214 600.07 159.979 596.629 152.95C589.574 138.528 587.277 121.358 581.898 106.157C568.156 120.142 540.673 156.331 522.131 156.89C502.52 146.092 493.494 119.266 478.22 103.604ZM616.422 633.432C611.757 643.428 607.955 654.226 599.661 661.741C592.709 663.176 585.77 664.538 578.91 666.362C585.203 688.154 599.114 709.362 610.07 729.256C643.282 789.912 679.307 848.987 718.031 906.287L710.667 865.014C709.64 849.741 704.748 823.304 715.023 810.268C719.212 804.942 725.955 803.434 732.402 803.799C745.543 804.529 761.158 814.403 773.487 819.656C742.45 782.737 712.147 745.21 682.598 707.075C666.168 685.868 649.366 658.336 629.746 640.266C625.765 636.618 621.489 635.086 616.422 633.432ZM535.973 649.581C524.153 655.758 513.114 659.893 500.306 663.541C485.088 746.961 462.621 829.433 443.955 912.173C451.163 898.577 468.342 852.757 481.642 848.257C483.886 847.503 485.56 847.528 487.828 847.406C503.715 879.048 515.684 913.802 527.691 947.097C527.881 892.254 528.032 837.483 532.096 782.737C534.91 744.846 541.057 707.124 543.595 669.256C544.036 662.666 543.907 656.902 540.512 651.113L535.973 649.581Z" fill="#010101"/>
</svg>
