<svg width="500" height="500" viewBox="0 0 500 500" fill="none" xmlns="http://www.w3.org/2000/svg">
<path d="M204.736 180.449C193.902 163.246 186.432 145.195 182.775 125.141C178.012 99.035 181.352 64.6888 197.174 42.5751C208.242 27.1071 223.956 18.9831 242.335 16.0851C250.23 15.6428 257.591 16.9697 265.164 19.0297C302.105 29.109 386.189 79.2722 405.483 114.212C410.834 123.779 411.831 135.174 408.218 145.52C404.001 157.986 393.823 167.169 382.188 172.732C384.018 205.007 381.872 236.117 369.383 266.343C358.633 292.356 345.598 306.8 319.384 317.798L318.062 329.949C326.459 330.869 334.416 332.231 342.288 335.35C367.707 345.417 384.471 365.448 395.094 390.041C401.237 404.263 418.191 462.364 411.437 476.552C410.49 478.542 409.767 478.251 407.81 478.938C404.746 477.402 403.513 475.481 402.391 472.234C399.213 463.051 399.096 451.761 397.624 442.136C394.718 423.142 386.288 398.502 376.963 381.765C365.024 360.327 347.245 349.002 324.039 342.228C323.059 342.042 320.838 341.565 319.885 341.611C316.288 341.751 305.215 356.905 301.257 360.013C296.486 363.76 290.554 365.96 284.447 365.099C273.468 363.551 263.848 352.715 257.762 344.137C253.349 345.871 248.917 347.617 244.587 349.561C206.033 366.845 187.638 413.132 181.61 452.402C180.486 459.722 182.13 473.421 178.795 479.392C177.272 482.115 176.186 482.15 173.392 483C170.649 482.15 169.837 482.174 168.471 479.427C163.531 469.511 172.353 436.328 175.579 425.737C185.374 393.579 199.208 362.061 229.133 344.137C237.834 338.923 247.213 335.757 256.041 330.95C260.714 328.413 261.072 324.06 262.387 319.323C248.451 314.109 237.369 308.79 227.695 296.953C205.491 269.788 201.082 213.945 204.736 180.449ZM272.472 119.81C259.743 121.149 239.163 122.243 230.774 133.172C212.433 157.078 214.514 210.163 219.1 238.224C222.73 260.431 227.36 283.86 247.01 297.826C261.081 307.836 280.889 313.515 298.014 310.385C302.752 309.512 307.416 308.138 312.04 306.8C331.157 300.864 343.535 289.586 352.781 272.151C369.472 240.68 377.082 191.645 366.864 157.113C363.611 146.114 358.177 139.573 348.045 134.231C326.219 122.72 296.955 117.622 272.472 119.81ZM272.352 323.129C271.832 332.719 270.766 341.111 277.828 348.816C279.577 350.713 281.924 352.145 284.552 352.331C290.432 352.762 295.955 349.34 299.891 345.359C302.877 339.54 306.102 334.174 305.283 327.459C303.374 325.015 302.284 324.014 299.107 323.513C290.389 322.14 281.472 324.561 272.352 323.129Z" fill="#010101"/>
<path d="M128.374 267.806C126.352 268.205 125.161 267.92 123.156 267.567C122.29 266.016 121.728 265.754 122.135 263.885C123.766 256.35 131.657 250.275 137.734 246C139.902 246.365 141.424 246.558 143.289 247.79C144.936 248.884 144.622 249.579 145 251.346C142.126 258.277 134.213 263.212 128.374 267.806Z" fill="#010101"/>
<path d="M68.4159 344.532C58.187 339.6 49.615 332.966 45.3802 322.065C41.2994 311.549 42.8128 298.911 47.29 288.767C52.2243 277.586 59.9546 271.733 71.1361 267.571C83.5278 266.091 94.8562 267.175 105.337 274.578C113.553 280.303 118.952 289.234 120.185 299.167C121.723 311.327 117.922 320.841 110.68 330.273C115.756 350.466 146.185 448.052 140.231 460.585C136.359 468.735 126.955 471.871 119.151 474.937C110.975 477.444 100.373 482.073 91.9867 478.96C88.3676 474.938 86.9557 467.861 85.8818 462.614C82.1088 444.17 80.8951 424.676 78.2146 405.986C75.2705 385.467 70.9437 365.087 68.4159 344.532ZM77.1197 279.172C69.3813 281.597 64.7327 284.348 60.7474 291.647C56.4439 299.517 55.285 309.369 58.0611 317.95C59.9499 323.779 63.9806 329.107 69.6576 331.66C75.9374 334.494 80.396 334.051 86.7749 331.952C95.403 328.105 101.465 323.896 105.163 314.86C107.797 308.413 108.085 300.869 105.251 294.434C102.349 287.846 96.5701 283.101 89.7959 280.874C85.644 279.51 81.4582 279.184 77.1197 279.172ZM97.9902 342.177L81.9771 345.873C88.3583 386.015 94.1484 426.238 99.3462 466.543L111.352 463.314C116.796 461.483 122.474 460.072 126.976 456.388C131.334 447.551 106.751 363.081 101.607 347.622C100.974 345.721 100.259 344.136 99.3008 342.387L97.9902 342.177Z" fill="#010101"/>
<path d="M141.241 293C136.998 292.68 134.154 292.491 131 289.473L131.475 286.823C136.623 281.355 143.003 279.32 149.885 277C153.309 276.988 156.092 277.296 158.887 279.45L159 281.639C154.48 287.769 147.995 290.183 141.241 293Z" fill="#010101"/>
<path d="M157 320.436C151.609 321.005 143.547 322.107 139.238 317.867C136.718 315.389 137.138 313.195 137 310C142.068 310.045 149.322 310.307 153.495 313.502C156.314 315.662 156.569 317.06 157 320.436Z" fill="#010101"/>
</svg>
