<svg width="500" height="500" viewBox="0 0 500 500" fill="none" xmlns="http://www.w3.org/2000/svg">
<g clip-path="url(#clip0_60_1126)">
<path d="M136.485 92.1002C135.09 85.8084 134.897 79.8845 135.768 73.5169C138.081 56.5235 148.201 43.4808 161.502 33.3477C188.432 12.8438 230.431 1.94416 263.888 6.34741C275.973 8.05678 288.727 13.6732 298.008 21.6345C316.346 37.3666 315.468 55.0798 315.135 77.0695C315.018 84.8807 315.648 92.6114 316.275 100.386C324.436 104.074 330.808 107.239 335.228 115.56C338.756 122.208 339.659 130.442 337.275 137.626C334.313 146.534 327.578 150.841 319.691 154.868C319.805 155.408 319.92 155.945 320.025 156.486C326.659 190.818 318.265 222.194 298.765 250.484C327.492 255.181 351.638 266.602 369.04 290.776C385.899 314.19 391.003 343.672 386.322 371.863C380.783 405.28 364.058 433.984 336.201 453.68C290.815 485.769 224.136 484.421 171.305 475.432C143.167 468.942 106.537 460.436 86.8498 437.54C73.8647 422.445 69.9232 403.171 71.3654 383.686C74.0726 347.144 88.5062 307.48 116.956 283.327C139.688 264.009 163.013 257.692 192.411 260.241C186.405 254.636 180.541 249.117 175.753 242.402C156.313 215.117 151.076 177.208 144.397 145.003C141.148 143.883 137.864 142.786 134.89 141.031C126.745 136.223 121.389 128.35 119.319 119.172C117.969 113.146 117.887 106.413 121.386 101.066C125.021 95.5054 130.221 93.3122 136.485 92.1002ZM302.803 89.3525C281.008 100.582 262.429 102.797 238.76 95.2078C235.689 94.2128 232.647 93.1463 229.626 92.0061C209.657 102.627 189.187 104.384 167.626 97.6584C161.285 95.6803 155.522 93.2038 149.882 89.6866C155.387 132.774 158.327 181.703 177.555 221.273C186.246 240.283 197.546 252.879 217.476 260.312C234.255 266.573 251.239 265.878 267.537 258.326C284.71 250.374 296.3 236.25 302.682 218.618C306.25 208.632 308.399 198.193 309.078 187.612C309.743 177.855 306.384 96.1691 303.257 90.0318C303.132 89.7888 302.951 89.5781 302.803 89.3525ZM316.009 110.693C316.684 117.362 316.968 137.136 320.301 141.681C321.527 141.802 322.129 141.839 323.348 141.533C326.962 136.335 328.541 131.67 327.617 125.256C326.976 120.796 324.374 115.771 320.639 113.144C319.22 112.142 317.621 111.345 316.009 110.693ZM138.393 102.685C134.91 103.772 132.446 104.311 130.693 107.836C128.687 111.89 128.815 115.875 130.318 120.077C132.232 125.433 135.123 128.673 139.523 132.119L142.52 132.437C145.443 127.836 141.571 114.305 140.413 109.094C139.914 106.822 139.567 104.734 138.393 102.685ZM291.848 260.828C285.116 269.368 278.818 278.264 272.228 286.919C268.257 292.134 263.432 297.384 260.087 303.002C259.03 304.78 258.923 305.474 258.936 307.466L260.452 308.616C261.354 308.382 262.577 308.157 263.43 307.835C275.769 301.832 286.287 292.576 295.597 282.555C295.002 275.64 294.811 267.215 291.848 260.828ZM271.799 269.562C252.464 274.479 236.328 277.293 216.793 271.264C220.533 278.078 224.574 284.551 228.889 291.009C233.138 296.956 237.22 303.255 241.94 308.816C249.823 294.327 263.633 283.971 272.026 270.129L271.799 269.562ZM194.812 266.68C195.193 275.28 194.665 283.88 195.008 292.451C203.767 298.159 211.272 302.419 221.819 303.957C215.158 288.8 209.694 275.388 194.812 266.68ZM295.153 299.949C283.58 308.874 272.61 318.122 258.581 322.869C256.549 326.625 254.34 330.06 251.91 333.553C257.394 370.605 265.544 406.571 273.104 443.205C274.659 449.941 275.849 457.175 278.565 463.519L279.851 463.85C281.641 461.976 281.919 459.678 282.235 457.186C284.413 439.954 285.298 422.316 286.695 404.991L292.279 340.307C293.142 329.212 296.357 312.083 295.385 301.567C295.336 301.023 295.229 300.491 295.153 299.949ZM194.764 306.335C192.287 359.507 193.863 412.029 182.758 464.502C193.015 466.245 203.338 467.533 213.707 468.369L215.652 467.794C219.189 456.786 219.427 442.371 220.951 430.815C225.043 399.761 228.882 361.082 236.074 331.149C232.22 326.319 229.642 321.176 226.756 315.75C215.359 313.55 205.447 310.959 194.764 306.335Z" fill="#2B2B2B"/>
</g>
<defs>
<clipPath id="clip0_60_1126">
<rect width="500" height="500" fill="white"/>
</clipPath>
</defs>
</svg>
