<svg width="1062" height="1062" viewBox="0 0 1062 1062" fill="none" xmlns="http://www.w3.org/2000/svg">
<path d="M394.279 171.207C394.401 151.49 390.716 132.818 388.874 113.329C387.379 97.4237 388.423 81.8867 399.561 69.4353C425.705 40.2203 491.343 40.8509 527.908 39.6408C551.575 38.9159 590.331 35.9673 608.287 53.464C630.091 74.7139 624.276 127.822 625.116 155.815C626.262 157.271 627.409 158.722 628.617 160.129C637.891 171.031 659.204 189.901 674.088 189.572C702.587 188.943 716.509 143.992 735.18 126.813C742.326 120.244 750.351 117.085 760.117 117.713C801.883 120.406 856.935 176.62 882.2 206.503C896.818 223.779 922.348 253.164 919.645 277.255C916.984 300.96 889.304 310.414 873.416 323.932C868.093 328.462 862.729 335.645 862.545 342.907C862.115 358.184 871.328 386.406 882.138 396.906C903.062 417.198 936.331 393.198 960.858 394.484C970.644 394.998 979.182 399.071 985.672 406.436C1013.64 438.124 1012.9 519.784 1011.43 559.303C1010.67 579.881 1011.35 614.199 994.271 628.757C973.47 646.51 939.668 627.631 915.858 627.426C905.641 627.344 896.572 630.784 889.693 638.524C880.05 649.356 870.55 673.661 872.147 688.219C875.279 716.824 916.492 711.254 933.28 726.12C938.624 730.85 940.692 737.074 940.896 744.036C942.084 784.292 880.541 852.866 852.452 881.143C836.114 897.606 812.017 920.416 787.265 919.556C762.287 918.675 750.106 888.064 735.037 872.461C727.687 864.844 718.269 858.333 707.275 858.599C698.226 858.824 685 864.578 679.227 871.56C666.963 886.364 679.534 922.218 680.537 940.748C681.52 958.849 679.636 977.687 666.697 991.549C639.795 1020.38 586.974 1020.91 550.286 1023C525.84 1022.41 468.085 1021.48 449.884 1004.24C430.23 985.611 439.422 929.261 438.562 903.421L437.682 902.233C430.66 892.425 423.904 885.73 412.541 881.123C374.727 865.725 358.655 934.053 330.504 945.069C321.107 948.754 310.768 945.171 302.128 941.076C260.588 921.317 167.188 842.894 150.605 798.42C163.728 763.14 199.332 752.493 210.408 723.806C210.469 713.507 205.781 703.842 200.314 695.283C174.518 654.946 132.936 694.935 97.9064 686.069C85.131 682.854 75.4881 674.05 69.039 662.809C49.8555 629.433 44.9216 521.75 55.363 484.318C72.4173 423.083 130.93 475.47 159.265 454.474C175.931 442.123 180.558 397.734 183.833 378.556C167.864 360.355 144.197 350.326 126.651 333.619C120.202 327.489 114.613 320.746 114.613 311.454C114.531 265.854 163.769 217.832 191.859 185.716C204.368 171.409 216.713 155.379 230.799 142.669C278.277 99.8604 306.694 196.761 348.93 196.955C366.721 197.037 382.67 183.421 394.279 171.207ZM520.272 321.418C412.909 324.033 327.822 412.902 329.87 520.296C331.917 627.672 420.341 713.241 527.724 711.766C635.905 710.272 722.241 621.058 720.194 512.843C718.126 404.656 628.453 318.783 520.272 321.418Z" fill="black"/>
</svg>
