<svg width="1062" height="1062" viewBox="0 0 1062 1062" fill="none" xmlns="http://www.w3.org/2000/svg">
<path d="M579.274 735.715C519.205 742.059 438.062 739.367 379.037 726.304C288.608 706.276 159.555 638.606 87.2564 580.254C71.402 567.454 52.6542 549.987 51.0795 528.415C50.0981 515.013 58.3672 502.684 67.0658 493.253C122.738 433 269.276 364.446 348.112 342.968C391.539 331.129 434.368 325.538 479.197 323.769C579.933 315.336 717.626 337.397 807.38 382.723C848.688 403.579 998.436 494.383 1011 532.424C1010.7 539.276 1008.65 543.361 1004.31 548.575C987.003 569.412 958.842 585.675 935.956 600.094C830.812 666.276 703.875 723.01 579.274 735.715ZM452.835 348.145C416.039 352.7 378.421 358.291 342.856 369.02C278.875 388.314 121.418 461.122 83.2385 511.342C78.6877 517.328 75.5816 523.446 76.5818 531.163C79.4713 553.431 143.1 589.666 162.72 601.732C177.297 610.767 192.249 619.162 207.537 626.936C264.217 654.23 315.534 668.517 376.47 682.333C336.514 646.682 314.915 612.084 311.569 557.403C308.625 509.291 323.677 457.997 356.296 421.725C386.587 388.05 434.728 367.721 474.375 347.298C467.443 347.467 459.607 346.903 452.835 348.145ZM546.31 355.636C488.69 361.867 405.14 399.325 368.201 445.103C340.726 479.155 329.839 524.105 334.879 567.229C338.822 604.028 357.473 637.684 386.603 660.554C422.373 688.751 472.02 701.815 517.095 701.589C575.845 700.987 641.659 677.382 683.212 634.785C709.846 607.492 725.989 571.859 725.066 533.441C723.823 482.373 699.863 430.233 662.756 395.203C629.209 363.542 591.913 353.735 546.762 355.618C546.612 355.618 546.461 355.636 546.31 355.636ZM654.035 357.914C704.836 399.607 741.19 452.369 747.726 519.21C751.908 561.77 736.857 605.214 709.677 637.985C692.818 658.352 671.496 672.262 650.079 687.34C703.329 679.754 772.797 648.62 821.244 625.43C877.451 597.797 927.876 563.257 981.013 530.655C958.447 511.625 936.333 491.503 912.6 473.959C845.128 424.059 738.138 367.514 654.035 357.914Z" fill="black"/>
<path d="M990.405 841.102C972.904 843.224 960.973 848.356 920.563 830.195C785.122 735.602 147.27 247.389 20.8448 142.705C31.1876 135.984 34.9315 125.4 83.8368 153.327C231.231 237.69 812.981 698.858 990.405 841.102Z" fill="black"/>
</svg>
