<svg width="500" height="500" viewBox="0 0 500 500" fill="none" xmlns="http://www.w3.org/2000/svg">
<path d="M310.917 78.8851L309.124 80L307.619 79.5471C307.279 78.8329 307.067 78.5192 307.007 77.6396C306.514 70.7239 330.976 5.70496 336.246 0C339.289 1.19325 340.581 2.19479 342 5.13001C341.686 16.5051 317.496 65.5852 310.917 78.8851Z" fill="black"/>
<path d="M248.846 79.0518L247.238 80L245.732 79.4868C245.172 78.5212 245.053 78.4255 244.731 77.1902C243.188 71.4139 244.373 28.0309 245.659 20.7236C245.98 18.9142 246.917 17.5224 247.927 16C249.617 16.2262 252.345 16.7394 253.364 18.14C258.131 24.6122 251.197 69.8568 248.846 79.0518Z" fill="black"/>
<path d="M188.221 87C182.392 82.6205 171.736 49.6034 169.671 41.2874C168.678 37.2827 168.582 35.5616 170.812 32C172.651 32.1363 174.01 32.4175 175.735 33.0736C179.403 38.9613 180.998 48.6577 182.976 55.3718C184.623 60.9698 191.175 79.1355 189.816 84.1797C189.537 85.2192 188.753 86.0627 188.221 87Z" fill="black"/>
<path d="M363.564 115.578C362.401 116.051 361.772 116.008 360.55 115.991C359.285 114.468 358.861 114.192 359.039 112.084C360.066 100.149 394.738 49.0799 404.551 41C404.891 41.0516 405.231 41.0775 405.553 41.1377C408.465 41.7228 409.492 42.9275 410.953 45.3196C411.054 47.3848 411.08 48.8906 410.087 50.7922C405.163 60.1886 397.318 68.9999 390.96 77.4756C381.536 89.9612 372.401 102.67 363.564 115.578Z" fill="black"/>
<path d="M124.633 101C115.357 96.7201 101.758 77.9675 96.8301 68.9092C94.7394 65.0676 94.4934 63.1596 95.8198 59C97.3132 59.1375 98.6661 59.4555 100.124 59.7907C108.417 66.3825 115.287 79.0246 120.707 88.0657C123.237 92.2855 126.012 95.9552 124.633 101Z" fill="black"/>
<path d="M405.39 157.918C404.533 158.076 403.589 157.962 402.714 157.936C401.026 156.092 401.052 156.136 401 153.62C406.602 141.686 441.701 118.972 454.022 110C454.498 110.079 454.991 110.07 455.45 110.227C457.571 110.952 458.1 111.826 459 113.687C457.779 120.143 413.095 152.013 405.39 157.918Z" fill="black"/>
<path d="M339.723 466.529C335.992 468.138 332.106 469.568 328.202 470.644C311.063 475.37 292.803 476.102 275.112 475.99C232.147 475.731 189.088 469.671 146.597 463.843C125.218 460.907 102.968 458.755 82.0459 453.443C75.1609 451.696 68.3447 449.345 62.1835 445.773C52.4031 440.091 44.8373 431.344 42.1918 420.213C33.7126 384.65 72.8945 248.252 83.3988 207.007C86.1132 196.332 93.9548 155.862 99.0992 149.475C101.512 146.487 104.606 145.575 108.216 144.783C163.142 141.925 224.754 147.391 279.49 153.142C308.374 156.181 339.31 158.565 367.143 167.192C385.816 172.977 398.992 182.016 408.126 199.629C413.977 210.916 415.666 221.771 414.778 234.357C413.313 255.199 405.679 276.179 400.517 296.41C392.908 325.826 384.946 355.148 376.656 384.383C371.615 402.436 366.996 420.79 361.232 438.619C356.199 454.192 354.665 458.875 339.723 466.529ZM112.309 152.591C109.569 152.927 106.605 152.866 104.476 154.786C101.857 163.18 100.478 172.159 98.6684 180.768C96.0315 193.448 93.1793 206.077 90.1288 218.664C79.6504 262.629 69.3098 306.31 60.4687 350.645C57.4096 365.969 52.6185 381.981 51.8947 397.615C51.4725 406.603 52.9029 415.513 57.1684 423.528C63.028 434.555 71.2832 439.221 83.0111 442.501C115.558 451.601 284.763 474.242 310.003 458.626C312.485 457.093 313.717 454.821 314.932 452.281C334.51 405.647 344.402 354.623 357.871 306C364.894 280.63 372.244 255.406 378.862 229.907C382.43 216.167 386.971 201.42 387.858 187.216C379.172 181.456 370.538 177.755 360.465 175.034C335.811 168.371 309.365 165.694 284.022 162.947C245.814 158.798 207.959 155.845 169.561 154.054C150.828 153.176 130.965 151.257 112.309 152.591ZM385.764 260.993C384.386 266.641 368.435 323.674 368.754 324.828C368.901 325.378 369.202 325.895 369.582 326.317C369.9 326.67 371.822 327.763 372.27 328.03C377.863 321.281 389.358 274.268 388.763 264.626C388.694 263.559 388.358 262.87 387.738 262.018L385.764 260.993ZM361.559 362.698C358.414 367.854 339.37 415.823 340.094 420.368C340.137 420.626 340.249 420.867 340.326 421.117L343.17 422.538C344.583 421.539 345.971 420.618 346.919 419.128C351.985 411.208 362.688 379.812 364.472 370.23C364.877 368.07 364.902 366.615 364.058 364.523L361.559 362.698Z" fill="black"/>
<path d="M319.027 316C288.49 310.495 257.66 304.938 226.925 300.695C216.32 299.226 205.586 298.805 194.99 297.319C177.673 294.889 161.779 291.453 144.038 289.641C130.483 288.25 117.022 288.155 103.501 287.073C100.196 286.807 96.348 286.635 94.0527 283.955C93.8457 281.061 94.277 278.51 94.8465 275.684C96.1149 269.449 117.73 176.586 118.472 175.539C120.258 173.005 122.268 173.039 125.073 172.344C136.298 173.048 148.042 172.009 159.337 172C176.586 172.06 193.817 172.704 211.022 173.932C248.591 176.131 285.833 182.161 322.159 191.926C329.83 193.979 341.893 195.877 347.32 202.035C348.537 206.304 347.907 211.174 347.087 215.477C345.396 224.271 342.134 232.989 339.848 241.664C335.05 259.915 326.543 301.597 319.027 316ZM175.231 192.991C168.475 194.039 163.85 195.319 159.673 201.133C154.453 208.417 154.22 219.848 155.791 228.386C158.992 245.812 176.335 273.494 190.814 283.646C193.817 285.75 197.726 287.004 201.134 288.327C217.028 283.363 233.241 274.714 246.529 264.716C258.946 255.097 273.658 242.119 276.013 225.697C276.868 219.737 276.013 213.226 272.346 208.279C268.688 203.366 262.812 200.824 256.823 200.18C242.741 198.66 229.764 205.402 217.968 212.05C217.71 211.895 217.451 211.74 217.192 211.586C201.807 202.181 195.517 192.347 175.231 192.991ZM285.444 200.188C284.374 203.461 283.65 206.579 285.306 209.825C288.171 215.416 317.776 223.31 324.765 224.821C326.266 225.148 327.759 225.397 329.278 225.629C329.916 220.973 330.719 216.267 331.029 211.577C317.086 205.909 300.389 201.649 285.444 200.188Z" fill="black"/>
<path d="M324.177 344C264.592 332.337 203.828 326.24 143.537 319.121C133.281 317.845 123.007 316.773 112.716 315.903C105.609 315.363 95.9724 316.14 89.3814 314.214C87.0497 313.538 86.9809 312.837 86 310.836C86.0688 308.007 86.7486 306.546 88.1683 304.105C104.844 303.244 129.409 307.897 146.738 309.848C186.869 314.197 226.931 319.197 266.898 324.83C281.284 326.84 308.801 329.846 321.854 334.069C324.228 334.837 324.822 335.859 325.984 337.92C326.104 340.706 325.562 341.686 324.177 344Z" fill="black"/>
</svg>
